<?xml version="1.0" encoding="UTF-8" standalone="no"?>
<!-- Created with Inkscape (http://www.inkscape.org/) -->

<svg
   width="50.037121mm"
   height="67.930214mm"
   viewBox="0 0 50.037121 67.930214"
   version="1.1"
   id="svg5"
   inkscape:version="1.1 (c68e22c387, 2021-05-23)"
   sodipodi:docname="Kappa.svg"
   xmlns:inkscape="http://www.inkscape.org/namespaces/inkscape"
   xmlns:sodipodi="http://sodipodi.sourceforge.net/DTD/sodipodi-0.dtd"
   xmlns="http://www.w3.org/2000/svg"
   xmlns:svg="http://www.w3.org/2000/svg">
  <sodipodi:namedview
     id="namedview7"
     pagecolor="#808080"
     bordercolor="#666666"
     borderopacity="1.0"
     inkscape:pageshadow="2"
     inkscape:pageopacity="1"
     inkscape:pagecheckerboard="0"
     inkscape:document-units="mm"
     showgrid="false"
     inkscape:zoom="4"
     inkscape:cx="148.875"
     inkscape:cy="126.375"
     inkscape:window-width="3440"
     inkscape:window-height="1377"
     inkscape:window-x="1072"
     inkscape:window-y="224"
     inkscape:window-maximized="1"
     inkscape:current-layer="layer1"
     fit-margin-top="0"
     fit-margin-left="0"
     fit-margin-right="0"
     fit-margin-bottom="0"
     showguides="false" />
  <defs
     id="defs2" />
  <g
     inkscape:groupmode="layer"
     id="layer2"
     inkscape:label="BG"
     style="display:inline"
     transform="translate(-32.430668,-75.435341)" />
  <g
     inkscape:label="Ebene 1"
     inkscape:groupmode="layer"
     id="layer1"
     style="display:inline"
     transform="translate(-32.430668,-75.435341)">
    <g
       id="g2056"
       transform="matrix(1,0,0,1.011547,0,-0.87024829)">
      <path
         style="color:#000000;fill:#ffffff;stroke-width:0.0802343;-inkscape-stroke:none"
         d="m 66.941454,142.47538 c 3.336076,-0.28086 5.172174,-3.56072 7.292914,-5.73257 3.91062,-4.13151 6.137719,-9.65172 6.287625,-15.32802 0.219482,-2.46078 -0.02137,-4.96991 0.09827,-7.4112 1.095271,-2.07042 -0.439842,-4.71977 1.189401,-6.60064 0.475983,-1.33098 0.134465,-2.90456 0.347813,-4.31212 0.04684,-3.246067 0.468775,-6.126682 0.245597,-9.584476 0.165877,-1.73523 -1.369061,-3.396656 -0.173317,-4.93902 -0.881443,-2.893108 -3.040306,-5.098077 -3.930363,-7.986542 -0.990317,-1.866287 -3.519162,-0.160009 -4.776745,-1.631893 -2.526033,-1.92804 -5.832987,-1.477915 -8.706444,-2.161272 -0.836297,-0.802917 3.835707,0.306473 1.46759,-0.59222 -2.584368,0.403688 -4.791769,-1.436252 -7.392849,-0.483413 -2.681216,0.403801 -5.393305,-0.490179 -7.922097,0.255844 -1.44402,1.046612 -4.759,1.443886 -5.329003,2.680564 1.560739,-1.429499 2.33512,0.572923 0.152541,0.47983 -3.442525,-0.407457 -4.711373,3.489364 -7.702004,4.422249 -1.387348,1.546873 -3.57642,3.295401 -4.004923,5.730264 -0.412147,2.928048 -1.998167,5.636286 -1.587483,8.662021 0.04764,3.909594 1.17898,7.682794 1.793093,11.516534 1.790275,-0.0255 1.483794,1.4271 -0.144059,0.61842 -1.221683,2.23651 -0.11164,5.30096 0.845259,7.57133 1.120638,1.05989 1.397198,4.64051 2.946693,3.18337 0.712902,1.79906 3.262737,-0.70966 0.54415,-0.50612 -1.990713,-1.69913 0.612539,-1.94713 0.994303,-0.20453 2.291525,0.40341 -0.765045,1.88513 -0.709191,3.16156 -1.156078,0.42552 -2.158145,-1.88346 -1.515656,0.55373 0.326033,2.13414 2.650202,2.38432 4.111117,1.90204 0.849188,3.52504 2.402559,7.04372 5.333961,9.32823 4.33675,4.50991 10.325326,7.49347 16.649103,7.50846 1.198605,0.0368 2.402079,-0.003 3.594702,-0.10041 z m -5.69664,-0.28669 c -1.469474,-0.13272 -5.024787,-0.69107 -5.081652,-1.45751 0.546641,0.31247 -0.06421,-1.13612 1.250495,-0.0537 0.451018,-0.48644 2.464329,-0.6068 3.485469,-0.22699 2.012962,0.43504 2.371568,-0.2612 3.717168,-0.19907 1.969583,-0.22759 3.524863,-0.21755 5.206038,-0.93346 1.973853,-1.23534 2.389434,-3.94188 2.64582,-5.12943 -0.0036,-3.11754 3.530817,-3.26961 4.816349,-5.73306 0.969936,-0.60901 0.623798,-2.6267 0.324604,-2.91559 -0.532111,-0.46206 -1.939245,-1.45436 -2.554222,-0.61032 -0.729939,-0.88024 -2.783719,-2.21928 -2.237855,-0.41494 -0.220165,0.91532 1.392405,-0.18226 -0.0095,1.31782 1.535904,0.89354 -0.399949,1.74742 1.054721,2.04178 -1.071374,2.43149 -2.85239,2.71544 -4.728298,3.42035 -1.171995,0.7928 -2.142686,0.40925 -1.253433,-0.72162 -3.015136,-0.10725 -5.926596,-1.07622 -8.966493,-0.80669 -3.562495,-0.0307 0.972692,-1.32718 2.277917,-0.88034 2.332807,-0.17347 4.590006,0.0911 6.769775,-0.5552 0.265304,-1.33084 -3.455739,0.073 -1.381808,-1.66398 0.978955,-3.0576 -4.610453,-1.78476 -4.949169,-3.84114 2.066055,-1.5474 3.968556,1.53797 6.132256,0.81218 1.92797,-0.67788 3.9686,-2.95023 5.843036,-1.18123 1.226443,0.95926 2.242836,1.03355 2.760746,-0.38757 1.091014,0.0769 2.29551,-2.79714 3.451911,-3.76238 1.062843,-2.07432 0.282534,3.37792 0.35719,4.34315 -0.153073,5.45041 -2.784696,10.47266 -6.452239,14.39591 -1.972865,2.21163 -4.121084,5.48475 -7.480157,5.20569 -1.664506,0.0677 -3.341079,0.0671 -4.998659,-0.0626 z m 6.940278,-12.18904 c 1.282179,0.25097 6.355365,-1.21391 2.746738,-1.25447 -2.623791,0.396 -4.991637,0.67585 -7.557748,0.67736 -0.67016,0.81713 4.125841,0.86617 4.81101,0.57711 z m -7.180981,-0.51833 c -0.509661,-0.77607 -4.32639,0.1351 -1.33188,0.0685 0.444366,-0.006 0.891474,0.005 1.33188,-0.0685 z m 8.420019,-4.26354 c 1.671249,-2.01208 -3.301819,0.32955 -0.697768,0.0181 l 0.355771,0.13739 0.341932,-0.15549 z m -4.67819,-1.94465 c -1.231957,-1.04056 -2.818131,-0.59318 -0.586274,-0.0525 0.04673,-0.0585 0.649434,0.36269 0.586274,0.0525 z m -10.486576,16.70751 c -2.013348,0.45643 -3.394582,-3.7417 -1.355582,-1.20824 0.06567,0.29912 2.594057,0.87408 1.355582,1.20824 z m -3.664224,-2.47908 c -2.278524,-1.34226 2.081023,0.327 0,0 z m 17.505623,-1.49697 c -1.232511,-1.10709 -3.292905,-1.53157 -3.57961,-3.20371 1.403731,-0.19302 4.947508,-1.15933 5.168341,-0.13102 -1.723149,1.62673 -0.508619,1.72744 1.035737,1.91684 -0.499555,0.74333 -1.614582,2.32891 -2.624468,1.41789 z M 49.21539,135.44985 c -0.479519,-1.27711 1.198888,0.20586 0,0 z m -9.2728,-11.90908 c -1.352873,-0.98783 2.185275,-0.48406 0.123375,0.11278 l -0.12337,-0.11279 z m 23.588902,-2.16738 c -2.00598,0.0458 -1.79916,-1.21386 0.102827,-0.94467 1.110897,-0.38063 1.325656,1.58225 -0.102827,0.94467 z m 3.065386,-0.66845 c -0.757569,-1.38072 -0.794662,-4.48394 -0.06295,-5.42824 0.286524,1.81599 1.52921,3.02601 0.607051,4.72235 0.05034,0.29338 -0.02916,1.12108 -0.544098,0.70589 z m -12.64076,-1.21483 c -0.565525,-0.97258 -3.2585,0.19274 -1.60222,-1.29045 1.876861,-0.63514 -1.110694,-0.88978 -1.459308,-0.4902 -1.541674,-0.57502 -0.204484,-0.88399 -1.728343,-1.46772 1.08098,-1.79288 3.805395,-0.50427 4.665025,0.92969 -0.07661,0.85933 1.219864,0.66656 1.486907,2.0574 -0.410794,0.20923 -0.967103,0.16065 -1.362061,0.26128 z m 16.91682,-0.003 c -1.838133,-2.45246 1.255854,-0.0918 0,0 z m -30.08831,-0.84143 c -1.521774,-0.33768 -1.07671,-3.88767 0.05935,-1.49742 0.18345,0.13904 0.303439,2.20075 -0.05935,1.49742 z m 17.068825,-0.094 c 0.937372,-0.68366 0.790515,0.46356 0,0 z m 1.398874,-0.0378 c -0.06648,-1.34433 1.195029,0.13911 0,0 z m -11.125833,-1.95971 c 0.367451,-1.43938 1.45323,0.33698 0,0 z m -10.464756,-0.38439 c -0.04003,-1.3783 1.866404,-2.9198 1.746411,-0.66089 -0.807875,-0.13718 -1.172803,0.5864 -1.746411,0.66089 z m 3.229906,-0.45262 c -1.430426,-1.53086 -2.019682,-2.98351 -3.397356,-4.49123 -1.281004,-1.92764 -3.148033,-1.42136 -3.527355,-4.70125 -0.671878,-3.29275 -1.212775,-6.627855 -1.050104,-9.981622 0.5504,-0.979648 1.381976,-4.136583 2.350469,-3.712843 -1.222711,1.216688 -0.228016,2.101938 0.226966,1.868577 -0.590592,0.5143 2.083065,-1.724571 1.568391,0.339803 0.51252,0.730863 1.151469,-3.336704 2.088402,-1.913698 0.765716,-0.832595 2.810446,-4.92748 1.654882,-1.825957 -1.363555,1.864246 -0.01922,1.612356 0.47055,-0.126346 0.386488,-0.961394 2.260757,-5.408849 1.465922,-2.131509 -1.275079,0.835513 -1.782206,5.144925 -0.55066,1.844719 0.791242,-0.986787 2.774674,-3.883713 1.368077,-0.866697 -0.41925,1.185312 -0.763905,3.582344 0.153737,1.139471 0.402569,-2.262764 1.071873,-2.162953 1.404081,-3.882208 0.787005,-1.032985 2.738032,-4.354876 1.446364,-1.125822 -0.87856,1.10169 -1.245798,3.204174 0.341515,1.493878 -1.758661,2.879765 1.938419,-1.316839 1.918194,-1.32431 -1.470231,0.946435 -2.235354,0.846246 -0.296107,-0.248376 1.335637,-0.829128 1.399661,-0.552662 0.795153,-0.103232 1.443666,0.0784 3.514553,-1.633741 3.001557,-1.841259 1.389468,-0.20664 3.193794,-1.867913 4.269353,-1.361273 -3.128326,0.661452 -3.435598,4.811154 -6.670273,4.869468 -1.336736,0.654426 -1.837085,0.643286 -0.857955,-0.445452 -1.735946,0.801713 -1.543826,2.071428 0.42497,1.411661 -1.03731,0.598345 -5.336636,2.914866 -1.718113,1.548886 2.421804,-0.319001 2.847771,-2.434241 5.01856,-3.056122 1.202391,-0.731557 -0.279006,1.907499 1.049913,-0.443568 1.621247,-1.954562 2.687721,-4.204337 5.647349,-3.526337 1.44163,0.702218 2.233917,0.26948 2.578204,-0.485723 0.546279,0.194559 -0.14633,3.330714 0.755135,0.875831 -0.323323,-1.52414 1.943254,-2.431088 1.75123,-2.758544 -0.900789,-0.394558 -2.29845,1.193785 -0.815227,-0.53999 1.042472,-1.56164 -2.382786,0.90678 -1.381171,2.015471 -1.425467,0.412646 -2.878095,0.121822 -0.839697,-0.72667 -2.510051,0.01635 -4.340739,1.123454 -6.792918,1.197597 0.25927,-0.831338 5.334405,-1.83421 2.447385,-1.831891 -1.518504,0.620593 -4.966676,2.799082 -5.331145,1.814286 0.733715,-0.911441 3.374886,-2.884368 1.767181,-2.678763 0.712677,-1.769886 -1.346915,1.789192 -2.332977,1.573536 -1.886421,1.749584 -0.600867,-3.879973 -0.133147,-3.1456 1.873501,-0.816377 -0.07765,-2.812147 2.185141,-2.005016 -1.130864,0.970639 2.883861,0.809132 2.206801,2.334815 1.451435,-0.551836 2.065077,0.705931 2.569285,-0.703983 0.629098,-0.129179 0.622595,-0.362816 0.543231,0.465364 0.970868,-0.50369 0.954937,-1.321338 1.732432,-1.091043 1.126946,-1.382755 1.839255,-0.08352 1.825857,0.536978 0.667421,-1.47891 2.356333,-0.29789 3.695918,-0.299783 1.435039,0.519085 3.041988,1.031972 3.340104,2.92344 0.534745,1.474356 -0.08862,-2.831323 1.207366,-0.779797 1.915333,1.201606 0.973613,1.095097 -0.219767,1.535134 1.592544,0.482295 -1.824056,0.660126 -0.549764,1.545251 -0.956567,0.749397 -2.302867,5.708774 -0.698429,2.511522 0.625768,-0.477794 1.711817,-0.96187 0.469683,-0.66875 1.211682,-1.781898 1.565263,-1.733984 3.403243,-2.046779 -2.179244,-0.568408 1.125084,-0.434851 1.702053,-0.32324 1.831187,1.009443 1.931072,-1.103893 3.400795,0.649817 2.46962,0.722799 2.872716,3.550479 4.041139,5.5404 -1.825464,2.181692 0.816232,3.920233 0.205444,7.177846 -0.638187,2.875997 0.06081,6.067452 -0.273321,9.061032 0.431505,1.94692 -1.272401,3.28611 -1.142799,5.15232 0.270967,1.33767 -0.21989,5.20209 -0.390723,1.79925 -0.923049,-2.03923 -0.292007,-3.94574 -1.267701,-6.12043 -1.055203,-1.42239 -0.791444,-3.38345 -1.12637,-5.13871 -0.667748,-1.003701 -2.018996,-2.783908 -1.649377,-1.458322 -1.908833,-0.439405 -0.443467,-3.13117 -2.583797,-4.407388 -1.860294,-1.396959 -4.243381,-3.045249 -6.324781,-2.933305 -0.479706,-2.130974 -1.84755,1.283191 -3.335755,0.315647 -1.466506,1.410073 -4.170571,0.599619 -4.114592,2.005316 -1.243629,1.26232 -2.73454,2.632933 -3.579814,2.2976 -0.01232,0.70937 -0.179078,3.453935 -1.003053,2.98219 0.219347,-3.023308 -2.279813,-0.550302 -4.039648,-1.281444 -1.273239,1.861815 2.157173,3.349946 2.006613,3.219966 0.548382,1.87674 -3.662445,-0.71034 -3.857153,-0.29698 1.887756,1.56342 -1.098437,1.91272 -1.847298,1.51258 -1.249108,2.24904 -2.200343,3.11665 -3.907148,5.17748 -1.582602,2.04861 -1.943789,4.65572 -1.960637,7.11912 -0.08698,0.40483 -0.272862,1.60758 -0.932513,0.97501 z m 0.334696,-1.05349 c -0.489591,-0.90237 -0.22871,0.97134 0,0 z m -0.01561,-1.0998 c -0.675964,-0.91289 -0.06888,-3.25766 1.161771,-4.78573 -0.06601,-1.40407 2.283269,-2.95042 1.815882,-3.9642 -1.910764,1.00535 -0.36627,-1.46741 -0.791565,-1.75819 0.718304,-1.48746 1.883473,-2.60828 3.131116,-2.04586 -0.55471,-1.618221 1.236898,-1.176343 1.825642,0.068 -0.701504,-1.971342 -0.632204,-1.947826 0.792085,-1.616572 -0.971529,-2.348437 1.270189,-0.872674 1.708822,-1.251221 -0.595899,-1.514946 1.89451,-0.602862 0.377315,-1.082422 -0.546826,-2.78075 2.536241,-2.085742 2.350429,-1.628344 0.763717,-1.363478 0.236306,0.901894 1.305237,-0.783262 1.717101,0.21553 -3.623411,4.043004 -0.75356,2.304191 1.294606,-0.623758 1.943788,-3.007501 2.756696,-2.527595 1.425371,0.208016 1.413949,-1.357269 0.370665,-0.800578 0.321856,-0.813847 2.516895,-4.076142 1.61666,-3.548836 -0.37893,1.081297 -2.62321,3.911596 -1.404855,1.046193 0.788071,-0.887256 1.397935,-2.276303 2.109443,-3.875675 0.286466,1.461602 -0.310121,2.980203 -0.779818,4.846556 1.169318,-0.650886 1.671216,-5.967544 1.751347,-2.55256 -0.16787,1.38566 -1.796718,4.087805 0.584522,2.300605 0.878843,-1.062302 0.749557,-1.847143 0.830905,-0.540541 1.055941,-0.375998 0.187543,-2.355958 1.583783,-0.605502 0.937374,0.358487 -1.013025,-3.750051 0.595113,-1.257327 1.464713,0.07785 -0.528898,-2.16796 1.067984,-1.436046 1.339435,-0.579554 0.125249,-2.786531 -0.129948,-2.969899 0.294443,-0.885571 0.717907,-3.24207 -0.852307,-1.923092 1.719932,-0.241772 -1.732829,0.897552 -1.462516,1.273632 -0.347569,1.359471 0.162924,2.315425 -0.639584,2.21605 -0.122085,-0.347526 0.252684,-2.953781 -0.42579,-2.067728 -1.481441,-0.495241 -3.057814,-2.331583 -4.90061,-0.490236 0.868755,-0.153089 2.305656,-0.236659 0.381313,0.316565 -0.339758,0.86975 4.012943,-0.701021 2.864865,0.602559 -2.04489,0.364208 -3.024084,2.203633 -4.281051,3.817098 -0.635522,-0.579536 1.159454,-2.468095 -0.05585,-1.542372 0.41313,-1.309437 2.238216,-3.040722 -0.111085,-1.327863 -1.26754,0.9678 -1.838097,6.402881 -1.948421,2.469785 0.923389,-2.282485 -1.588428,1.040836 -1.338104,0.955234 -0.04762,1.120443 -2.633061,3.37112 -1.042743,1.035028 1.954923,-1.796703 -3.619197,1.071667 -0.420202,-1.253221 -1.181104,0.300105 -4.4137,3.318658 -3.788081,1.563857 -0.962629,0.687579 -3.947474,2.328519 -2.380009,-0.11934 1.195757,-3.464818 -1.400422,1.620014 -1.3933,2.748355 -1.705146,2.8397 0.357295,-5.000717 -1.200031,-0.784079 0.18592,0.729082 -0.925871,3.34926 -0.852746,1.371806 -1.32526,1.291226 -2.799472,3.970692 -3.498078,4.473727 1.179471,-2.588042 -0.461987,-0.693673 -0.791143,0.821919 -0.752283,0.433333 0.596699,-3.215283 -0.699262,-0.708631 -0.913731,1.343938 1.265927,-5.066449 -0.722115,-1.65715 -0.77788,0.650581 -1.050664,3.263982 -1.054836,0.85481 0.158258,-3.880037 -2.105304,2.144227 -0.426119,3.395722 1.233483,-1.697928 0.253125,2.96399 0.484434,3.9873 -0.934076,3.39008 1.893628,4.63378 3.965227,6.5691 1.006057,0.61577 0.965264,2.39423 2.086073,2.01267 0.15508,0.93063 0.544586,0.39449 0.626398,-0.14668 z m 0.375772,-17.222982 c 0.05966,-2.073527 0.81277,-1.057609 0,0 z m 7.583118,-0.0449 c -1.532229,-0.755809 5.521345,-4.470303 1.895755,-1.751438 0.546813,-0.0013 2.274572,-1.201818 0.431737,0.254324 -0.694594,0.364194 -1.754077,1.522462 -2.327492,1.497114 z m -4.243635,-3.584111 c 1.057939,-1.850082 0.527558,0.708363 0,0 z m 7.396947,-0.34379 c -0.316691,-1.988252 1.491611,0.869023 0,0 z m 4.588839,-1.321708 c 0.441126,-1.472151 -0.301904,-1.7761 -1.046593,-0.440918 -0.473974,-0.922385 1.271766,-2.768982 1.932812,-3.040527 -0.02819,1.310738 -0.820462,3.231593 0.59844,1.339843 -0.310437,0.616806 -1.072011,1.838118 -1.484659,2.141602 z m 5.453806,-2.286052 c -0.374579,-1.664029 0.926135,0.371416 0,0 z M 80.68931,109.06179 c 1.425531,-2.67292 1.090615,-5.69261 1.201546,-8.6254 -1.314227,-2.490999 1.106227,-5.131403 -0.30654,-7.980852 -1.139563,-1.903662 -0.207962,-1.48635 -0.63007,-3.548883 1.11138,-1.72188 -1.41292,-4.156331 -2.090921,-4.939839 2.160928,0.39781 -2.397321,-1.221027 -3.103875,-0.455661 -1.237517,0.228833 -4.816463,-0.152429 -4.59914,1.26145 1.078522,-0.303372 4.471518,-1.257347 1.58653,-0.09647 -1.698748,0.03227 -3.19441,2.131049 -0.690128,0.956704 0.731038,0.506769 1.800259,0.191262 2.619367,0.390702 -1.016069,1.000374 -4.035026,2.860677 -4.562846,2.494714 1.060177,-0.69876 3.787849,-2.09763 0.949433,-1.104392 -3.170914,0.71538 2.980439,-1.590293 -0.189263,-1.101638 -1.366536,0.335737 -4.271199,2.707841 -3.465045,3.544365 1.01704,-0.328972 1.767669,1.505338 2.842759,1.137324 1.03429,1.289158 3.663161,1.306167 4.366865,2.954298 1.906114,2.115633 3.494685,4.604651 4.228491,7.412898 0.836789,2.56801 0.535414,5.45695 1.754722,7.87799 0.100115,0.10113 0.114191,-0.11056 0.08812,-0.17731 z M 71.42995,90.0277 c 1.094169,-0.763275 -0.754579,-1.139721 1.208146,-2.080192 2.700678,-2.624115 0.609922,2.382711 -0.775492,2.081696 -0.608565,0.459041 -1.625069,1.170473 -0.432654,-0.0015 z m 9.204336,0.01315 c -0.324882,-1.607163 0.82617,0.274511 0,0 z m 0.005,-1.494277 c -2.344701,-2.985766 1.526202,-0.32347 0,0 z m -1.101554,-1.992149 c -2.21191,-0.86873 1.382126,-0.237744 0,0 z m -0.261515,-1.362903 c -0.230926,-1.119261 1.003501,0.689822 0,0 z m -0.627752,-0.221684 c -0.742701,-1.226392 0.974954,0.212207 0,0 z M 34.245949,102.57618 c -0.260205,-0.94625 -0.306488,1.59057 0,0 z m 10.406423,0.0853 c 0.697762,-1.10562 1.935207,0.45722 0.818673,-1.40766 -0.393153,-0.37449 -1.359591,1.86697 -0.818673,1.40766 z m 6.326454,-1.57683 c 0.837405,-0.40346 -1.405053,-0.1754 0,0 z m -0.284832,-0.92067 c -0.473418,-1.45934 -1.826617,-0.505268 0,0 z m 2.367358,-2.939092 c -0.03745,-1.105642 -1.057164,0.559437 0,0 z m 0.73308,-0.51107 c 1.443691,-2.077042 -1.754856,1.20836 0,0 z m 2.350284,-0.8647 c 1.298219,-2.259939 -1.540689,1.48155 0,0 z M 38.256037,94.661277 c 0.471115,-1.432242 -0.702839,1.07214 0,0 z m 1.239387,-0.416699 c 0.55023,-1.505763 -0.68132,0.8338 0,0 z m 19.188815,-1.334672 c 1.065783,-1.313346 -1.324879,0.743412 0,0 z m 8.297332,-4.588702 c 1.307682,-0.587673 1.3562,-3.395432 1.25399,-3.887262 0.117907,-0.74461 -1.04446,-0.337644 0.216725,-1.309312 -0.535118,-0.194144 -2.509911,-1.425538 -2.192632,0.443514 -0.320902,1.242146 0.07944,3.863255 0.721917,4.75306 z m 1.141852,-0.34264 c 1.580958,-1.478869 -2.084066,1.33986 0,0 z M 49.929934,87.351717 c 1.329536,-0.78103 5.158003,-3.197265 1.667864,-1.842779 0.116207,0.551379 -3.59441,2.615993 -1.667864,1.842779 z M 68.75658,87.18112 c 1.781004,-0.487 1.339714,-2.664827 -0.08148,-0.977119 -0.09269,0.277513 -0.856265,1.584393 0.08148,0.977119 z M 57.923702,85.679662 c 2.466242,-2.317148 -3.34377,2.317052 -0.844421,0.712051 0.269302,-0.251236 0.549117,-0.491778 0.844421,-0.712051 z m -0.03314,-0.607047 c 0.648261,-0.740083 -1.56057,0.726428 0,0 z m 8.006656,-1.301053 c 0.477905,-1.412112 0.817665,-4.639957 -0.0086,-1.670148 -0.212447,0.336457 -0.343113,3.528444 0.0086,1.670148 z m 9.373831,-0.44138 c 2.138236,-0.64761 -2.448099,-0.275668 0,8.5e-5 z M 53.020791,82.141524 c 0.96128,-1.424211 -1.680518,1.416651 0,0 z m 12.70613,-0.02399 c -0.35295,-1.484899 -1.179379,1.524477 0,0 z m 2.541843,0.102372 c 0.336994,-0.845369 -0.632468,-1.090048 -0.421882,-1.751777 -1.891206,0.66119 -1.520112,2.042804 0.421882,1.751777 z M 57.705692,81.854539 c 3.015464,-1.006126 -2.679551,0.108635 -0.52761,0.141593 l 0.52761,-0.141577 z m -6.85592,-0.361159 c 1.098381,-1.617058 3.621789,-3.101541 3.567607,-3.75073 -1.435819,-1.775367 -5.140252,2.977834 -1.671009,0.858562 0.709456,-0.283341 -3.68727,3.509509 -1.896598,2.892168 z m 2.965463,-0.09136 c 1.031035,-0.323171 5.461199,-2.685319 1.975801,-1.438873 -0.181617,0.08381 -3.512631,2.087621 -1.975801,1.438873 z m 5.505209,-0.435563 c 0.261118,-1.032726 2.93919,-1.104849 0.6062,-1.06177 -0.357154,0.196829 -2.412187,1.328742 -0.6062,1.06177 z m 2.267572,-0.313902 c 1.41946,-1.645079 -1.242695,0.666497 0,0 z m 3.206014,-0.158076 c 0.411873,-1.070691 -1.015112,0.541161 0,0 z m -7.368374,-0.148545 c 2.497518,-1.280007 -0.05898,-0.32468 0,0 z m 9.515542,-0.129648 c 1.326868,-0.485012 0.102867,-1.456338 -0.432515,-0.273483 -0.55564,-0.435634 0.298256,0.856971 0.432515,0.273483 z M 62.59381,80.045015 c -1.21959,-0.41952 0.394301,0.592908 0,0 z m -0.316278,-0.571176 c 1.216154,-2.696516 -2.60906,1.167746 -2e-6,3.4e-5 z m -6.207646,0.05817 c 1.315794,-0.61741 -0.660227,-0.617794 -0.539526,0.149172 l 0.187732,-0.0044 z m 4.68424,0.04075 c -1.312405,-0.356669 -1.275975,0.325899 0,0 z m 2.102208,-0.249306 c 1.019861,-1.717551 -0.179613,-1.720474 -0.297516,0.04596 -0.279934,0.200947 0.319498,0.668958 0.297516,-0.04596 z m -1.688971,-0.75183 c 0.370829,-1.197991 -1.596873,-0.468883 -0.664826,0.262318 -0.283773,1.095347 0.582432,0.07092 0.664826,-0.262318 z m 6.581164,0.24017 c 0.396688,-0.702771 -1.20285,0.06185 0,0 z m -5.918326,-0.690982 c -0.85265,-2.872822 -0.437376,1.292137 0,0 z m 3.24979,-0.0511 c 1.286613,-0.700995 -2.660123,0.212281 -0.256677,0.195427 l 0.256677,-0.195412 z m 4.023305,37.779199 c -0.288933,-2.32289 -3.607699,-6.69673 0.02762,-7.66469 1.324417,-1.39518 3.07462,-0.92293 3.682929,-1.0448 1.047976,-0.68965 1.375645,0.24909 2.436588,-0.40438 1.092053,0.8887 1.665266,0.63838 2.516745,0.10223 1.460564,0.28035 2.248802,1.3763 1.611013,2.99315 0.668522,2.3067 -2.063896,3.80527 -3.648398,4.72609 -1.256313,0.2852 -2.996975,0.60233 -3.871656,0.69885 -1.429197,-0.63412 -1.646838,-0.33591 -2.463278,0.70615 l -0.292122,-0.11239 z m -0.393645,-4.0206 c 1.75713,0.50567 4.858479,0.26833 5.806763,-0.49895 -0.587591,1.4224 4.358974,1.17882 2.617276,-0.93147 0.536991,-0.3675 2.768418,-1.19999 0.875036,-2.01488 -1.737063,0.36855 -3.209079,-1.51651 -5.1317,-0.45078 -2.132485,0.0827 -5.84232,1.63097 -4.590963,4.32842 0.126164,-0.15845 0.215941,-0.35391 0.423588,-0.43234 z m -20.743625,3.26836 c -2.041951,-0.40903 -0.103386,-2.15462 1.016525,-0.73058 -0.971171,-0.406 -0.662052,1.27082 -1.016525,0.73058 z m 7.749443,-0.97253 c -1.01887,-0.56391 4.260833,-0.40313 1.520155,-1.69645 -1.283108,-0.17814 -2.536373,-0.091 -3.553446,0.30395 -1.435914,-0.0411 -3.212624,0.34323 -2.906417,-0.90731 -1.236695,-0.0577 0.534259,-2.13401 1.394528,-2.38417 2.691568,-0.7456 4.995317,-2.10067 7.737414,-2.43169 1.9064,-0.24434 5.001491,1.30589 3.857197,3.53693 -0.626153,1.80646 -4.685245,1.02002 -2.697344,2.96269 -1.290138,0.88432 -3.629969,0.92128 -5.352087,0.61605 z m -1.747084,-2.07127 c 1.713322,0.35457 3.242209,-0.0159 4.265637,-0.88755 0.668579,0.56546 3.728514,1.36961 1.35084,-0.13325 3.105342,0.0872 -1.641861,-2.49567 -2.884326,-0.90382 -1.028724,0.67218 -4.670346,0.73577 -4.361737,1.91152 0.515835,0.26312 1.097566,0.11185 1.629586,0.0131 z m 0.07539,-1.80211 c 2.65031,-0.6463 -0.393714,-1.35038 -1.040782,0.0411 0.32757,0.19615 0.705084,-0.063 1.040782,-0.0411 z m 5.556229,-1.48961 c 3.242617,-0.68505 -2.076932,-2.37128 -2.693282,-0.23141 0.803278,0.54704 1.846338,0.23512 2.693282,0.23141 z m -24.75091,4.73711 c -0.711833,-1.31752 -1.048806,-3.62346 1.107675,-2.03694 0.952628,0.49593 2.8927,2.31078 0.704999,0.81372 -1.111214,-0.58075 -1.154776,1.1054 -1.812674,1.22322 z m 3.64246,-23.553867 c 0.766713,-2.161197 0.95009,-0.482242 -0.175328,0.509142 l 0.175328,-0.509121 z m -1.946384,0.184285 c -0.05349,-1.761143 0.786504,0.224637 0,0 z m 1.071847,-1.909333 c -0.02822,-1.366522 0.63951,0.821544 0,0 z m 2.327352,-0.01314 c 0.219577,-1.101568 1.961026,-4.043413 0.79847,-1.343727 -0.231381,0.331684 -0.449654,1.366173 -0.79847,1.343727 z m -1.285534,-0.100071 c 0.980631,-3.048528 0.66401,0.01523 0,0 z m 2.40703,0.09103 c 0.49696,-2.713698 2.208446,-3.928994 3.196867,-6.027345 -0.247721,-2.024292 3.812437,-3.994929 1.939745,-1.672829 -1.608406,1.495985 -2.372666,3.620357 -3.38979,5.642738 -0.41081,0.148406 -0.984431,1.268341 -1.746822,2.057436 z m -2.910807,-1.100549 c 0.05765,-1.509838 1.35715,-2.825168 0.394014,-0.601756 0.0084,-0.226075 -0.341603,1.126282 -0.394014,0.601756 z m 6.762056,-0.706445 c 0.386486,-1.322887 0.738007,-0.388716 7e-6,0 z m 0.641875,-1.160707 c 0.784031,-1.320747 2.261702,-4.150206 0.230181,-1.423652 -2.333243,1.846899 1.010882,-2.097753 1.455131,-2.92856 1.234692,-2.235574 1.592962,1.35179 0.135281,2.325788 -0.846825,0.499457 -1.100759,1.510609 -1.820593,2.026424 z m 1.990209,-3.608516 c 1.799613,-2.892886 -2.105491,1.652761 0,0 z m -8.408958,3.21032 c 0.465954,-1.334903 0.749765,-0.375233 0,0 z m 1.847926,-0.815077 c 0.829801,-1.819093 0.357229,0.479362 0,0 z m 2.083559,-1.311388 c 0.992218,-1.960084 1.112933,-0.781229 6e-6,-1.7e-5 z m -0.908596,-0.436796 c 0.363048,-0.929209 0.76321,0.166861 0,0 z m 31.451143,-0.58281 c -0.160096,-0.926307 0.800625,0.291591 0,0 z M 49.520803,80.07382 c -0.559042,-2.014082 1.222361,0.0021 0,0 z m 22.561941,-0.57581 c -2.191911,-0.795109 2.60471,0.02906 0,0 z M 48.643367,79.109771 c -1.417409,-1.353896 1.01767,0.05676 0,0 z m 21.411851,-0.99527 c -0.827674,-0.917854 2.039504,0.411516 0,0 z M 58.090189,76.964738 c -1.472511,-0.573663 0.715368,-0.528686 0.238335,-0.05495 0.686786,0.149839 -0.122682,0.511374 -0.238335,0.05495 z m 2.001005,-0.433558 c -0.08631,-0.660392 1.119312,0.337479 0,0 z m -4.095782,-0.245198 c -0.656346,-0.52329 1.514451,-0.127937 0,0 z m 4.848229,-0.231084 c -1.385753,-0.836414 2.858242,0.05189 0,5e-5 z"
         id="path5960"
         sodipodi:nodetypes="scccccccccccccccccccccccccccccsscccccccccccccccccccccccccccccccccccccccccccccccccccccccccccccccsccsscccccccccccccccccccccccccccccccccccccccccccccccccccccccccccccccccccccccccccccccccccccccccccccccccccccsccccccccccccccccccccccccccccccccccccccccccccccccccccsscccccccccccccccccsccccccccccccccccccsccssccccccccccccccccccccccccccccccccccccccccccccccccccccccccccccccccccccccccccccccccccccccccccccccccccccccccccccccccccccccccccccccccccccccccccccccccccccccccccccccccccccccccccccccccccccccccccccccccccccccccccccccccccccccccc" />
    </g>
  </g>
</svg>
