solid OpenSCAD_Model
  facet normal 0 1 -0
    outer loop
      vertex 46.3858 42.8 0
      vertex 7.01243 42.8 0.299999
      vertex 46.3858 42.8 0.299999
    endloop
  endfacet
  facet normal 0 1 0
    outer loop
      vertex 7.01243 42.8 0.299999
      vertex 46.3858 42.8 0
      vertex 7.01243 42.8 0
    endloop
  endfacet
  facet normal 0 1 -0
    outer loop
      vertex 32.5299 42.8 0.599999
      vertex 21.1122 42.8 0.9
      vertex 32.5299 42.8 0.9
    endloop
  endfacet
  facet normal 0 1 0
    outer loop
      vertex 21.1122 42.8 0.9
      vertex 32.5299 42.8 0.599999
      vertex 21.1122 42.8 0.599999
    endloop
  endfacet
  facet normal 0 0 1
    outer loop
      vertex 32.5299 42.8 0.9
      vertex 21.1122 42.8 0.9
      vertex 32.5299 20.3393 0.9
    endloop
  endfacet
  facet normal -0 0 1
    outer loop
      vertex 32.5299 20.3393 0.9
      vertex 44.0699 10.5 0.9
      vertex 44.0699 20.3393 0.9
    endloop
  endfacet
  facet normal 0 0 1
    outer loop
      vertex 21.1122 20.3393 0.9
      vertex 32.5299 20.3393 0.9
      vertex 21.1122 42.8 0.9
    endloop
  endfacet
  facet normal 0 0 1
    outer loop
      vertex 9.85683 10.5 0.9
      vertex 32.5299 20.3393 0.9
      vertex 21.1122 20.3393 0.9
    endloop
  endfacet
  facet normal 0 0 1
    outer loop
      vertex 9.85683 10.5 0.9
      vertex 21.1122 20.3393 0.9
      vertex 9.85683 20.3393 0.9
    endloop
  endfacet
  facet normal 0 0 1
    outer loop
      vertex 32.5299 20.3393 0.9
      vertex 9.85683 10.5 0.9
      vertex 44.0699 10.5 0.9
    endloop
  endfacet
  facet normal 0 0 -1
    outer loop
      vertex 18.3493 12.7121 0
      vertex 7.01243 12.7121 0
      vertex 18.3493 38.7029 0
    endloop
  endfacet
  facet normal 0 0 -1
    outer loop
      vertex 35.0897 38.7029 0
      vertex 46.3858 12.7121 0
      vertex 35.0897 12.7121 0
    endloop
  endfacet
  facet normal 0 0 -1
    outer loop
      vertex 46.3858 12.7121 0
      vertex 35.0897 38.7029 0
      vertex 46.3858 42.8 0
    endloop
  endfacet
  facet normal 0 0 -1
    outer loop
      vertex 18.3493 38.7029 0
      vertex 46.3858 42.8 0
      vertex 35.0897 38.7029 0
    endloop
  endfacet
  facet normal 0 0 -1
    outer loop
      vertex 18.3493 38.7029 0
      vertex 7.01243 42.8 0
      vertex 46.3858 42.8 0
    endloop
  endfacet
  facet normal 0 0 -1
    outer loop
      vertex 7.01243 42.8 0
      vertex 18.3493 38.7029 0
      vertex 7.01243 12.7121 0
    endloop
  endfacet
  facet normal 0 0 1
    outer loop
      vertex 46.3858 42.8 0.299999
      vertex 35.0897 38.7029 0.299999
      vertex 46.3858 12.7121 0.299999
    endloop
  endfacet
  facet normal 0 0 1
    outer loop
      vertex 46.3858 42.8 0.299999
      vertex 18.3493 38.7029 0.299999
      vertex 35.0897 38.7029 0.299999
    endloop
  endfacet
  facet normal -0 0 1
    outer loop
      vertex 7.01243 42.8 0.299999
      vertex 18.3493 38.7029 0.299999
      vertex 46.3858 42.8 0.299999
    endloop
  endfacet
  facet normal 0 0 1
    outer loop
      vertex 7.01243 12.7121 0.299999
      vertex 18.3493 38.7029 0.299999
      vertex 7.01243 42.8 0.299999
    endloop
  endfacet
  facet normal 0 0 1
    outer loop
      vertex 18.3493 38.7029 0.299999
      vertex 7.01243 12.7121 0.299999
      vertex 18.3493 12.7121 0.299999
    endloop
  endfacet
  facet normal 0 0 1
    outer loop
      vertex 46.3858 12.7121 0.299999
      vertex 35.0897 38.7029 0.299999
      vertex 35.0897 12.7121 0.299999
    endloop
  endfacet
  facet normal 1 -0 0
    outer loop
      vertex 46.3858 12.7121 0.299999
      vertex 46.3858 42.8 0
      vertex 46.3858 42.8 0.299999
    endloop
  endfacet
  facet normal 1 0 0
    outer loop
      vertex 46.3858 42.8 0
      vertex 46.3858 12.7121 0.299999
      vertex 46.3858 12.7121 0
    endloop
  endfacet
  facet normal 0 -1 0
    outer loop
      vertex 35.0897 12.7121 0
      vertex 46.3858 12.7121 0.299999
      vertex 35.0897 12.7121 0.299999
    endloop
  endfacet
  facet normal 0 -1 -0
    outer loop
      vertex 46.3858 12.7121 0.299999
      vertex 35.0897 12.7121 0
      vertex 46.3858 12.7121 0
    endloop
  endfacet
  facet normal -1 0 0
    outer loop
      vertex 35.0897 12.7121 0
      vertex 35.0897 38.7029 0.299999
      vertex 35.0897 38.7029 0
    endloop
  endfacet
  facet normal -1 -0 0
    outer loop
      vertex 35.0897 38.7029 0.299999
      vertex 35.0897 12.7121 0
      vertex 35.0897 12.7121 0.299999
    endloop
  endfacet
  facet normal 0 -1 0
    outer loop
      vertex 18.3493 38.7029 0
      vertex 35.0897 38.7029 0.299999
      vertex 18.3493 38.7029 0.299999
    endloop
  endfacet
  facet normal 0 -1 -0
    outer loop
      vertex 35.0897 38.7029 0.299999
      vertex 18.3493 38.7029 0
      vertex 35.0897 38.7029 0
    endloop
  endfacet
  facet normal 1 -0 0
    outer loop
      vertex 18.3493 12.7121 0.299999
      vertex 18.3493 38.7029 0
      vertex 18.3493 38.7029 0.299999
    endloop
  endfacet
  facet normal 1 0 0
    outer loop
      vertex 18.3493 38.7029 0
      vertex 18.3493 12.7121 0.299999
      vertex 18.3493 12.7121 0
    endloop
  endfacet
  facet normal 0 -1 0
    outer loop
      vertex 7.01243 12.7121 0
      vertex 18.3493 12.7121 0.299999
      vertex 7.01243 12.7121 0.299999
    endloop
  endfacet
  facet normal 0 -1 -0
    outer loop
      vertex 18.3493 12.7121 0.299999
      vertex 7.01243 12.7121 0
      vertex 18.3493 12.7121 0
    endloop
  endfacet
  facet normal -1 0 0
    outer loop
      vertex 7.01243 12.7121 0
      vertex 7.01243 42.8 0.299999
      vertex 7.01243 42.8 0
    endloop
  endfacet
  facet normal -1 -0 0
    outer loop
      vertex 7.01243 42.8 0.299999
      vertex 7.01243 12.7121 0
      vertex 7.01243 12.7121 0.299999
    endloop
  endfacet
  facet normal 0 0 -1
    outer loop
      vertex 44.0699 10.5 0.599999
      vertex 32.5299 20.3393 0.599999
      vertex 44.0699 20.3393 0.599999
    endloop
  endfacet
  facet normal 0 0 -1
    outer loop
      vertex 32.5299 20.3393 0.599999
      vertex 21.1122 20.3393 0.599999
      vertex 32.5299 42.8 0.599999
    endloop
  endfacet
  facet normal 0 0 -1
    outer loop
      vertex 9.85683 10.5 0.599999
      vertex 32.5299 20.3393 0.599999
      vertex 44.0699 10.5 0.599999
    endloop
  endfacet
  facet normal -0 0 -1
    outer loop
      vertex 32.5299 20.3393 0.599999
      vertex 9.85683 10.5 0.599999
      vertex 21.1122 20.3393 0.599999
    endloop
  endfacet
  facet normal -0 0 -1
    outer loop
      vertex 21.1122 20.3393 0.599999
      vertex 9.85683 10.5 0.599999
      vertex 9.85683 20.3393 0.599999
    endloop
  endfacet
  facet normal -0 0 -1
    outer loop
      vertex 32.5299 42.8 0.599999
      vertex 21.1122 20.3393 0.599999
      vertex 21.1122 42.8 0.599999
    endloop
  endfacet
  facet normal 0 1 -0
    outer loop
      vertex 44.0699 20.3393 0.599999
      vertex 32.5299 20.3393 0.9
      vertex 44.0699 20.3393 0.9
    endloop
  endfacet
  facet normal 0 1 0
    outer loop
      vertex 32.5299 20.3393 0.9
      vertex 44.0699 20.3393 0.599999
      vertex 32.5299 20.3393 0.599999
    endloop
  endfacet
  facet normal 1 -0 0
    outer loop
      vertex 32.5299 20.3393 0.9
      vertex 32.5299 42.8 0.599999
      vertex 32.5299 42.8 0.9
    endloop
  endfacet
  facet normal 1 0 0
    outer loop
      vertex 32.5299 42.8 0.599999
      vertex 32.5299 20.3393 0.9
      vertex 32.5299 20.3393 0.599999
    endloop
  endfacet
  facet normal -1 0 0
    outer loop
      vertex 21.1122 20.3393 0.599999
      vertex 21.1122 42.8 0.9
      vertex 21.1122 42.8 0.599999
    endloop
  endfacet
  facet normal -1 -0 0
    outer loop
      vertex 21.1122 42.8 0.9
      vertex 21.1122 20.3393 0.599999
      vertex 21.1122 20.3393 0.9
    endloop
  endfacet
  facet normal 0 1 -0
    outer loop
      vertex 21.1122 20.3393 0.599999
      vertex 9.85683 20.3393 0.9
      vertex 21.1122 20.3393 0.9
    endloop
  endfacet
  facet normal 0 1 0
    outer loop
      vertex 9.85683 20.3393 0.9
      vertex 21.1122 20.3393 0.599999
      vertex 9.85683 20.3393 0.599999
    endloop
  endfacet
  facet normal -1 0 0
    outer loop
      vertex 9.85683 10.5 0.599999
      vertex 9.85683 20.3393 0.9
      vertex 9.85683 20.3393 0.599999
    endloop
  endfacet
  facet normal -1 -0 0
    outer loop
      vertex 9.85683 20.3393 0.9
      vertex 9.85683 10.5 0.599999
      vertex 9.85683 10.5 0.9
    endloop
  endfacet
  facet normal 0 -1 0
    outer loop
      vertex 9.85683 10.5 0.599999
      vertex 44.0699 10.5 0.9
      vertex 9.85683 10.5 0.9
    endloop
  endfacet
  facet normal 0 -1 -0
    outer loop
      vertex 44.0699 10.5 0.9
      vertex 9.85683 10.5 0.599999
      vertex 44.0699 10.5 0.599999
    endloop
  endfacet
  facet normal 1 -0 0
    outer loop
      vertex 44.0699 10.5 0.9
      vertex 44.0699 20.3393 0.599999
      vertex 44.0699 20.3393 0.9
    endloop
  endfacet
  facet normal 1 0 0
    outer loop
      vertex 44.0699 20.3393 0.599999
      vertex 44.0699 10.5 0.9
      vertex 44.0699 10.5 0.599999
    endloop
  endfacet
endsolid OpenSCAD_Model
