solid OpenSCAD_Model
  facet normal 0 1 -0
    outer loop
      vertex 46.6984 42.8 0
      vertex 35.2527 42.8 0.299999
      vertex 46.6984 42.8 0.299999
    endloop
  endfacet
  facet normal 0 1 0
    outer loop
      vertex 35.2527 42.8 0.299999
      vertex 46.6984 42.8 0
      vertex 35.2527 42.8 0
    endloop
  endfacet
  facet normal 0 1 -0
    outer loop
      vertex 34.3115 42.8 0.599999
      vertex 7.2563 42.8 0.9
      vertex 34.3115 42.8 0.9
    endloop
  endfacet
  facet normal 0 1 0
    outer loop
      vertex 7.2563 42.8 0.9
      vertex 34.3115 42.8 0.599999
      vertex 7.2563 42.8 0.599999
    endloop
  endfacet
  facet normal 0 0 1
    outer loop
      vertex 34.3115 42.8 0.9
      vertex 39.6005 10.5 0.9
      vertex 53.1718 10.5 0.9
    endloop
  endfacet
  facet normal 0 0 1
    outer loop
      vertex 34.3115 42.8 0.9
      vertex 24.9722 36.5344 0.9
      vertex 39.6005 10.5 0.9
    endloop
  endfacet
  facet normal -0 0 1
    outer loop
      vertex 7.2563 42.8 0.9
      vertex 24.9722 36.5344 0.9
      vertex 34.3115 42.8 0.9
    endloop
  endfacet
  facet normal 0 0 1
    outer loop
      vertex 7.2563 42.8 0.9
      vertex 18.7148 29.1771 0.9
      vertex 24.9722 36.5344 0.9
    endloop
  endfacet
  facet normal 0 0 1
    outer loop
      vertex 7.2563 10.5 0.9
      vertex 18.7148 29.1771 0.9
      vertex 7.2563 42.8 0.9
    endloop
  endfacet
  facet normal 0 0 1
    outer loop
      vertex 18.7148 29.1771 0.9
      vertex 7.2563 10.5 0.9
      vertex 18.7148 10.5 0.9
    endloop
  endfacet
  facet normal 0 0 -1
    outer loop
      vertex 35.2527 12.7121 0
      vertex 46.6984 42.8 0
      vertex 46.6705 12.7121 0
    endloop
  endfacet
  facet normal -0 0 -1
    outer loop
      vertex 46.6984 42.8 0
      vertex 35.2527 12.7121 0
      vertex 35.2527 42.8 0
    endloop
  endfacet
  facet normal -0 0 1
    outer loop
      vertex 35.2527 42.8 0.299999
      vertex 46.6705 12.7121 0.299999
      vertex 46.6984 42.8 0.299999
    endloop
  endfacet
  facet normal 0 0 1
    outer loop
      vertex 46.6705 12.7121 0.299999
      vertex 35.2527 42.8 0.299999
      vertex 35.2527 12.7121 0.299999
    endloop
  endfacet
  facet normal 1 -0.000927283 0
    outer loop
      vertex 46.6705 12.7121 0.299999
      vertex 46.6984 42.8 0
      vertex 46.6984 42.8 0.299999
    endloop
  endfacet
  facet normal 1 -0.000927283 0
    outer loop
      vertex 46.6984 42.8 0
      vertex 46.6705 12.7121 0.299999
      vertex 46.6705 12.7121 0
    endloop
  endfacet
  facet normal 0 -1 0
    outer loop
      vertex 35.2527 12.7121 0
      vertex 46.6705 12.7121 0.299999
      vertex 35.2527 12.7121 0.299999
    endloop
  endfacet
  facet normal 0 -1 -0
    outer loop
      vertex 46.6705 12.7121 0.299999
      vertex 35.2527 12.7121 0
      vertex 46.6705 12.7121 0
    endloop
  endfacet
  facet normal -1 0 0
    outer loop
      vertex 35.2527 12.7121 0
      vertex 35.2527 42.8 0.299999
      vertex 35.2527 42.8 0
    endloop
  endfacet
  facet normal -1 -0 0
    outer loop
      vertex 35.2527 42.8 0.299999
      vertex 35.2527 12.7121 0
      vertex 35.2527 12.7121 0.299999
    endloop
  endfacet
  facet normal 0 0 -1
    outer loop
      vertex 18.7148 10.5 0.599999
      vertex 7.2563 10.5 0.599999
      vertex 18.7148 29.1771 0.599999
    endloop
  endfacet
  facet normal 0 0 -1
    outer loop
      vertex 39.6005 10.5 0.599999
      vertex 34.3115 42.8 0.599999
      vertex 53.1718 10.5 0.599999
    endloop
  endfacet
  facet normal 0 0 -1
    outer loop
      vertex 24.9722 36.5344 0.599999
      vertex 34.3115 42.8 0.599999
      vertex 39.6005 10.5 0.599999
    endloop
  endfacet
  facet normal 0 0 -1
    outer loop
      vertex 24.9722 36.5344 0.599999
      vertex 7.2563 42.8 0.599999
      vertex 34.3115 42.8 0.599999
    endloop
  endfacet
  facet normal 0 0 -1
    outer loop
      vertex 18.7148 29.1771 0.599999
      vertex 7.2563 42.8 0.599999
      vertex 24.9722 36.5344 0.599999
    endloop
  endfacet
  facet normal 0 0 -1
    outer loop
      vertex 7.2563 42.8 0.599999
      vertex 18.7148 29.1771 0.599999
      vertex 7.2563 10.5 0.599999
    endloop
  endfacet
  facet normal 0.76175 -0.64787 0
    outer loop
      vertex 18.7148 29.1771 0.9
      vertex 24.9722 36.5344 0.599999
      vertex 24.9722 36.5344 0.9
    endloop
  endfacet
  facet normal 0.76175 -0.64787 0
    outer loop
      vertex 24.9722 36.5344 0.599999
      vertex 18.7148 29.1771 0.9
      vertex 18.7148 29.1771 0.599999
    endloop
  endfacet
  facet normal -0.871805 -0.489853 0
    outer loop
      vertex 39.6005 10.5 0.599999
      vertex 24.9722 36.5344 0.9
      vertex 24.9722 36.5344 0.599999
    endloop
  endfacet
  facet normal -0.871805 -0.489853 0
    outer loop
      vertex 24.9722 36.5344 0.9
      vertex 39.6005 10.5 0.599999
      vertex 39.6005 10.5 0.9
    endloop
  endfacet
  facet normal 0 -1 0
    outer loop
      vertex 39.6005 10.5 0.599999
      vertex 53.1718 10.5 0.9
      vertex 39.6005 10.5 0.9
    endloop
  endfacet
  facet normal 0 -1 -0
    outer loop
      vertex 53.1718 10.5 0.9
      vertex 39.6005 10.5 0.599999
      vertex 53.1718 10.5 0.599999
    endloop
  endfacet
  facet normal 0.863562 0.504243 0
    outer loop
      vertex 53.1718 10.5 0.9
      vertex 34.3115 42.8 0.599999
      vertex 34.3115 42.8 0.9
    endloop
  endfacet
  facet normal 0.863562 0.504243 0
    outer loop
      vertex 34.3115 42.8 0.599999
      vertex 53.1718 10.5 0.9
      vertex 53.1718 10.5 0.599999
    endloop
  endfacet
  facet normal -1 0 0
    outer loop
      vertex 7.2563 10.5 0.599999
      vertex 7.2563 42.8 0.9
      vertex 7.2563 42.8 0.599999
    endloop
  endfacet
  facet normal -1 -0 0
    outer loop
      vertex 7.2563 42.8 0.9
      vertex 7.2563 10.5 0.599999
      vertex 7.2563 10.5 0.9
    endloop
  endfacet
  facet normal 0 -1 0
    outer loop
      vertex 7.2563 10.5 0.599999
      vertex 18.7148 10.5 0.9
      vertex 7.2563 10.5 0.9
    endloop
  endfacet
  facet normal 0 -1 -0
    outer loop
      vertex 18.7148 10.5 0.9
      vertex 7.2563 10.5 0.599999
      vertex 18.7148 10.5 0.599999
    endloop
  endfacet
  facet normal 1 -0 0
    outer loop
      vertex 18.7148 10.5 0.9
      vertex 18.7148 29.1771 0.599999
      vertex 18.7148 29.1771 0.9
    endloop
  endfacet
  facet normal 1 0 0
    outer loop
      vertex 18.7148 29.1771 0.599999
      vertex 18.7148 10.5 0.9
      vertex 18.7148 10.5 0.599999
    endloop
  endfacet
endsolid OpenSCAD_Model
