solid OpenSCAD_Model
  facet normal 0 1 -0
    outer loop
      vertex 19.5681 42.8 0.599999
      vertex 8.10956 42.8 0.9
      vertex 19.5681 42.8 0.9
    endloop
  endfacet
  facet normal 0 1 0
    outer loop
      vertex 8.10956 42.8 0.9
      vertex 19.5681 42.8 0.599999
      vertex 8.10956 42.8 0.599999
    endloop
  endfacet
  facet normal 0 1 -0
    outer loop
      vertex 33.7276 42.8 0
      vertex 7.2563 42.8 0.299999
      vertex 33.7276 42.8 0.299999
    endloop
  endfacet
  facet normal 0 1 0
    outer loop
      vertex 7.2563 42.8 0.299999
      vertex 33.7276 42.8 0
      vertex 7.2563 42.8 0
    endloop
  endfacet
  facet normal 0 0 1
    outer loop
      vertex 19.5681 42.8 0.9
      vertex 8.10956 42.8 0.9
      vertex 19.5681 20.3823 0.9
    endloop
  endfacet
  facet normal -0 0 1
    outer loop
      vertex 19.5681 20.3823 0.9
      vertex 47.2798 10.5 0.9
      vertex 47.2798 20.3823 0.9
    endloop
  endfacet
  facet normal 0 0 1
    outer loop
      vertex 19.5681 20.3823 0.9
      vertex 8.10956 10.5 0.9
      vertex 47.2798 10.5 0.9
    endloop
  endfacet
  facet normal 0 0 1
    outer loop
      vertex 8.10956 10.5 0.9
      vertex 19.5681 20.3823 0.9
      vertex 8.10956 42.8 0.9
    endloop
  endfacet
  facet normal 0 0 -1
    outer loop
      vertex 18.7148 12.7121 0
      vertex 7.2563 12.7121 0
      vertex 18.7148 41.7504 0
    endloop
  endfacet
  facet normal 0 0 -1
    outer loop
      vertex 38.4626 12.7121 0
      vertex 32.5299 40.7489 0
      vertex 52.4402 12.7121 0
    endloop
  endfacet
  facet normal 0 -0 -1
    outer loop
      vertex 32.5299 40.7489 0
      vertex 38.4626 12.7121 0
      vertex 24.0782 34.0009 0
    endloop
  endfacet
  facet normal 0 0 -1
    outer loop
      vertex 18.7148 41.7504 0
      vertex 32.5299 40.7489 0
      vertex 24.0782 34.0009 0
    endloop
  endfacet
  facet normal 0 0 -1
    outer loop
      vertex 32.5299 40.7489 0
      vertex 18.7148 41.7504 0
      vertex 33.7276 42.8 0
    endloop
  endfacet
  facet normal 0 0 -1
    outer loop
      vertex 18.7148 41.7504 0
      vertex 7.2563 42.8 0
      vertex 33.7276 42.8 0
    endloop
  endfacet
  facet normal 0 0 -1
    outer loop
      vertex 7.2563 42.8 0
      vertex 18.7148 41.7504 0
      vertex 7.2563 12.7121 0
    endloop
  endfacet
  facet normal -0 0 1
    outer loop
      vertex 18.7148 41.7504 0.299999
      vertex 32.5299 40.7489 0.299999
      vertex 33.7276 42.8 0.299999
    endloop
  endfacet
  facet normal 0 0 1
    outer loop
      vertex 32.5299 40.7489 0.299999
      vertex 18.7148 41.7504 0.299999
      vertex 24.0782 34.0009 0.299999
    endloop
  endfacet
  facet normal -0 0 1
    outer loop
      vertex 7.2563 42.8 0.299999
      vertex 18.7148 41.7504 0.299999
      vertex 33.7276 42.8 0.299999
    endloop
  endfacet
  facet normal 0 0 1
    outer loop
      vertex 7.2563 12.7121 0.299999
      vertex 18.7148 41.7504 0.299999
      vertex 7.2563 42.8 0.299999
    endloop
  endfacet
  facet normal 0 0 1
    outer loop
      vertex 18.7148 41.7504 0.299999
      vertex 7.2563 12.7121 0.299999
      vertex 18.7148 12.7121 0.299999
    endloop
  endfacet
  facet normal 0 0 1
    outer loop
      vertex 32.5299 40.7489 0.299999
      vertex 38.4626 12.7121 0.299999
      vertex 52.4402 12.7121 0.299999
    endloop
  endfacet
  facet normal 0 0 1
    outer loop
      vertex 38.4626 12.7121 0.299999
      vertex 32.5299 40.7489 0.299999
      vertex 24.0782 34.0009 0.299999
    endloop
  endfacet
  facet normal 0.863554 -0.504256 0
    outer loop
      vertex 32.5299 40.7489 0.299999
      vertex 33.7276 42.8 0
      vertex 33.7276 42.8 0.299999
    endloop
  endfacet
  facet normal 0.863554 -0.504256 0
    outer loop
      vertex 33.7276 42.8 0
      vertex 32.5299 40.7489 0.299999
      vertex 32.5299 40.7489 0
    endloop
  endfacet
  facet normal 0.815326 0.579003 0
    outer loop
      vertex 52.4402 12.7121 0.299999
      vertex 32.5299 40.7489 0
      vertex 32.5299 40.7489 0.299999
    endloop
  endfacet
  facet normal 0.815326 0.579003 0
    outer loop
      vertex 32.5299 40.7489 0
      vertex 52.4402 12.7121 0.299999
      vertex 52.4402 12.7121 0
    endloop
  endfacet
  facet normal 0 -1 0
    outer loop
      vertex 38.4626 12.7121 0
      vertex 52.4402 12.7121 0.299999
      vertex 38.4626 12.7121 0.299999
    endloop
  endfacet
  facet normal 0 -1 -0
    outer loop
      vertex 52.4402 12.7121 0.299999
      vertex 38.4626 12.7121 0
      vertex 52.4402 12.7121 0
    endloop
  endfacet
  facet normal -0.828588 -0.559859 0
    outer loop
      vertex 38.4626 12.7121 0
      vertex 24.0782 34.0009 0.299999
      vertex 24.0782 34.0009 0
    endloop
  endfacet
  facet normal -0.828588 -0.559859 0
    outer loop
      vertex 24.0782 34.0009 0.299999
      vertex 38.4626 12.7121 0
      vertex 38.4626 12.7121 0.299999
    endloop
  endfacet
  facet normal -0.822274 -0.569092 0
    outer loop
      vertex 24.0782 34.0009 0
      vertex 18.7148 41.7504 0.299999
      vertex 18.7148 41.7504 0
    endloop
  endfacet
  facet normal -0.822274 -0.569092 0
    outer loop
      vertex 18.7148 41.7504 0.299999
      vertex 24.0782 34.0009 0
      vertex 24.0782 34.0009 0.299999
    endloop
  endfacet
  facet normal 1 -0 0
    outer loop
      vertex 18.7148 12.7121 0.299999
      vertex 18.7148 41.7504 0
      vertex 18.7148 41.7504 0.299999
    endloop
  endfacet
  facet normal 1 0 0
    outer loop
      vertex 18.7148 41.7504 0
      vertex 18.7148 12.7121 0.299999
      vertex 18.7148 12.7121 0
    endloop
  endfacet
  facet normal 0 -1 0
    outer loop
      vertex 7.2563 12.7121 0
      vertex 18.7148 12.7121 0.299999
      vertex 7.2563 12.7121 0.299999
    endloop
  endfacet
  facet normal 0 -1 -0
    outer loop
      vertex 18.7148 12.7121 0.299999
      vertex 7.2563 12.7121 0
      vertex 18.7148 12.7121 0
    endloop
  endfacet
  facet normal -1 0 0
    outer loop
      vertex 7.2563 12.7121 0
      vertex 7.2563 42.8 0.299999
      vertex 7.2563 42.8 0
    endloop
  endfacet
  facet normal -1 -0 0
    outer loop
      vertex 7.2563 42.8 0.299999
      vertex 7.2563 12.7121 0
      vertex 7.2563 12.7121 0.299999
    endloop
  endfacet
  facet normal 0 0 -1
    outer loop
      vertex 47.2798 10.5 0.599999
      vertex 19.5681 20.3823 0.599999
      vertex 47.2798 20.3823 0.599999
    endloop
  endfacet
  facet normal 0 0 -1
    outer loop
      vertex 8.10956 10.5 0.599999
      vertex 19.5681 20.3823 0.599999
      vertex 47.2798 10.5 0.599999
    endloop
  endfacet
  facet normal 0 0 -1
    outer loop
      vertex 8.10956 42.8 0.599999
      vertex 19.5681 20.3823 0.599999
      vertex 8.10956 10.5 0.599999
    endloop
  endfacet
  facet normal 0 0 -1
    outer loop
      vertex 19.5681 20.3823 0.599999
      vertex 8.10956 42.8 0.599999
      vertex 19.5681 42.8 0.599999
    endloop
  endfacet
  facet normal 0 1 -0
    outer loop
      vertex 47.2798 20.3823 0.599999
      vertex 19.5681 20.3823 0.9
      vertex 47.2798 20.3823 0.9
    endloop
  endfacet
  facet normal 0 1 0
    outer loop
      vertex 19.5681 20.3823 0.9
      vertex 47.2798 20.3823 0.599999
      vertex 19.5681 20.3823 0.599999
    endloop
  endfacet
  facet normal 1 -0 0
    outer loop
      vertex 19.5681 20.3823 0.9
      vertex 19.5681 42.8 0.599999
      vertex 19.5681 42.8 0.9
    endloop
  endfacet
  facet normal 1 0 0
    outer loop
      vertex 19.5681 42.8 0.599999
      vertex 19.5681 20.3823 0.9
      vertex 19.5681 20.3823 0.599999
    endloop
  endfacet
  facet normal -1 0 0
    outer loop
      vertex 8.10956 10.5 0.599999
      vertex 8.10956 42.8 0.9
      vertex 8.10956 42.8 0.599999
    endloop
  endfacet
  facet normal -1 -0 0
    outer loop
      vertex 8.10956 42.8 0.9
      vertex 8.10956 10.5 0.599999
      vertex 8.10956 10.5 0.9
    endloop
  endfacet
  facet normal 0 -1 0
    outer loop
      vertex 8.10956 10.5 0.599999
      vertex 47.2798 10.5 0.9
      vertex 8.10956 10.5 0.9
    endloop
  endfacet
  facet normal 0 -1 -0
    outer loop
      vertex 47.2798 10.5 0.9
      vertex 8.10956 10.5 0.599999
      vertex 47.2798 10.5 0.599999
    endloop
  endfacet
  facet normal 1 -0 0
    outer loop
      vertex 47.2798 10.5 0.9
      vertex 47.2798 20.3823 0.599999
      vertex 47.2798 20.3823 0.9
    endloop
  endfacet
  facet normal 1 0 0
    outer loop
      vertex 47.2798 20.3823 0.599999
      vertex 47.2798 10.5 0.9
      vertex 47.2798 10.5 0.599999
    endloop
  endfacet
endsolid OpenSCAD_Model
