solid OpenSCAD_Model
  facet normal -1 0 0
    outer loop
      vertex 0 3 0
      vertex 0 25.611 0.9
      vertex 0 25.611 0
    endloop
  endfacet
  facet normal -1 -0 0
    outer loop
      vertex 0 25.611 0.9
      vertex 0 3 0
      vertex 0 3 0.9
    endloop
  endfacet
  facet normal -1 0 0
    outer loop
      vertex 0 39.613 0
      vertex 0 41.211 0.9
      vertex 0 41.211 0
    endloop
  endfacet
  facet normal -1 -0 0
    outer loop
      vertex 0 41.211 0.9
      vertex 0 39.613 0
      vertex 0 39.613 0.9
    endloop
  endfacet
  facet normal 0 1 -0
    outer loop
      vertex 18.78 42.8 0
      vertex 16.8666 42.8 0.299999
      vertex 18.78 42.8 0.299999
    endloop
  endfacet
  facet normal 0 1 0
    outer loop
      vertex 16.8666 42.8 0.299999
      vertex 18.78 42.8 0
      vertex 16.8666 42.8 0
    endloop
  endfacet
  facet normal 0 1 -0
    outer loop
      vertex 27.5428 42.8 0
      vertex 26.325 42.8 0.299999
      vertex 27.5428 42.8 0.299999
    endloop
  endfacet
  facet normal 0 1 0
    outer loop
      vertex 26.325 42.8 0.299999
      vertex 27.5428 42.8 0
      vertex 26.325 42.8 0
    endloop
  endfacet
  facet normal 0 1 -0
    outer loop
      vertex 37.1813 42.8 0
      vertex 35.1401 42.8 0.299999
      vertex 37.1813 42.8 0.299999
    endloop
  endfacet
  facet normal 0 1 0
    outer loop
      vertex 35.1401 42.8 0.299999
      vertex 37.1813 42.8 0
      vertex 35.1401 42.8 0
    endloop
  endfacet
  facet normal 0 1 -0
    outer loop
      vertex 47.1631 42.8 0.299999
      vertex 34.8256 42.8 0.9
      vertex 52.001 42.8 0.9
    endloop
  endfacet
  facet normal 0 1 -0
    outer loop
      vertex 35.1401 42.8 0.299999
      vertex 34.8256 42.8 0.9
      vertex 37.1813 42.8 0.299999
    endloop
  endfacet
  facet normal 0 1 -0
    outer loop
      vertex 37.1813 42.8 0.299999
      vertex 34.8256 42.8 0.9
      vertex 47.1631 42.8 0.299999
    endloop
  endfacet
  facet normal 0 1 -0
    outer loop
      vertex 52.001 42.8 0
      vertex 47.1631 42.8 0.299999
      vertex 52.001 42.8 0.9
    endloop
  endfacet
  facet normal 0 1 0
    outer loop
      vertex 47.1631 42.8 0.299999
      vertex 52.001 42.8 0
      vertex 47.1631 42.8 0
    endloop
  endfacet
  facet normal 0 1 0
    outer loop
      vertex 18.78 42.8 0.299999
      vertex 20.1172 42.8 0.9
      vertex 20.1172 42.8 0.599999
    endloop
  endfacet
  facet normal 0 1 0
    outer loop
      vertex 34.8256 42.8 0.9
      vertex 35.1401 42.8 0.299999
      vertex 34.8256 42.8 0.599999
    endloop
  endfacet
  facet normal 0 1 0
    outer loop
      vertex 27.5428 42.8 0.299999
      vertex 34.8256 42.8 0.599999
      vertex 35.1401 42.8 0.299999
    endloop
  endfacet
  facet normal 0 1 0
    outer loop
      vertex 34.8256 42.8 0.599999
      vertex 27.5428 42.8 0.299999
      vertex 20.1172 42.8 0.599999
    endloop
  endfacet
  facet normal 0 1 -0
    outer loop
      vertex 26.325 42.8 0.299999
      vertex 20.1172 42.8 0.599999
      vertex 27.5428 42.8 0.299999
    endloop
  endfacet
  facet normal 0 1 0
    outer loop
      vertex 18.78 42.8 0.299999
      vertex 20.1172 42.8 0.599999
      vertex 26.325 42.8 0.299999
    endloop
  endfacet
  facet normal 0 1 0
    outer loop
      vertex 20.1172 42.8 0.9
      vertex 18.78 42.8 0.299999
      vertex 16.8666 42.8 0.299999
    endloop
  endfacet
  facet normal 0 1 0
    outer loop
      vertex 6.92845 42.8 0.299999
      vertex 20.1172 42.8 0.9
      vertex 16.8666 42.8 0.299999
    endloop
  endfacet
  facet normal 0 1 0
    outer loop
      vertex 20.1172 42.8 0.9
      vertex 6.92845 42.8 0.299999
      vertex 2.001 42.8 0.9
    endloop
  endfacet
  facet normal 0 1 0
    outer loop
      vertex 2.001 42.8 0
      vertex 6.92845 42.8 0.299999
      vertex 6.92845 42.8 0
    endloop
  endfacet
  facet normal 0 1 0
    outer loop
      vertex 6.92845 42.8 0.299999
      vertex 2.001 42.8 0
      vertex 2.001 42.8 0.9
    endloop
  endfacet
  facet normal -0 0 1
    outer loop
      vertex 0 41.211 0.9
      vertex 2.001 39.613 0.9
      vertex 2.001 41.211 0.9
    endloop
  endfacet
  facet normal 0 0 1
    outer loop
      vertex 2.001 39.613 0.9
      vertex 0 41.211 0.9
      vertex 0 39.613 0.9
    endloop
  endfacet
  facet normal 0 0 1
    outer loop
      vertex 2.001 39.613 0.9
      vertex 20.2997 42.4549 0.9
      vertex 20.1172 42.8 0.9
    endloop
  endfacet
  facet normal -0 0 1
    outer loop
      vertex 0 3 0.9
      vertex 3 0 0.9
      vertex 3.23326 10.5 0.9
    endloop
  endfacet
  facet normal 0 0 1
    outer loop
      vertex 3 0 0.9
      vertex 0 3 0.9
      vertex 2.73853 0.0114155 0.9
    endloop
  endfacet
  facet normal 0 0 1
    outer loop
      vertex 2.73853 0.0114155 0.9
      vertex 0 3 0.9
      vertex 2.47906 0.0455761 0.9
    endloop
  endfacet
  facet normal 0 0 1
    outer loop
      vertex 2.001 41.211 0.9
      vertex 20.1172 42.8 0.9
      vertex 2.001 42.8 0.9
    endloop
  endfacet
  facet normal 0 0 1
    outer loop
      vertex 2.001 39.613 0.9
      vertex 20.1172 42.8 0.9
      vertex 2.001 41.211 0.9
    endloop
  endfacet
  facet normal 0 0 1
    outer loop
      vertex 20.2997 42.4549 0.9
      vertex 2.001 39.613 0.9
      vertex 2.001 25.611 0.9
    endloop
  endfacet
  facet normal 0 0 1
    outer loop
      vertex 20.2997 42.4549 0.9
      vertex 2.001 25.611 0.9
      vertex 3.23326 10.5 0.9
    endloop
  endfacet
  facet normal -0 0 1
    outer loop
      vertex 0 25.611 0.9
      vertex 3.23326 10.5 0.9
      vertex 2.001 25.611 0.9
    endloop
  endfacet
  facet normal 0 0 1
    outer loop
      vertex 2.47906 0.0455761 0.9
      vertex 0 3 0.9
      vertex 2.22354 0.102222 0.9
    endloop
  endfacet
  facet normal 0 0 1
    outer loop
      vertex 2.22354 0.102222 0.9
      vertex 0 3 0.9
      vertex 1.97394 0.180922 0.9
    endloop
  endfacet
  facet normal 0 0 1
    outer loop
      vertex 1.97394 0.180922 0.9
      vertex 0 3 0.9
      vertex 1.73214 0.281076 0.9
    endloop
  endfacet
  facet normal 0 0 1
    outer loop
      vertex 1.73214 0.281076 0.9
      vertex 0 3 0.9
      vertex 1.5 0.401923 0.9
    endloop
  endfacet
  facet normal 0 0 1
    outer loop
      vertex 1.5 0.401923 0.9
      vertex 0 3 0.9
      vertex 1.27927 0.542543 0.9
    endloop
  endfacet
  facet normal 0 0 1
    outer loop
      vertex 1.27927 0.542543 0.9
      vertex 0 3 0.9
      vertex 1.07164 0.701866 0.9
    endloop
  endfacet
  facet normal 0 0 1
    outer loop
      vertex 1.07164 0.701866 0.9
      vertex 0 3 0.9
      vertex 0.878679 0.878679 0.9
    endloop
  endfacet
  facet normal 0 0 1
    outer loop
      vertex 0.878679 0.878679 0.9
      vertex 0 3 0.9
      vertex 0.701866 1.07164 0.9
    endloop
  endfacet
  facet normal 0 0 1
    outer loop
      vertex 0.701866 1.07164 0.9
      vertex 0 3 0.9
      vertex 0.542543 1.27927 0.9
    endloop
  endfacet
  facet normal 0 0 1
    outer loop
      vertex 0.542543 1.27927 0.9
      vertex 0 3 0.9
      vertex 0.401923 1.5 0.9
    endloop
  endfacet
  facet normal 0 0 1
    outer loop
      vertex 0.401923 1.5 0.9
      vertex 0 3 0.9
      vertex 0.281076 1.73214 0.9
    endloop
  endfacet
  facet normal 0 0 1
    outer loop
      vertex 0.281076 1.73214 0.9
      vertex 0 3 0.9
      vertex 0.180922 1.97394 0.9
    endloop
  endfacet
  facet normal 0 0 1
    outer loop
      vertex 0.180922 1.97394 0.9
      vertex 0 3 0.9
      vertex 0.102222 2.22354 0.9
    endloop
  endfacet
  facet normal 0 0 1
    outer loop
      vertex 0.102222 2.22354 0.9
      vertex 0 3 0.9
      vertex 0.0455761 2.47906 0.9
    endloop
  endfacet
  facet normal 0 0 1
    outer loop
      vertex 3.23326 10.5 0.9
      vertex 0 25.611 0.9
      vertex 0 3 0.9
    endloop
  endfacet
  facet normal 0 0 1
    outer loop
      vertex 0.0455761 2.47906 0.9
      vertex 0 3 0.9
      vertex 0.0114155 2.73853 0.9
    endloop
  endfacet
  facet normal -0 0 1
    outer loop
      vertex 34.8256 42.8 0.9
      vertex 52.001 41.211 0.9
      vertex 52.001 42.8 0.9
    endloop
  endfacet
  facet normal 0 0 1
    outer loop
      vertex 52.001 41.211 0.9
      vertex 34.8256 42.8 0.9
      vertex 52.001 39.613 0.9
    endloop
  endfacet
  facet normal 0 0 1
    outer loop
      vertex 52.001 39.613 0.9
      vertex 34.6427 42.4549 0.9
      vertex 52.001 25.611 0.9
    endloop
  endfacet
  facet normal 0 0 1
    outer loop
      vertex 52.001 25.611 0.9
      vertex 51.7091 10.5 0.9
      vertex 51.7765 0.102222 0.9
    endloop
  endfacet
  facet normal 0 0 1
    outer loop
      vertex 52.001 39.613 0.9
      vertex 34.8256 42.8 0.9
      vertex 34.6427 42.4549 0.9
    endloop
  endfacet
  facet normal 0 0 1
    outer loop
      vertex 52.001 25.611 0.9
      vertex 34.6427 42.4549 0.9
      vertex 51.7091 10.5 0.9
    endloop
  endfacet
  facet normal -0 0 1
    outer loop
      vertex 52.001 41.211 0.9
      vertex 54 39.613 0.9
      vertex 54 41.211 0.9
    endloop
  endfacet
  facet normal 0 0 1
    outer loop
      vertex 54 39.613 0.9
      vertex 52.001 41.211 0.9
      vertex 52.001 39.613 0.9
    endloop
  endfacet
  facet normal -0 0 1
    outer loop
      vertex 52.001 25.611 0.9
      vertex 54 3 0.9
      vertex 54 25.611 0.9
    endloop
  endfacet
  facet normal 0 0 1
    outer loop
      vertex 51.7765 0.102222 0.9
      vertex 54 3 0.9
      vertex 52.001 25.611 0.9
    endloop
  endfacet
  facet normal 0 0 1
    outer loop
      vertex 54 3 0.9
      vertex 51.7765 0.102222 0.9
      vertex 53.9886 2.73853 0.9
    endloop
  endfacet
  facet normal 0 0 1
    outer loop
      vertex 53.9886 2.73853 0.9
      vertex 51.7765 0.102222 0.9
      vertex 53.9544 2.47906 0.9
    endloop
  endfacet
  facet normal 0 0 1
    outer loop
      vertex 53.9544 2.47906 0.9
      vertex 51.7765 0.102222 0.9
      vertex 53.8978 2.22354 0.9
    endloop
  endfacet
  facet normal 0 0 1
    outer loop
      vertex 53.8978 2.22354 0.9
      vertex 51.7765 0.102222 0.9
      vertex 53.8191 1.97394 0.9
    endloop
  endfacet
  facet normal 0 0 1
    outer loop
      vertex 53.8191 1.97394 0.9
      vertex 51.7765 0.102222 0.9
      vertex 53.7189 1.73214 0.9
    endloop
  endfacet
  facet normal 0 0 1
    outer loop
      vertex 53.7189 1.73214 0.9
      vertex 51.7765 0.102222 0.9
      vertex 53.5981 1.5 0.9
    endloop
  endfacet
  facet normal 0 0 1
    outer loop
      vertex 53.5981 1.5 0.9
      vertex 51.7765 0.102222 0.9
      vertex 53.4575 1.27927 0.9
    endloop
  endfacet
  facet normal 0 0 1
    outer loop
      vertex 53.4575 1.27927 0.9
      vertex 51.7765 0.102222 0.9
      vertex 53.2981 1.07164 0.9
    endloop
  endfacet
  facet normal 0 0 1
    outer loop
      vertex 53.2981 1.07164 0.9
      vertex 51.7765 0.102222 0.9
      vertex 53.1213 0.878679 0.9
    endloop
  endfacet
  facet normal 0 0 1
    outer loop
      vertex 53.1213 0.878679 0.9
      vertex 51.7765 0.102222 0.9
      vertex 52.9284 0.701866 0.9
    endloop
  endfacet
  facet normal 0 0 1
    outer loop
      vertex 52.9284 0.701866 0.9
      vertex 51.7765 0.102222 0.9
      vertex 52.7207 0.542543 0.9
    endloop
  endfacet
  facet normal 0 0 1
    outer loop
      vertex 52.7207 0.542543 0.9
      vertex 51.7765 0.102222 0.9
      vertex 52.5 0.401923 0.9
    endloop
  endfacet
  facet normal 0 0 1
    outer loop
      vertex 52.5 0.401923 0.9
      vertex 51.7765 0.102222 0.9
      vertex 52.2679 0.281076 0.9
    endloop
  endfacet
  facet normal 0 0 1
    outer loop
      vertex 52.2679 0.281076 0.9
      vertex 51.7765 0.102222 0.9
      vertex 52.0261 0.180922 0.9
    endloop
  endfacet
  facet normal 0 0 1
    outer loop
      vertex 51 0 0.9
      vertex 51.7765 0.102222 0.9
      vertex 51.7091 10.5 0.9
    endloop
  endfacet
  facet normal 0 0 1
    outer loop
      vertex 51.7765 0.102222 0.9
      vertex 51 0 0.9
      vertex 51.5209 0.0455761 0.9
    endloop
  endfacet
  facet normal 0 0 1
    outer loop
      vertex 51.5209 0.0455761 0.9
      vertex 51 0 0.9
      vertex 51.2615 0.0114155 0.9
    endloop
  endfacet
  facet normal -0 0 1
    outer loop
      vertex 38.3811 10.5 0.9
      vertex 51 0 0.9
      vertex 51.7091 10.5 0.9
    endloop
  endfacet
  facet normal 0 0 1
    outer loop
      vertex 16.7237 10.5 0.9
      vertex 38.3811 10.5 0.9
      vertex 27.532 33.5741 0.9
    endloop
  endfacet
  facet normal -0 0 1
    outer loop
      vertex 16.7237 10.5 0.9
      vertex 51 0 0.9
      vertex 38.3811 10.5 0.9
    endloop
  endfacet
  facet normal 0 0 1
    outer loop
      vertex 3 0 0.9
      vertex 16.7237 10.5 0.9
      vertex 3.23326 10.5 0.9
    endloop
  endfacet
  facet normal 0 0 1
    outer loop
      vertex 16.7237 10.5 0.9
      vertex 3 0 0.9
      vertex 51 0 0.9
    endloop
  endfacet
  facet normal 1 -0 0
    outer loop
      vertex 54 3 0.9
      vertex 54 25.611 0
      vertex 54 25.611 0.9
    endloop
  endfacet
  facet normal 1 0 0
    outer loop
      vertex 54 25.611 0
      vertex 54 3 0.9
      vertex 54 3 0
    endloop
  endfacet
  facet normal 1 -0 0
    outer loop
      vertex 54 39.613 0.9
      vertex 54 41.211 0
      vertex 54 41.211 0.9
    endloop
  endfacet
  facet normal 1 0 0
    outer loop
      vertex 54 41.211 0
      vertex 54 39.613 0.9
      vertex 54 39.613 0
    endloop
  endfacet
  facet normal -0.0436174 -0.999048 0
    outer loop
      vertex 2.73853 0.0114155 0
      vertex 3 0 0.9
      vertex 2.73853 0.0114155 0.9
    endloop
  endfacet
  facet normal -0.0436174 -0.999048 -0
    outer loop
      vertex 3 0 0.9
      vertex 2.73853 0.0114155 0
      vertex 3 0 0
    endloop
  endfacet
  facet normal 0.53735 -0.843359 0
    outer loop
      vertex 52.5 0.401923 0
      vertex 52.7207 0.542543 0.9
      vertex 52.5 0.401923 0.9
    endloop
  endfacet
  facet normal 0.53735 -0.843359 0
    outer loop
      vertex 52.7207 0.542543 0.9
      vertex 52.5 0.401923 0
      vertex 52.7207 0.542543 0
    endloop
  endfacet
  facet normal -0.300711 -0.953715 0
    outer loop
      vertex 1.97394 0.180922 0
      vertex 2.22354 0.102222 0.9
      vertex 1.97394 0.180922 0.9
    endloop
  endfacet
  facet normal -0.300711 -0.953715 -0
    outer loop
      vertex 2.22354 0.102222 0.9
      vertex 1.97394 0.180922 0
      vertex 2.22354 0.102222 0
    endloop
  endfacet
  facet normal -0 0 -1
    outer loop
      vertex 54 3 0
      vertex 51 0 0
      vertex 51.059 12.7121 0
    endloop
  endfacet
  facet normal 0 0 -1
    outer loop
      vertex 51 0 0
      vertex 40.5754 12.7121 0
      vertex 51.059 12.7121 0
    endloop
  endfacet
  facet normal 0 0 -1
    outer loop
      vertex 40.5754 12.7121 0
      vertex 35.1401 42.8 0
      vertex 37.1813 42.8 0
    endloop
  endfacet
  facet normal 0 0 -1
    outer loop
      vertex 40.5754 12.7121 0
      vertex 30.9457 12.7121 0
      vertex 35.1401 42.8 0
    endloop
  endfacet
  facet normal 0 0 -1
    outer loop
      vertex 51 0 0
      vertex 30.9457 12.7121 0
      vertex 40.5754 12.7121 0
    endloop
  endfacet
  facet normal 0 0 -1
    outer loop
      vertex 51 0 0
      vertex 22.778 12.7121 0
      vertex 30.9457 12.7121 0
    endloop
  endfacet
  facet normal 0 0 -1
    outer loop
      vertex 13.5137 12.7121 0
      vertex 18.78 42.8 0
      vertex 22.778 12.7121 0
    endloop
  endfacet
  facet normal -0 0 -1
    outer loop
      vertex 18.78 42.8 0
      vertex 13.5137 12.7121 0
      vertex 16.8666 42.8 0
    endloop
  endfacet
  facet normal 0 0 -1
    outer loop
      vertex 3 0 0
      vertex 22.778 12.7121 0
      vertex 51 0 0
    endloop
  endfacet
  facet normal -0 0 -1
    outer loop
      vertex 22.778 12.7121 0
      vertex 3 0 0
      vertex 13.5137 12.7121 0
    endloop
  endfacet
  facet normal -0 0 -1
    outer loop
      vertex 13.5137 12.7121 0
      vertex 3 0 0
      vertex 3.07089 12.7121 0
    endloop
  endfacet
  facet normal 0 0 -1
    outer loop
      vertex 51.2615 0.0114155 0
      vertex 54 3 0
      vertex 53.9886 2.73853 0
    endloop
  endfacet
  facet normal 0 0 -1
    outer loop
      vertex 51.2615 0.0114155 0
      vertex 53.9886 2.73853 0
      vertex 53.9544 2.47906 0
    endloop
  endfacet
  facet normal 0 0 -1
    outer loop
      vertex 51.2615 0.0114155 0
      vertex 53.9544 2.47906 0
      vertex 53.8978 2.22354 0
    endloop
  endfacet
  facet normal 0 0 -1
    outer loop
      vertex 51.2615 0.0114155 0
      vertex 53.8978 2.22354 0
      vertex 53.8191 1.97394 0
    endloop
  endfacet
  facet normal 0 0 -1
    outer loop
      vertex 51.2615 0.0114155 0
      vertex 53.8191 1.97394 0
      vertex 53.7189 1.73214 0
    endloop
  endfacet
  facet normal 0 0 -1
    outer loop
      vertex 51.2615 0.0114155 0
      vertex 53.7189 1.73214 0
      vertex 53.5981 1.5 0
    endloop
  endfacet
  facet normal 0 0 -1
    outer loop
      vertex 51.2615 0.0114155 0
      vertex 53.5981 1.5 0
      vertex 53.4575 1.27927 0
    endloop
  endfacet
  facet normal 0 0 -1
    outer loop
      vertex 51.2615 0.0114155 0
      vertex 53.4575 1.27927 0
      vertex 53.2981 1.07164 0
    endloop
  endfacet
  facet normal 0 0 -1
    outer loop
      vertex 51.2615 0.0114155 0
      vertex 53.2981 1.07164 0
      vertex 53.1213 0.878679 0
    endloop
  endfacet
  facet normal 0 0 -1
    outer loop
      vertex 51.2615 0.0114155 0
      vertex 53.1213 0.878679 0
      vertex 52.9284 0.701866 0
    endloop
  endfacet
  facet normal 0 0 -1
    outer loop
      vertex 51.2615 0.0114155 0
      vertex 52.9284 0.701866 0
      vertex 52.7207 0.542543 0
    endloop
  endfacet
  facet normal 0 0 -1
    outer loop
      vertex 51.2615 0.0114155 0
      vertex 52.7207 0.542543 0
      vertex 52.5 0.401923 0
    endloop
  endfacet
  facet normal 0 0 -1
    outer loop
      vertex 51.2615 0.0114155 0
      vertex 52.5 0.401923 0
      vertex 52.2679 0.281076 0
    endloop
  endfacet
  facet normal 0 0 -1
    outer loop
      vertex 51.2615 0.0114155 0
      vertex 52.2679 0.281076 0
      vertex 52.0261 0.180922 0
    endloop
  endfacet
  facet normal 0 0 -1
    outer loop
      vertex 54 3 0
      vertex 51.059 12.7121 0
      vertex 54 25.611 0
    endloop
  endfacet
  facet normal 0 0 -1
    outer loop
      vertex 47.1631 42.8 0
      vertex 52.001 39.613 0
      vertex 52.001 25.611 0
    endloop
  endfacet
  facet normal 0 0 -1
    outer loop
      vertex 52.001 39.613 0
      vertex 47.1631 42.8 0
      vertex 52.001 41.211 0
    endloop
  endfacet
  facet normal 0 0 -1
    outer loop
      vertex 51.2615 0.0114155 0
      vertex 52.0261 0.180922 0
      vertex 51.7765 0.102222 0
    endloop
  endfacet
  facet normal -0 0 -1
    outer loop
      vertex 54 25.611 0
      vertex 51.059 12.7121 0
      vertex 52.001 25.611 0
    endloop
  endfacet
  facet normal 0 0 -1
    outer loop
      vertex 51.2615 0.0114155 0
      vertex 51.7765 0.102222 0
      vertex 51.5209 0.0455761 0
    endloop
  endfacet
  facet normal 0 0 -1
    outer loop
      vertex 51 0 0
      vertex 54 3 0
      vertex 51.2615 0.0114155 0
    endloop
  endfacet
  facet normal 0 0 -1
    outer loop
      vertex 47.1631 42.8 0
      vertex 52.001 25.611 0
      vertex 51.059 12.7121 0
    endloop
  endfacet
  facet normal 0 0 -1
    outer loop
      vertex 52.001 41.211 0
      vertex 47.1631 42.8 0
      vertex 52.001 42.8 0
    endloop
  endfacet
  facet normal 0 0 -1
    outer loop
      vertex 52.001 39.613 0
      vertex 54 41.211 0
      vertex 54 39.613 0
    endloop
  endfacet
  facet normal -0 0 -1
    outer loop
      vertex 54 41.211 0
      vertex 52.001 39.613 0
      vertex 52.001 41.211 0
    endloop
  endfacet
  facet normal 0 0 -1
    outer loop
      vertex 0 3 0
      vertex 3 0 0
      vertex 2.73853 0.0114155 0
    endloop
  endfacet
  facet normal 0 0 -1
    outer loop
      vertex 0 3 0
      vertex 2.73853 0.0114155 0
      vertex 2.47906 0.0455761 0
    endloop
  endfacet
  facet normal 0 0 -1
    outer loop
      vertex 0 3 0
      vertex 2.47906 0.0455761 0
      vertex 2.22354 0.102222 0
    endloop
  endfacet
  facet normal 0 0 -1
    outer loop
      vertex 3 0 0
      vertex 0 3 0
      vertex 3.07089 12.7121 0
    endloop
  endfacet
  facet normal 0 0 -1
    outer loop
      vertex 2.001 25.611 0
      vertex 6.92845 42.8 0
      vertex 3.07089 12.7121 0
    endloop
  endfacet
  facet normal 0 0 -1
    outer loop
      vertex 2.001 39.613 0
      vertex 6.92845 42.8 0
      vertex 2.001 25.611 0
    endloop
  endfacet
  facet normal 0 0 -1
    outer loop
      vertex 2.001 41.211 0
      vertex 6.92845 42.8 0
      vertex 2.001 39.613 0
    endloop
  endfacet
  facet normal -0 0 -1
    outer loop
      vertex 6.92845 42.8 0
      vertex 2.001 41.211 0
      vertex 2.001 42.8 0
    endloop
  endfacet
  facet normal 0 0 -1
    outer loop
      vertex 0 39.613 0
      vertex 2.001 41.211 0
      vertex 2.001 39.613 0
    endloop
  endfacet
  facet normal -0 0 -1
    outer loop
      vertex 2.001 41.211 0
      vertex 0 39.613 0
      vertex 0 41.211 0
    endloop
  endfacet
  facet normal 0 0 -1
    outer loop
      vertex 0 3 0
      vertex 2.22354 0.102222 0
      vertex 1.97394 0.180922 0
    endloop
  endfacet
  facet normal 0 0 -1
    outer loop
      vertex 0 3 0
      vertex 1.97394 0.180922 0
      vertex 1.73214 0.281076 0
    endloop
  endfacet
  facet normal 0 0 -1
    outer loop
      vertex 0 3 0
      vertex 1.73214 0.281076 0
      vertex 1.5 0.401923 0
    endloop
  endfacet
  facet normal 0 0 -1
    outer loop
      vertex 0 3 0
      vertex 1.5 0.401923 0
      vertex 1.27927 0.542543 0
    endloop
  endfacet
  facet normal 0 0 -1
    outer loop
      vertex 0 3 0
      vertex 1.27927 0.542543 0
      vertex 1.07164 0.701866 0
    endloop
  endfacet
  facet normal 0 0 -1
    outer loop
      vertex 0 3 0
      vertex 1.07164 0.701866 0
      vertex 0.878679 0.878679 0
    endloop
  endfacet
  facet normal 0 0 -1
    outer loop
      vertex 0 3 0
      vertex 0.878679 0.878679 0
      vertex 0.701866 1.07164 0
    endloop
  endfacet
  facet normal 0 0 -1
    outer loop
      vertex 0 3 0
      vertex 0.701866 1.07164 0
      vertex 0.542543 1.27927 0
    endloop
  endfacet
  facet normal 0 0 -1
    outer loop
      vertex 0 3 0
      vertex 0.542543 1.27927 0
      vertex 0.401923 1.5 0
    endloop
  endfacet
  facet normal 0 0 -1
    outer loop
      vertex 0 3 0
      vertex 0.401923 1.5 0
      vertex 0.281076 1.73214 0
    endloop
  endfacet
  facet normal 0 0 -1
    outer loop
      vertex 0 3 0
      vertex 0.281076 1.73214 0
      vertex 0.180922 1.97394 0
    endloop
  endfacet
  facet normal 0 0 -1
    outer loop
      vertex 0 3 0
      vertex 0.180922 1.97394 0
      vertex 0.102222 2.22354 0
    endloop
  endfacet
  facet normal 0 0 -1
    outer loop
      vertex 0 3 0
      vertex 0.102222 2.22354 0
      vertex 0.0455761 2.47906 0
    endloop
  endfacet
  facet normal 0 0 -1
    outer loop
      vertex 0 3 0
      vertex 0.0455761 2.47906 0
      vertex 0.0114155 2.73853 0
    endloop
  endfacet
  facet normal 0 0 -1
    outer loop
      vertex 0 25.611 0
      vertex 3.07089 12.7121 0
      vertex 0 3 0
    endloop
  endfacet
  facet normal 0 0 -1
    outer loop
      vertex 3.07089 12.7121 0
      vertex 0 25.611 0
      vertex 2.001 25.611 0
    endloop
  endfacet
  facet normal 0 0 -1
    outer loop
      vertex 26.9226 38.6592 0
      vertex 26.325 42.8 0
      vertex 27.5428 42.8 0
    endloop
  endfacet
  facet normal -0.130529 -0.991445 0
    outer loop
      vertex 2.47906 0.0455761 0
      vertex 2.73853 0.0114155 0.9
      vertex 2.47906 0.0455761 0.9
    endloop
  endfacet
  facet normal -0.130529 -0.991445 -0
    outer loop
      vertex 2.73853 0.0114155 0.9
      vertex 2.47906 0.0455761 0
      vertex 2.73853 0.0114155 0
    endloop
  endfacet
  facet normal -0.675584 -0.737283 0
    outer loop
      vertex 0.878679 0.878679 0
      vertex 1.07164 0.701866 0.9
      vertex 0.878679 0.878679 0.9
    endloop
  endfacet
  facet normal -0.675584 -0.737283 -0
    outer loop
      vertex 1.07164 0.701866 0.9
      vertex 0.878679 0.878679 0
      vertex 1.07164 0.701866 0
    endloop
  endfacet
  facet normal -0.793348 -0.608768 0
    outer loop
      vertex 0.701866 1.07164 0
      vertex 0.542543 1.27927 0.9
      vertex 0.542543 1.27927 0
    endloop
  endfacet
  facet normal -0.793348 -0.608768 0
    outer loop
      vertex 0.542543 1.27927 0.9
      vertex 0.701866 1.07164 0
      vertex 0.701866 1.07164 0.9
    endloop
  endfacet
  facet normal -0.976297 -0.216434 0
    outer loop
      vertex 0.102222 2.22354 0
      vertex 0.0455761 2.47906 0.9
      vertex 0.0455761 2.47906 0
    endloop
  endfacet
  facet normal -0.976297 -0.216434 0
    outer loop
      vertex 0.0455761 2.47906 0.9
      vertex 0.102222 2.22354 0
      vertex 0.102222 2.22354 0.9
    endloop
  endfacet
  facet normal -0.999048 -0.0436174 0
    outer loop
      vertex 0.0114155 2.73853 0
      vertex 0 3 0.9
      vertex 0 3 0
    endloop
  endfacet
  facet normal -0.999048 -0.0436174 0
    outer loop
      vertex 0 3 0.9
      vertex 0.0114155 2.73853 0
      vertex 0.0114155 2.73853 0.9
    endloop
  endfacet
  facet normal 0.21637 -0.976312 0
    outer loop
      vertex 51.5209 0.0455761 0
      vertex 51.7765 0.102222 0.9
      vertex 51.5209 0.0455761 0.9
    endloop
  endfacet
  facet normal 0.21637 -0.976312 0
    outer loop
      vertex 51.7765 0.102222 0.9
      vertex 51.5209 0.0455761 0
      vertex 51.7765 0.102222 0
    endloop
  endfacet
  facet normal 0 -1 0
    outer loop
      vertex 3 0 0
      vertex 51 0 0.9
      vertex 3 0 0.9
    endloop
  endfacet
  facet normal 0 -1 -0
    outer loop
      vertex 51 0 0.9
      vertex 3 0 0
      vertex 51 0 0
    endloop
  endfacet
  facet normal -0.382674 -0.923883 0
    outer loop
      vertex 1.73214 0.281076 0
      vertex 1.97394 0.180922 0.9
      vertex 1.73214 0.281076 0.9
    endloop
  endfacet
  facet normal -0.382674 -0.923883 -0
    outer loop
      vertex 1.97394 0.180922 0.9
      vertex 1.73214 0.281076 0
      vertex 1.97394 0.180922 0
    endloop
  endfacet
  facet normal -0.216434 -0.976297 0
    outer loop
      vertex 2.22354 0.102222 0
      vertex 2.47906 0.0455761 0.9
      vertex 2.22354 0.102222 0.9
    endloop
  endfacet
  facet normal -0.216434 -0.976297 -0
    outer loop
      vertex 2.47906 0.0455761 0.9
      vertex 2.22354 0.102222 0
      vertex 2.47906 0.0455761 0
    endloop
  endfacet
  facet normal -0.608768 -0.793348 0
    outer loop
      vertex 1.07164 0.701866 0
      vertex 1.27927 0.542543 0.9
      vertex 1.07164 0.701866 0.9
    endloop
  endfacet
  facet normal -0.608768 -0.793348 -0
    outer loop
      vertex 1.27927 0.542543 0.9
      vertex 1.07164 0.701866 0
      vertex 1.27927 0.542543 0
    endloop
  endfacet
  facet normal -0.843392 -0.537298 0
    outer loop
      vertex 0.542543 1.27927 0
      vertex 0.401923 1.5 0.9
      vertex 0.401923 1.5 0
    endloop
  endfacet
  facet normal -0.843392 -0.537298 0
    outer loop
      vertex 0.401923 1.5 0.9
      vertex 0.542543 1.27927 0
      vertex 0.542543 1.27927 0.9
    endloop
  endfacet
  facet normal -0.923883 -0.382674 0
    outer loop
      vertex 0.281076 1.73214 0
      vertex 0.180922 1.97394 0.9
      vertex 0.180922 1.97394 0
    endloop
  endfacet
  facet normal -0.923883 -0.382674 0
    outer loop
      vertex 0.180922 1.97394 0.9
      vertex 0.281076 1.73214 0
      vertex 0.281076 1.73214 0.9
    endloop
  endfacet
  facet normal -0.887007 -0.461756 0
    outer loop
      vertex 0.401923 1.5 0
      vertex 0.281076 1.73214 0.9
      vertex 0.281076 1.73214 0
    endloop
  endfacet
  facet normal -0.887007 -0.461756 0
    outer loop
      vertex 0.281076 1.73214 0.9
      vertex 0.401923 1.5 0
      vertex 0.401923 1.5 0.9
    endloop
  endfacet
  facet normal -0.737283 -0.675584 0
    outer loop
      vertex 0.878679 0.878679 0
      vertex 0.701866 1.07164 0.9
      vertex 0.701866 1.07164 0
    endloop
  endfacet
  facet normal -0.737283 -0.675584 0
    outer loop
      vertex 0.701866 1.07164 0.9
      vertex 0.878679 0.878679 0
      vertex 0.878679 0.878679 0.9
    endloop
  endfacet
  facet normal -0.953715 -0.300711 0
    outer loop
      vertex 0.180922 1.97394 0
      vertex 0.102222 2.22354 0.9
      vertex 0.102222 2.22354 0
    endloop
  endfacet
  facet normal -0.953715 -0.300711 0
    outer loop
      vertex 0.102222 2.22354 0.9
      vertex 0.180922 1.97394 0
      vertex 0.180922 1.97394 0.9
    endloop
  endfacet
  facet normal -0.991445 -0.130529 0
    outer loop
      vertex 0.0455761 2.47906 0
      vertex 0.0114155 2.73853 0.9
      vertex 0.0114155 2.73853 0
    endloop
  endfacet
  facet normal -0.991445 -0.130529 0
    outer loop
      vertex 0.0114155 2.73853 0.9
      vertex 0.0455761 2.47906 0
      vertex 0.0455761 2.47906 0.9
    endloop
  endfacet
  facet normal 0.300711 -0.953715 0
    outer loop
      vertex 51.7765 0.102222 0
      vertex 52.0261 0.180922 0.9
      vertex 51.7765 0.102222 0.9
    endloop
  endfacet
  facet normal 0.300711 -0.953715 0
    outer loop
      vertex 52.0261 0.180922 0.9
      vertex 51.7765 0.102222 0
      vertex 52.0261 0.180922 0
    endloop
  endfacet
  facet normal 0.923821 -0.382824 0
    outer loop
      vertex 53.7189 1.73214 0.9
      vertex 53.8191 1.97394 0
      vertex 53.8191 1.97394 0.9
    endloop
  endfacet
  facet normal 0.923821 -0.382824 0
    outer loop
      vertex 53.8191 1.97394 0
      vertex 53.7189 1.73214 0.9
      vertex 53.7189 1.73214 0
    endloop
  endfacet
  facet normal 0.991425 -0.130677 0
    outer loop
      vertex 53.9544 2.47906 0.9
      vertex 53.9886 2.73853 0
      vertex 53.9886 2.73853 0.9
    endloop
  endfacet
  facet normal 0.991425 -0.130677 0
    outer loop
      vertex 53.9886 2.73853 0
      vertex 53.9544 2.47906 0.9
      vertex 53.9544 2.47906 0
    endloop
  endfacet
  facet normal 0.999051 -0.0435583 0
    outer loop
      vertex 53.9886 2.73853 0.9
      vertex 54 3 0
      vertex 54 3 0.9
    endloop
  endfacet
  facet normal 0.999051 -0.0435583 0
    outer loop
      vertex 54 3 0
      vertex 53.9886 2.73853 0.9
      vertex 53.9886 2.73853 0
    endloop
  endfacet
  facet normal 0.608639 -0.793447 0
    outer loop
      vertex 52.7207 0.542543 0
      vertex 52.9284 0.701866 0.9
      vertex 52.7207 0.542543 0.9
    endloop
  endfacet
  facet normal 0.608639 -0.793447 0
    outer loop
      vertex 52.9284 0.701866 0.9
      vertex 52.7207 0.542543 0
      vertex 52.9284 0.701866 0
    endloop
  endfacet
  facet normal -0.537298 -0.843392 0
    outer loop
      vertex 1.27927 0.542543 0
      vertex 1.5 0.401923 0.9
      vertex 1.27927 0.542543 0.9
    endloop
  endfacet
  facet normal -0.537298 -0.843392 -0
    outer loop
      vertex 1.5 0.401923 0.9
      vertex 1.27927 0.542543 0
      vertex 1.5 0.401923 0
    endloop
  endfacet
  facet normal -0.461756 -0.887007 0
    outer loop
      vertex 1.5 0.401923 0
      vertex 1.73214 0.281076 0.9
      vertex 1.5 0.401923 0.9
    endloop
  endfacet
  facet normal -0.461756 -0.887007 -0
    outer loop
      vertex 1.73214 0.281076 0.9
      vertex 1.5 0.401923 0
      vertex 1.73214 0.281076 0
    endloop
  endfacet
  facet normal 0.382674 -0.923883 0
    outer loop
      vertex 52.0261 0.180922 0
      vertex 52.2679 0.281076 0.9
      vertex 52.0261 0.180922 0.9
    endloop
  endfacet
  facet normal 0.382674 -0.923883 0
    outer loop
      vertex 52.2679 0.281076 0.9
      vertex 52.0261 0.180922 0
      vertex 52.2679 0.281076 0
    endloop
  endfacet
  facet normal 0.953715 -0.300711 0
    outer loop
      vertex 53.8191 1.97394 0.9
      vertex 53.8978 2.22354 0
      vertex 53.8978 2.22354 0.9
    endloop
  endfacet
  facet normal 0.953715 -0.300711 0
    outer loop
      vertex 53.8978 2.22354 0
      vertex 53.8191 1.97394 0.9
      vertex 53.8191 1.97394 0
    endloop
  endfacet
  facet normal 0.976334 -0.216267 0
    outer loop
      vertex 53.8978 2.22354 0.9
      vertex 53.9544 2.47906 0
      vertex 53.9544 2.47906 0.9
    endloop
  endfacet
  facet normal 0.976334 -0.216267 0
    outer loop
      vertex 53.9544 2.47906 0
      vertex 53.8978 2.22354 0.9
      vertex 53.8978 2.22354 0
    endloop
  endfacet
  facet normal 0.843427 -0.537244 0
    outer loop
      vertex 53.4575 1.27927 0.9
      vertex 53.5981 1.5 0
      vertex 53.5981 1.5 0.9
    endloop
  endfacet
  facet normal 0.843427 -0.537244 0
    outer loop
      vertex 53.5981 1.5 0
      vertex 53.4575 1.27927 0.9
      vertex 53.4575 1.27927 0
    endloop
  endfacet
  facet normal 0.461819 -0.886974 0
    outer loop
      vertex 52.2679 0.281076 0
      vertex 52.5 0.401923 0.9
      vertex 52.2679 0.281076 0.9
    endloop
  endfacet
  facet normal 0.461819 -0.886974 0
    outer loop
      vertex 52.5 0.401923 0.9
      vertex 52.2679 0.281076 0
      vertex 52.5 0.401923 0
    endloop
  endfacet
  facet normal 0.130564 -0.99144 0
    outer loop
      vertex 51.2615 0.0114155 0
      vertex 51.5209 0.0455761 0.9
      vertex 51.2615 0.0114155 0.9
    endloop
  endfacet
  facet normal 0.130564 -0.99144 0
    outer loop
      vertex 51.5209 0.0455761 0.9
      vertex 51.2615 0.0114155 0
      vertex 51.5209 0.0455761 0
    endloop
  endfacet
  facet normal 0.0436124 -0.999049 0
    outer loop
      vertex 51 0 0
      vertex 51.2615 0.0114155 0.9
      vertex 51 0 0.9
    endloop
  endfacet
  facet normal 0.0436124 -0.999049 0
    outer loop
      vertex 51.2615 0.0114155 0.9
      vertex 51 0 0
      vertex 51.2615 0.0114155 0
    endloop
  endfacet
  facet normal 0.88708 -0.461615 0
    outer loop
      vertex 53.5981 1.5 0.9
      vertex 53.7189 1.73214 0
      vertex 53.7189 1.73214 0.9
    endloop
  endfacet
  facet normal 0.88708 -0.461615 0
    outer loop
      vertex 53.7189 1.73214 0
      vertex 53.5981 1.5 0.9
      vertex 53.5981 1.5 0
    endloop
  endfacet
  facet normal 0.737308 -0.675557 0
    outer loop
      vertex 53.1213 0.878679 0.9
      vertex 53.2981 1.07164 0
      vertex 53.2981 1.07164 0.9
    endloop
  endfacet
  facet normal 0.737308 -0.675557 0
    outer loop
      vertex 53.2981 1.07164 0
      vertex 53.1213 0.878679 0.9
      vertex 53.1213 0.878679 0
    endloop
  endfacet
  facet normal 0.6757 -0.737177 0
    outer loop
      vertex 52.9284 0.701866 0
      vertex 53.1213 0.878679 0.9
      vertex 52.9284 0.701866 0.9
    endloop
  endfacet
  facet normal 0.6757 -0.737177 0
    outer loop
      vertex 53.1213 0.878679 0.9
      vertex 52.9284 0.701866 0
      vertex 53.1213 0.878679 0
    endloop
  endfacet
  facet normal 0.793206 -0.608954 0
    outer loop
      vertex 53.2981 1.07164 0.9
      vertex 53.4575 1.27927 0
      vertex 53.4575 1.27927 0.9
    endloop
  endfacet
  facet normal 0.793206 -0.608954 0
    outer loop
      vertex 53.4575 1.27927 0
      vertex 53.2981 1.07164 0.9
      vertex 53.2981 1.07164 0
    endloop
  endfacet
  facet normal -1 0 0
    outer loop
      vertex 2.001 41.211 0
      vertex 2.001 42.8 0.9
      vertex 2.001 42.8 0
    endloop
  endfacet
  facet normal -1 -0 0
    outer loop
      vertex 2.001 42.8 0.9
      vertex 2.001 41.211 0
      vertex 2.001 41.211 0.9
    endloop
  endfacet
  facet normal 0 1 -0
    outer loop
      vertex 2.001 41.211 0
      vertex 0 41.211 0.9
      vertex 2.001 41.211 0.9
    endloop
  endfacet
  facet normal 0 1 0
    outer loop
      vertex 0 41.211 0.9
      vertex 2.001 41.211 0
      vertex 0 41.211 0
    endloop
  endfacet
  facet normal -1 0 0
    outer loop
      vertex 2.001 25.611 0
      vertex 2.001 39.613 0.9
      vertex 2.001 39.613 0
    endloop
  endfacet
  facet normal -1 -0 0
    outer loop
      vertex 2.001 39.613 0.9
      vertex 2.001 25.611 0
      vertex 2.001 25.611 0.9
    endloop
  endfacet
  facet normal 0 -1 0
    outer loop
      vertex 0 39.613 0
      vertex 2.001 39.613 0.9
      vertex 0 39.613 0.9
    endloop
  endfacet
  facet normal 0 -1 -0
    outer loop
      vertex 2.001 39.613 0.9
      vertex 0 39.613 0
      vertex 2.001 39.613 0
    endloop
  endfacet
  facet normal 0 1 -0
    outer loop
      vertex 2.001 25.611 0
      vertex 0 25.611 0.9
      vertex 2.001 25.611 0.9
    endloop
  endfacet
  facet normal 0 1 0
    outer loop
      vertex 0 25.611 0.9
      vertex 2.001 25.611 0
      vertex 0 25.611 0
    endloop
  endfacet
  facet normal 1 -0 0
    outer loop
      vertex 52.001 41.211 0.9
      vertex 52.001 42.8 0
      vertex 52.001 42.8 0.9
    endloop
  endfacet
  facet normal 1 0 0
    outer loop
      vertex 52.001 42.8 0
      vertex 52.001 41.211 0.9
      vertex 52.001 41.211 0
    endloop
  endfacet
  facet normal 0 1 -0
    outer loop
      vertex 54 41.211 0
      vertex 52.001 41.211 0.9
      vertex 54 41.211 0.9
    endloop
  endfacet
  facet normal 0 1 0
    outer loop
      vertex 52.001 41.211 0.9
      vertex 54 41.211 0
      vertex 52.001 41.211 0
    endloop
  endfacet
  facet normal 1 -0 0
    outer loop
      vertex 52.001 25.611 0.9
      vertex 52.001 39.613 0
      vertex 52.001 39.613 0.9
    endloop
  endfacet
  facet normal 1 0 0
    outer loop
      vertex 52.001 39.613 0
      vertex 52.001 25.611 0.9
      vertex 52.001 25.611 0
    endloop
  endfacet
  facet normal 0 -1 0
    outer loop
      vertex 52.001 39.613 0
      vertex 54 39.613 0.9
      vertex 52.001 39.613 0.9
    endloop
  endfacet
  facet normal 0 -1 -0
    outer loop
      vertex 54 39.613 0.9
      vertex 52.001 39.613 0
      vertex 54 39.613 0
    endloop
  endfacet
  facet normal 0 1 -0
    outer loop
      vertex 54 25.611 0
      vertex 52.001 25.611 0.9
      vertex 54 25.611 0.9
    endloop
  endfacet
  facet normal 0 1 0
    outer loop
      vertex 52.001 25.611 0.9
      vertex 54 25.611 0
      vertex 52.001 25.611 0
    endloop
  endfacet
  facet normal 0 0 -1
    outer loop
      vertex 26.9226 38.6592 0.299999
      vertex 35.1401 42.8 0.299999
      vertex 30.9457 12.7121 0.299999
    endloop
  endfacet
  facet normal -0 0 -1
    outer loop
      vertex 35.1401 42.8 0.299999
      vertex 26.9226 38.6592 0.299999
      vertex 27.5428 42.8 0.299999
    endloop
  endfacet
  facet normal 0 0 -1
    outer loop
      vertex 22.778 12.7121 0.299999
      vertex 26.9226 38.6592 0.299999
      vertex 30.9457 12.7121 0.299999
    endloop
  endfacet
  facet normal 0 0 -1
    outer loop
      vertex 18.78 42.8 0.299999
      vertex 26.9226 38.6592 0.299999
      vertex 22.778 12.7121 0.299999
    endloop
  endfacet
  facet normal 0 0 -1
    outer loop
      vertex 26.9226 38.6592 0.299999
      vertex 18.78 42.8 0.299999
      vertex 26.325 42.8 0.299999
    endloop
  endfacet
  facet normal 0 0 -1
    outer loop
      vertex 40.5754 12.7121 0.299999
      vertex 47.1631 42.8 0.299999
      vertex 51.059 12.7121 0.299999
    endloop
  endfacet
  facet normal -0 0 -1
    outer loop
      vertex 47.1631 42.8 0.299999
      vertex 40.5754 12.7121 0.299999
      vertex 37.1813 42.8 0.299999
    endloop
  endfacet
  facet normal 0 0 -1
    outer loop
      vertex 13.5137 12.7121 0.299999
      vertex 6.92845 42.8 0.299999
      vertex 16.8666 42.8 0.299999
    endloop
  endfacet
  facet normal 0 -0 -1
    outer loop
      vertex 6.92845 42.8 0.299999
      vertex 13.5137 12.7121 0.299999
      vertex 3.07089 12.7121 0.299999
    endloop
  endfacet
  facet normal 0.988969 -0.148126 0
    outer loop
      vertex 26.9226 38.6592 0.299999
      vertex 27.5428 42.8 0
      vertex 27.5428 42.8 0.299999
    endloop
  endfacet
  facet normal 0.988969 -0.148126 0
    outer loop
      vertex 27.5428 42.8 0
      vertex 26.9226 38.6592 0.299999
      vertex 26.9226 38.6592 0
    endloop
  endfacet
  facet normal -0.991721 -0.128412 0
    outer loop
      vertex 51.059 12.7121 0
      vertex 47.1631 42.8 0.299999
      vertex 47.1631 42.8 0
    endloop
  endfacet
  facet normal -0.991721 -0.128412 0
    outer loop
      vertex 47.1631 42.8 0.299999
      vertex 51.059 12.7121 0
      vertex 51.059 12.7121 0.299999
    endloop
  endfacet
  facet normal 0 1 -0
    outer loop
      vertex 51.059 12.7121 0
      vertex 40.5754 12.7121 0.299999
      vertex 51.059 12.7121 0.299999
    endloop
  endfacet
  facet normal 0 1 0
    outer loop
      vertex 40.5754 12.7121 0.299999
      vertex 51.059 12.7121 0
      vertex 40.5754 12.7121 0
    endloop
  endfacet
  facet normal 0.993697 0.112095 0
    outer loop
      vertex 40.5754 12.7121 0.299999
      vertex 37.1813 42.8 0
      vertex 37.1813 42.8 0.299999
    endloop
  endfacet
  facet normal 0.993697 0.112095 0
    outer loop
      vertex 37.1813 42.8 0
      vertex 40.5754 12.7121 0.299999
      vertex 40.5754 12.7121 0
    endloop
  endfacet
  facet normal -0.990423 0.13807 0
    outer loop
      vertex 30.9457 12.7121 0
      vertex 35.1401 42.8 0.299999
      vertex 35.1401 42.8 0
    endloop
  endfacet
  facet normal -0.990423 0.13807 0
    outer loop
      vertex 35.1401 42.8 0.299999
      vertex 30.9457 12.7121 0
      vertex 30.9457 12.7121 0.299999
    endloop
  endfacet
  facet normal 0 1 -0
    outer loop
      vertex 30.9457 12.7121 0
      vertex 22.778 12.7121 0.299999
      vertex 30.9457 12.7121 0.299999
    endloop
  endfacet
  facet normal 0 1 0
    outer loop
      vertex 22.778 12.7121 0.299999
      vertex 30.9457 12.7121 0
      vertex 22.778 12.7121 0
    endloop
  endfacet
  facet normal 0.991287 0.13172 0
    outer loop
      vertex 22.778 12.7121 0.299999
      vertex 18.78 42.8 0
      vertex 18.78 42.8 0.299999
    endloop
  endfacet
  facet normal 0.991287 0.13172 0
    outer loop
      vertex 18.78 42.8 0
      vertex 22.778 12.7121 0.299999
      vertex 22.778 12.7121 0
    endloop
  endfacet
  facet normal -0.993848 0.110751 0
    outer loop
      vertex 13.5137 12.7121 0
      vertex 16.8666 42.8 0.299999
      vertex 16.8666 42.8 0
    endloop
  endfacet
  facet normal -0.993848 0.110751 0
    outer loop
      vertex 16.8666 42.8 0.299999
      vertex 13.5137 12.7121 0
      vertex 13.5137 12.7121 0.299999
    endloop
  endfacet
  facet normal 0 1 -0
    outer loop
      vertex 13.5137 12.7121 0
      vertex 3.07089 12.7121 0.299999
      vertex 13.5137 12.7121 0.299999
    endloop
  endfacet
  facet normal 0 1 0
    outer loop
      vertex 3.07089 12.7121 0.299999
      vertex 13.5137 12.7121 0
      vertex 3.07089 12.7121 0
    endloop
  endfacet
  facet normal 0.991881 -0.127169 0
    outer loop
      vertex 3.07089 12.7121 0.299999
      vertex 6.92845 42.8 0
      vertex 6.92845 42.8 0.299999
    endloop
  endfacet
  facet normal 0.991881 -0.127169 0
    outer loop
      vertex 6.92845 42.8 0
      vertex 3.07089 12.7121 0.299999
      vertex 3.07089 12.7121 0
    endloop
  endfacet
  facet normal -0.989746 -0.14284 0
    outer loop
      vertex 26.9226 38.6592 0
      vertex 26.325 42.8 0.299999
      vertex 26.325 42.8 0
    endloop
  endfacet
  facet normal -0.989746 -0.14284 0
    outer loop
      vertex 26.325 42.8 0.299999
      vertex 26.9226 38.6592 0
      vertex 26.9226 38.6592 0.299999
    endloop
  endfacet
  facet normal 0 0 1
    outer loop
      vertex 20.2997 42.4549 0.599999
      vertex 34.6427 42.4549 0.599999
      vertex 34.8256 42.8 0.599999
    endloop
  endfacet
  facet normal 0 0 1
    outer loop
      vertex 34.6427 42.4549 0.599999
      vertex 20.2997 42.4549 0.599999
      vertex 27.532 33.5741 0.599999
    endloop
  endfacet
  facet normal 0 -0 1
    outer loop
      vertex 20.2997 42.4549 0.599999
      vertex 34.8256 42.8 0.599999
      vertex 20.1172 42.8 0.599999
    endloop
  endfacet
  facet normal 0 0 1
    outer loop
      vertex 34.6427 42.4549 0.599999
      vertex 38.3811 10.5 0.599999
      vertex 51.7091 10.5 0.599999
    endloop
  endfacet
  facet normal 0 0 1
    outer loop
      vertex 38.3811 10.5 0.599999
      vertex 34.6427 42.4549 0.599999
      vertex 27.532 33.5741 0.599999
    endloop
  endfacet
  facet normal 0 0 1
    outer loop
      vertex 20.2997 42.4549 0.599999
      vertex 16.7237 10.5 0.599999
      vertex 27.532 33.5741 0.599999
    endloop
  endfacet
  facet normal 0 -0 1
    outer loop
      vertex 16.7237 10.5 0.599999
      vertex 20.2997 42.4549 0.599999
      vertex 3.23326 10.5 0.599999
    endloop
  endfacet
  facet normal 0.904959 0.425498 0
    outer loop
      vertex 38.3811 10.5 0.9
      vertex 27.532 33.5741 0.599999
      vertex 27.532 33.5741 0.9
    endloop
  endfacet
  facet normal 0.904959 0.425498 0
    outer loop
      vertex 27.532 33.5741 0.599999
      vertex 38.3811 10.5 0.9
      vertex 38.3811 10.5 0.599999
    endloop
  endfacet
  facet normal 0 1 -0
    outer loop
      vertex 51.7091 10.5 0.599999
      vertex 38.3811 10.5 0.9
      vertex 51.7091 10.5 0.9
    endloop
  endfacet
  facet normal 0 1 0
    outer loop
      vertex 38.3811 10.5 0.9
      vertex 51.7091 10.5 0.599999
      vertex 38.3811 10.5 0.599999
    endloop
  endfacet
  facet normal -0.88208 -0.471099 0
    outer loop
      vertex 51.7091 10.5 0.599999
      vertex 34.6427 42.4549 0.9
      vertex 34.6427 42.4549 0.599999
    endloop
  endfacet
  facet normal -0.88208 -0.471099 0
    outer loop
      vertex 34.6427 42.4549 0.9
      vertex 51.7091 10.5 0.599999
      vertex 51.7091 10.5 0.9
    endloop
  endfacet
  facet normal -0.883576 0.468288 0
    outer loop
      vertex 34.6427 42.4549 0.599999
      vertex 34.8256 42.8 0.9
      vertex 34.8256 42.8 0.599999
    endloop
  endfacet
  facet normal -0.883576 0.468288 0
    outer loop
      vertex 34.8256 42.8 0.9
      vertex 34.6427 42.4549 0.599999
      vertex 34.6427 42.4549 0.9
    endloop
  endfacet
  facet normal 0.884 0.467488 0
    outer loop
      vertex 20.2997 42.4549 0.9
      vertex 20.1172 42.8 0.599999
      vertex 20.1172 42.8 0.9
    endloop
  endfacet
  facet normal 0.884 0.467488 0
    outer loop
      vertex 20.1172 42.8 0.599999
      vertex 20.2997 42.4549 0.9
      vertex 20.2997 42.4549 0.599999
    endloop
  endfacet
  facet normal 0.88208 -0.4711 0
    outer loop
      vertex 3.23326 10.5 0.9
      vertex 20.2997 42.4549 0.599999
      vertex 20.2997 42.4549 0.9
    endloop
  endfacet
  facet normal 0.88208 -0.4711 0
    outer loop
      vertex 20.2997 42.4549 0.599999
      vertex 3.23326 10.5 0.9
      vertex 3.23326 10.5 0.599999
    endloop
  endfacet
  facet normal 0 1 -0
    outer loop
      vertex 16.7237 10.5 0.599999
      vertex 3.23326 10.5 0.9
      vertex 16.7237 10.5 0.9
    endloop
  endfacet
  facet normal 0 1 0
    outer loop
      vertex 3.23326 10.5 0.9
      vertex 16.7237 10.5 0.599999
      vertex 3.23326 10.5 0.599999
    endloop
  endfacet
  facet normal -0.905575 0.424187 0
    outer loop
      vertex 16.7237 10.5 0.599999
      vertex 27.532 33.5741 0.9
      vertex 27.532 33.5741 0.599999
    endloop
  endfacet
  facet normal -0.905575 0.424187 0
    outer loop
      vertex 27.532 33.5741 0.9
      vertex 16.7237 10.5 0.599999
      vertex 16.7237 10.5 0.9
    endloop
  endfacet
endsolid OpenSCAD_Model
