solid OpenSCAD_Model
  facet normal 0 1 -0
    outer loop
      vertex 32.538 42.8 0.4
      vertex 21.1168 42.8 0.599999
      vertex 32.538 42.8 0.599999
    endloop
  endfacet
  facet normal 0 1 0
    outer loop
      vertex 21.1168 42.8 0.599999
      vertex 32.538 42.8 0.4
      vertex 21.1168 42.8 0.4
    endloop
  endfacet
  facet normal 0 1 -0
    outer loop
      vertex 46.71 42.8 0
      vertex 35.261 42.8 0.2
      vertex 46.71 42.8 0.2
    endloop
  endfacet
  facet normal 0 1 0
    outer loop
      vertex 35.261 42.8 0.2
      vertex 46.71 42.8 0
      vertex 35.261 42.8 0
    endloop
  endfacet
  facet normal 0 0 1
    outer loop
      vertex 32.538 42.8 0.599999
      vertex 21.1168 42.8 0.599999
      vertex 32.538 20.3415 0.599999
    endloop
  endfacet
  facet normal -0 0 1
    outer loop
      vertex 32.538 20.3415 0.599999
      vertex 44.081 10.5 0.599999
      vertex 44.081 20.3415 0.599999
    endloop
  endfacet
  facet normal 0 0 1
    outer loop
      vertex 21.1168 20.3415 0.599999
      vertex 32.538 20.3415 0.599999
      vertex 21.1168 42.8 0.599999
    endloop
  endfacet
  facet normal 0 0 1
    outer loop
      vertex 9.85871 10.5 0.599999
      vertex 32.538 20.3415 0.599999
      vertex 21.1168 20.3415 0.599999
    endloop
  endfacet
  facet normal 0 0 1
    outer loop
      vertex 9.85871 10.5 0.599999
      vertex 21.1168 20.3415 0.599999
      vertex 9.85871 20.3415 0.599999
    endloop
  endfacet
  facet normal 0 0 1
    outer loop
      vertex 32.538 20.3415 0.599999
      vertex 9.85871 10.5 0.599999
      vertex 44.081 10.5 0.599999
    endloop
  endfacet
  facet normal 0 0 -1
    outer loop
      vertex 35.261 12.6958 0
      vertex 46.71 42.8 0
      vertex 46.6822 12.6958 0
    endloop
  endfacet
  facet normal -0 0 -1
    outer loop
      vertex 46.71 42.8 0
      vertex 35.261 12.6958 0
      vertex 35.261 42.8 0
    endloop
  endfacet
  facet normal -0 0 1
    outer loop
      vertex 35.261 42.8 0.2
      vertex 46.6822 12.6958 0.2
      vertex 46.71 42.8 0.2
    endloop
  endfacet
  facet normal 0 0 1
    outer loop
      vertex 46.6822 12.6958 0.2
      vertex 35.261 42.8 0.2
      vertex 35.261 12.6958 0.2
    endloop
  endfacet
  facet normal 1 -0.000923459 0
    outer loop
      vertex 46.6822 12.6958 0.2
      vertex 46.71 42.8 0
      vertex 46.71 42.8 0.2
    endloop
  endfacet
  facet normal 1 -0.000923459 0
    outer loop
      vertex 46.71 42.8 0
      vertex 46.6822 12.6958 0.2
      vertex 46.6822 12.6958 0
    endloop
  endfacet
  facet normal 0 -1 0
    outer loop
      vertex 35.261 12.6958 0
      vertex 46.6822 12.6958 0.2
      vertex 35.261 12.6958 0.2
    endloop
  endfacet
  facet normal 0 -1 -0
    outer loop
      vertex 46.6822 12.6958 0.2
      vertex 35.261 12.6958 0
      vertex 46.6822 12.6958 0
    endloop
  endfacet
  facet normal -1 0 0
    outer loop
      vertex 35.261 12.6958 0
      vertex 35.261 42.8 0.2
      vertex 35.261 42.8 0
    endloop
  endfacet
  facet normal -1 -0 0
    outer loop
      vertex 35.261 42.8 0.2
      vertex 35.261 12.6958 0
      vertex 35.261 12.6958 0.2
    endloop
  endfacet
  facet normal 0 0 -1
    outer loop
      vertex 44.081 10.5 0.4
      vertex 32.538 20.3415 0.4
      vertex 44.081 20.3415 0.4
    endloop
  endfacet
  facet normal 0 0 -1
    outer loop
      vertex 32.538 20.3415 0.4
      vertex 21.1168 20.3415 0.4
      vertex 32.538 42.8 0.4
    endloop
  endfacet
  facet normal 0 0 -1
    outer loop
      vertex 9.85871 10.5 0.4
      vertex 32.538 20.3415 0.4
      vertex 44.081 10.5 0.4
    endloop
  endfacet
  facet normal -0 0 -1
    outer loop
      vertex 32.538 20.3415 0.4
      vertex 9.85871 10.5 0.4
      vertex 21.1168 20.3415 0.4
    endloop
  endfacet
  facet normal -0 0 -1
    outer loop
      vertex 21.1168 20.3415 0.4
      vertex 9.85871 10.5 0.4
      vertex 9.85871 20.3415 0.4
    endloop
  endfacet
  facet normal -0 0 -1
    outer loop
      vertex 32.538 42.8 0.4
      vertex 21.1168 20.3415 0.4
      vertex 21.1168 42.8 0.4
    endloop
  endfacet
  facet normal 0 1 -0
    outer loop
      vertex 44.081 20.3415 0.4
      vertex 32.538 20.3415 0.599999
      vertex 44.081 20.3415 0.599999
    endloop
  endfacet
  facet normal 0 1 0
    outer loop
      vertex 32.538 20.3415 0.599999
      vertex 44.081 20.3415 0.4
      vertex 32.538 20.3415 0.4
    endloop
  endfacet
  facet normal 1 -0 0
    outer loop
      vertex 32.538 20.3415 0.599999
      vertex 32.538 42.8 0.4
      vertex 32.538 42.8 0.599999
    endloop
  endfacet
  facet normal 1 0 0
    outer loop
      vertex 32.538 42.8 0.4
      vertex 32.538 20.3415 0.599999
      vertex 32.538 20.3415 0.4
    endloop
  endfacet
  facet normal -1 0 0
    outer loop
      vertex 21.1168 20.3415 0.4
      vertex 21.1168 42.8 0.599999
      vertex 21.1168 42.8 0.4
    endloop
  endfacet
  facet normal -1 -0 0
    outer loop
      vertex 21.1168 42.8 0.599999
      vertex 21.1168 20.3415 0.4
      vertex 21.1168 20.3415 0.599999
    endloop
  endfacet
  facet normal 0 1 -0
    outer loop
      vertex 21.1168 20.3415 0.4
      vertex 9.85871 20.3415 0.599999
      vertex 21.1168 20.3415 0.599999
    endloop
  endfacet
  facet normal 0 1 0
    outer loop
      vertex 9.85871 20.3415 0.599999
      vertex 21.1168 20.3415 0.4
      vertex 9.85871 20.3415 0.4
    endloop
  endfacet
  facet normal -1 0 0
    outer loop
      vertex 9.85871 10.5 0.4
      vertex 9.85871 20.3415 0.599999
      vertex 9.85871 20.3415 0.4
    endloop
  endfacet
  facet normal -1 -0 0
    outer loop
      vertex 9.85871 20.3415 0.599999
      vertex 9.85871 10.5 0.4
      vertex 9.85871 10.5 0.599999
    endloop
  endfacet
  facet normal 0 -1 0
    outer loop
      vertex 9.85871 10.5 0.4
      vertex 44.081 10.5 0.599999
      vertex 9.85871 10.5 0.599999
    endloop
  endfacet
  facet normal 0 -1 -0
    outer loop
      vertex 44.081 10.5 0.599999
      vertex 9.85871 10.5 0.4
      vertex 44.081 10.5 0.4
    endloop
  endfacet
  facet normal 1 -0 0
    outer loop
      vertex 44.081 10.5 0.599999
      vertex 44.081 20.3415 0.4
      vertex 44.081 20.3415 0.599999
    endloop
  endfacet
  facet normal 1 0 0
    outer loop
      vertex 44.081 20.3415 0.4
      vertex 44.081 10.5 0.599999
      vertex 44.081 10.5 0.4
    endloop
  endfacet
endsolid OpenSCAD_Model
