solid OpenSCAD_Model
  facet normal 0 1 -0
    outer loop
      vertex 33.4199 42.8 0.4
      vertex 21.1277 42.8 0.599999
      vertex 33.4199 42.8 0.599999
    endloop
  endfacet
  facet normal 0 1 0
    outer loop
      vertex 21.1277 42.8 0.599999
      vertex 33.4199 42.8 0.4
      vertex 21.1277 42.8 0.4
    endloop
  endfacet
  facet normal -0 0 1
    outer loop
      vertex 21.1277 42.8 0.599999
      vertex 19.532 20.385 0.599999
      vertex 33.4199 42.8 0.599999
    endloop
  endfacet
  facet normal 0 -0 1
    outer loop
      vertex 19.532 20.385 0.599999
      vertex 21.1277 42.8 0.599999
      vertex 5.63211 17.9902 0.599999
    endloop
  endfacet
  facet normal -0 0 1
    outer loop
      vertex 19.532 20.385 0.599999
      vertex 48.8767 10.5 0.599999
      vertex 48.8767 20.385 0.599999
    endloop
  endfacet
  facet normal 0 0 1
    outer loop
      vertex 5.63211 10.5 0.599999
      vertex 19.532 20.385 0.599999
      vertex 5.63211 17.9902 0.599999
    endloop
  endfacet
  facet normal 0 0 1
    outer loop
      vertex 19.532 20.385 0.599999
      vertex 5.63211 10.5 0.599999
      vertex 48.8767 10.5 0.599999
    endloop
  endfacet
  facet normal 0 0 -1
    outer loop
      vertex 48.8767 10.5 0.4
      vertex 19.532 20.385 0.4
      vertex 48.8767 20.385 0.4
    endloop
  endfacet
  facet normal 0 -0 -1
    outer loop
      vertex 19.532 20.385 0.4
      vertex 48.8767 10.5 0.4
      vertex 5.63211 10.5 0.4
    endloop
  endfacet
  facet normal 0 0 -1
    outer loop
      vertex 19.532 20.385 0.4
      vertex 21.1277 42.8 0.4
      vertex 33.4199 42.8 0.4
    endloop
  endfacet
  facet normal 0 0 -1
    outer loop
      vertex 5.63211 17.9902 0.4
      vertex 19.532 20.385 0.4
      vertex 5.63211 10.5 0.4
    endloop
  endfacet
  facet normal -0 0 -1
    outer loop
      vertex 19.532 20.385 0.4
      vertex 5.63211 17.9902 0.4
      vertex 21.1277 42.8 0.4
    endloop
  endfacet
  facet normal 0 1 -0
    outer loop
      vertex 48.8767 20.385 0.4
      vertex 19.532 20.385 0.599999
      vertex 48.8767 20.385 0.599999
    endloop
  endfacet
  facet normal 0 1 0
    outer loop
      vertex 19.532 20.385 0.599999
      vertex 48.8767 20.385 0.4
      vertex 19.532 20.385 0.4
    endloop
  endfacet
  facet normal 0.850062 -0.526682 0
    outer loop
      vertex 19.532 20.385 0.599999
      vertex 33.4199 42.8 0.4
      vertex 33.4199 42.8 0.599999
    endloop
  endfacet
  facet normal 0.850062 -0.526682 0
    outer loop
      vertex 33.4199 42.8 0.4
      vertex 19.532 20.385 0.599999
      vertex 19.532 20.385 0.4
    endloop
  endfacet
  facet normal -0.84816 0.52974 0
    outer loop
      vertex 5.63211 17.9902 0.4
      vertex 21.1277 42.8 0.599999
      vertex 21.1277 42.8 0.4
    endloop
  endfacet
  facet normal -0.84816 0.52974 0
    outer loop
      vertex 21.1277 42.8 0.599999
      vertex 5.63211 17.9902 0.4
      vertex 5.63211 17.9902 0.599999
    endloop
  endfacet
  facet normal -1 0 0
    outer loop
      vertex 5.63211 10.5 0.4
      vertex 5.63211 17.9902 0.599999
      vertex 5.63211 17.9902 0.4
    endloop
  endfacet
  facet normal -1 -0 0
    outer loop
      vertex 5.63211 17.9902 0.599999
      vertex 5.63211 10.5 0.4
      vertex 5.63211 10.5 0.599999
    endloop
  endfacet
  facet normal 0 -1 0
    outer loop
      vertex 5.63211 10.5 0.4
      vertex 48.8767 10.5 0.599999
      vertex 5.63211 10.5 0.599999
    endloop
  endfacet
  facet normal 0 -1 -0
    outer loop
      vertex 48.8767 10.5 0.599999
      vertex 5.63211 10.5 0.4
      vertex 48.8767 10.5 0.4
    endloop
  endfacet
  facet normal 1 -0 0
    outer loop
      vertex 48.8767 10.5 0.599999
      vertex 48.8767 20.385 0.4
      vertex 48.8767 20.385 0.599999
    endloop
  endfacet
  facet normal 1 0 0
    outer loop
      vertex 48.8767 20.385 0.4
      vertex 48.8767 10.5 0.599999
      vertex 48.8767 10.5 0.4
    endloop
  endfacet
endsolid OpenSCAD_Model
