solid OpenSCAD_Model
  facet normal 0 1 -0
    outer loop
      vertex 46.3973 42.8 0.4
      vertex 7.01391 42.8 0.599999
      vertex 46.3973 42.8 0.599999
    endloop
  endfacet
  facet normal 0 1 0
    outer loop
      vertex 7.01391 42.8 0.599999
      vertex 46.3973 42.8 0.4
      vertex 7.01391 42.8 0.4
    endloop
  endfacet
  facet normal 0 1 -0
    outer loop
      vertex 32.538 42.8 0
      vertex 21.1168 42.8 0.2
      vertex 32.538 42.8 0.2
    endloop
  endfacet
  facet normal 0 1 0
    outer loop
      vertex 21.1168 42.8 0.2
      vertex 32.538 42.8 0
      vertex 21.1168 42.8 0
    endloop
  endfacet
  facet normal 0 0 1
    outer loop
      vertex 46.3973 42.8 0.599999
      vertex 35.0986 37.9777 0.599999
      vertex 46.3973 10.5 0.599999
    endloop
  endfacet
  facet normal 0 0 1
    outer loop
      vertex 46.3973 42.8 0.599999
      vertex 18.3532 37.9777 0.599999
      vertex 35.0986 37.9777 0.599999
    endloop
  endfacet
  facet normal -0 0 1
    outer loop
      vertex 7.01391 42.8 0.599999
      vertex 18.3532 37.9777 0.599999
      vertex 46.3973 42.8 0.599999
    endloop
  endfacet
  facet normal 0 0 1
    outer loop
      vertex 7.01391 10.5 0.599999
      vertex 18.3532 37.9777 0.599999
      vertex 7.01391 42.8 0.599999
    endloop
  endfacet
  facet normal 0 0 1
    outer loop
      vertex 18.3532 37.9777 0.599999
      vertex 7.01391 10.5 0.599999
      vertex 18.3532 10.5 0.599999
    endloop
  endfacet
  facet normal 0 0 1
    outer loop
      vertex 46.3973 10.5 0.599999
      vertex 35.0986 37.9777 0.599999
      vertex 35.0986 10.5 0.599999
    endloop
  endfacet
  facet normal 0 0 -1
    outer loop
      vertex 44.081 12.6958 0
      vertex 32.538 22.5808 0
      vertex 44.081 22.5808 0
    endloop
  endfacet
  facet normal 0 0 -1
    outer loop
      vertex 32.538 22.5808 0
      vertex 21.1168 22.5808 0
      vertex 32.538 42.8 0
    endloop
  endfacet
  facet normal 0 0 -1
    outer loop
      vertex 9.85871 12.6958 0
      vertex 32.538 22.5808 0
      vertex 44.081 12.6958 0
    endloop
  endfacet
  facet normal -0 0 -1
    outer loop
      vertex 32.538 22.5808 0
      vertex 9.85871 12.6958 0
      vertex 21.1168 22.5808 0
    endloop
  endfacet
  facet normal -0 0 -1
    outer loop
      vertex 21.1168 22.5808 0
      vertex 9.85871 12.6958 0
      vertex 9.85871 22.5808 0
    endloop
  endfacet
  facet normal -0 0 -1
    outer loop
      vertex 32.538 42.8 0
      vertex 21.1168 22.5808 0
      vertex 21.1168 42.8 0
    endloop
  endfacet
  facet normal 0 0 1
    outer loop
      vertex 32.538 42.8 0.2
      vertex 21.1168 42.8 0.2
      vertex 32.538 22.5808 0.2
    endloop
  endfacet
  facet normal -0 0 1
    outer loop
      vertex 32.538 22.5808 0.2
      vertex 44.081 12.6958 0.2
      vertex 44.081 22.5808 0.2
    endloop
  endfacet
  facet normal 0 0 1
    outer loop
      vertex 21.1168 22.5808 0.2
      vertex 32.538 22.5808 0.2
      vertex 21.1168 42.8 0.2
    endloop
  endfacet
  facet normal 0 0 1
    outer loop
      vertex 9.85871 12.6958 0.2
      vertex 32.538 22.5808 0.2
      vertex 21.1168 22.5808 0.2
    endloop
  endfacet
  facet normal 0 0 1
    outer loop
      vertex 9.85871 12.6958 0.2
      vertex 21.1168 22.5808 0.2
      vertex 9.85871 22.5808 0.2
    endloop
  endfacet
  facet normal 0 0 1
    outer loop
      vertex 32.538 22.5808 0.2
      vertex 9.85871 12.6958 0.2
      vertex 44.081 12.6958 0.2
    endloop
  endfacet
  facet normal 1 -0 0
    outer loop
      vertex 32.538 22.5808 0.2
      vertex 32.538 42.8 0
      vertex 32.538 42.8 0.2
    endloop
  endfacet
  facet normal 1 0 0
    outer loop
      vertex 32.538 42.8 0
      vertex 32.538 22.5808 0.2
      vertex 32.538 22.5808 0
    endloop
  endfacet
  facet normal 0 1 -0
    outer loop
      vertex 44.081 22.5808 0
      vertex 32.538 22.5808 0.2
      vertex 44.081 22.5808 0.2
    endloop
  endfacet
  facet normal 0 1 0
    outer loop
      vertex 32.538 22.5808 0.2
      vertex 44.081 22.5808 0
      vertex 32.538 22.5808 0
    endloop
  endfacet
  facet normal 1 -0 0
    outer loop
      vertex 44.081 12.6958 0.2
      vertex 44.081 22.5808 0
      vertex 44.081 22.5808 0.2
    endloop
  endfacet
  facet normal 1 0 0
    outer loop
      vertex 44.081 22.5808 0
      vertex 44.081 12.6958 0.2
      vertex 44.081 12.6958 0
    endloop
  endfacet
  facet normal 0 -1 0
    outer loop
      vertex 9.85871 12.6958 0
      vertex 44.081 12.6958 0.2
      vertex 9.85871 12.6958 0.2
    endloop
  endfacet
  facet normal 0 -1 -0
    outer loop
      vertex 44.081 12.6958 0.2
      vertex 9.85871 12.6958 0
      vertex 44.081 12.6958 0
    endloop
  endfacet
  facet normal -1 0 0
    outer loop
      vertex 9.85871 12.6958 0
      vertex 9.85871 22.5808 0.2
      vertex 9.85871 22.5808 0
    endloop
  endfacet
  facet normal -1 -0 0
    outer loop
      vertex 9.85871 22.5808 0.2
      vertex 9.85871 12.6958 0
      vertex 9.85871 12.6958 0.2
    endloop
  endfacet
  facet normal 0 1 -0
    outer loop
      vertex 21.1168 22.5808 0
      vertex 9.85871 22.5808 0.2
      vertex 21.1168 22.5808 0.2
    endloop
  endfacet
  facet normal 0 1 0
    outer loop
      vertex 9.85871 22.5808 0.2
      vertex 21.1168 22.5808 0
      vertex 9.85871 22.5808 0
    endloop
  endfacet
  facet normal -1 0 0
    outer loop
      vertex 21.1168 22.5808 0
      vertex 21.1168 42.8 0.2
      vertex 21.1168 42.8 0
    endloop
  endfacet
  facet normal -1 -0 0
    outer loop
      vertex 21.1168 42.8 0.2
      vertex 21.1168 22.5808 0
      vertex 21.1168 22.5808 0.2
    endloop
  endfacet
  facet normal 0 0 -1
    outer loop
      vertex 18.3532 10.5 0.4
      vertex 7.01391 10.5 0.4
      vertex 18.3532 37.9777 0.4
    endloop
  endfacet
  facet normal 0 0 -1
    outer loop
      vertex 35.0986 37.9777 0.4
      vertex 46.3973 10.5 0.4
      vertex 35.0986 10.5 0.4
    endloop
  endfacet
  facet normal 0 0 -1
    outer loop
      vertex 46.3973 10.5 0.4
      vertex 35.0986 37.9777 0.4
      vertex 46.3973 42.8 0.4
    endloop
  endfacet
  facet normal 0 0 -1
    outer loop
      vertex 18.3532 37.9777 0.4
      vertex 46.3973 42.8 0.4
      vertex 35.0986 37.9777 0.4
    endloop
  endfacet
  facet normal 0 0 -1
    outer loop
      vertex 18.3532 37.9777 0.4
      vertex 7.01391 42.8 0.4
      vertex 46.3973 42.8 0.4
    endloop
  endfacet
  facet normal 0 0 -1
    outer loop
      vertex 7.01391 42.8 0.4
      vertex 18.3532 37.9777 0.4
      vertex 7.01391 10.5 0.4
    endloop
  endfacet
  facet normal 0 -1 0
    outer loop
      vertex 18.3532 37.9777 0.4
      vertex 35.0986 37.9777 0.599999
      vertex 18.3532 37.9777 0.599999
    endloop
  endfacet
  facet normal 0 -1 -0
    outer loop
      vertex 35.0986 37.9777 0.599999
      vertex 18.3532 37.9777 0.4
      vertex 35.0986 37.9777 0.4
    endloop
  endfacet
  facet normal -1 0 0
    outer loop
      vertex 35.0986 10.5 0.4
      vertex 35.0986 37.9777 0.599999
      vertex 35.0986 37.9777 0.4
    endloop
  endfacet
  facet normal -1 -0 0
    outer loop
      vertex 35.0986 37.9777 0.599999
      vertex 35.0986 10.5 0.4
      vertex 35.0986 10.5 0.599999
    endloop
  endfacet
  facet normal 0 -1 0
    outer loop
      vertex 35.0986 10.5 0.4
      vertex 46.3973 10.5 0.599999
      vertex 35.0986 10.5 0.599999
    endloop
  endfacet
  facet normal 0 -1 -0
    outer loop
      vertex 46.3973 10.5 0.599999
      vertex 35.0986 10.5 0.4
      vertex 46.3973 10.5 0.4
    endloop
  endfacet
  facet normal 1 -0 0
    outer loop
      vertex 46.3973 10.5 0.599999
      vertex 46.3973 42.8 0.4
      vertex 46.3973 42.8 0.599999
    endloop
  endfacet
  facet normal 1 0 0
    outer loop
      vertex 46.3973 42.8 0.4
      vertex 46.3973 10.5 0.599999
      vertex 46.3973 10.5 0.4
    endloop
  endfacet
  facet normal -1 0 0
    outer loop
      vertex 7.01391 10.5 0.4
      vertex 7.01391 42.8 0.599999
      vertex 7.01391 42.8 0.4
    endloop
  endfacet
  facet normal -1 -0 0
    outer loop
      vertex 7.01391 42.8 0.599999
      vertex 7.01391 10.5 0.4
      vertex 7.01391 10.5 0.599999
    endloop
  endfacet
  facet normal 0 -1 0
    outer loop
      vertex 7.01391 10.5 0.4
      vertex 18.3532 10.5 0.599999
      vertex 7.01391 10.5 0.599999
    endloop
  endfacet
  facet normal 0 -1 -0
    outer loop
      vertex 18.3532 10.5 0.599999
      vertex 7.01391 10.5 0.4
      vertex 18.3532 10.5 0.4
    endloop
  endfacet
  facet normal 1 -0 0
    outer loop
      vertex 18.3532 10.5 0.599999
      vertex 18.3532 37.9777 0.4
      vertex 18.3532 37.9777 0.599999
    endloop
  endfacet
  facet normal 1 0 0
    outer loop
      vertex 18.3532 37.9777 0.4
      vertex 18.3532 10.5 0.599999
      vertex 18.3532 10.5 0.4
    endloop
  endfacet
endsolid OpenSCAD_Model
