solid OpenSCAD_Model
  facet normal -1 0 0
    outer loop
      vertex 0 3 0
      vertex 0 32.81 0.599999
      vertex 0 32.81 0
    endloop
  endfacet
  facet normal -1 -0 0
    outer loop
      vertex 0 32.81 0.599999
      vertex 0 3 0
      vertex 0 3 0.599999
    endloop
  endfacet
  facet normal -1 0 0
    outer loop
      vertex 0 37.83 0
      vertex 0 39.81 0.599999
      vertex 0 39.81 0
    endloop
  endfacet
  facet normal -1 -0 0
    outer loop
      vertex 0 39.81 0.599999
      vertex 0 37.83 0
      vertex 0 37.83 0.599999
    endloop
  endfacet
  facet normal 0 1 0
    outer loop
      vertex 17.4134 42.8 0
      vertex 19.5726 42.8 0.4
      vertex 20.8541 42.8 0
    endloop
  endfacet
  facet normal 0 1 0
    outer loop
      vertex 19.5726 42.8 0.4
      vertex 17.4134 42.8 0
      vertex 17.4134 42.8 0.2
    endloop
  endfacet
  facet normal 0 1 -0
    outer loop
      vertex 37.2886 42.8 0
      vertex 33.2713 42.8 0.2
      vertex 37.2886 42.8 0.2
    endloop
  endfacet
  facet normal 0 1 0
    outer loop
      vertex 33.2713 42.8 0.2
      vertex 37.2886 42.8 0
      vertex 33.2713 42.8 0
    endloop
  endfacet
  facet normal 0 1 -0
    outer loop
      vertex 37.2886 42.8 0.2
      vertex 19.5726 42.8 0.599999
      vertex 52.01 42.8 0.599999
    endloop
  endfacet
  facet normal 0 1 -0
    outer loop
      vertex 33.2713 42.8 0.2
      vertex 19.5726 42.8 0.599999
      vertex 37.2886 42.8 0.2
    endloop
  endfacet
  facet normal 0 1 0
    outer loop
      vertex 37.2886 42.8 0.2
      vertex 52.01 42.8 0.599999
      vertex 47.5355 42.8 0.2
    endloop
  endfacet
  facet normal 0 1 -0
    outer loop
      vertex 52.01 42.8 0
      vertex 47.5355 42.8 0.2
      vertex 52.01 42.8 0.599999
    endloop
  endfacet
  facet normal 0 1 0
    outer loop
      vertex 47.5355 42.8 0.2
      vertex 52.01 42.8 0
      vertex 47.5355 42.8 0
    endloop
  endfacet
  facet normal 0 1 0
    outer loop
      vertex 7.17631 42.8 0.2
      vertex 8.11081 42.8 0.599999
      vertex 8.11081 42.8 0.4
    endloop
  endfacet
  facet normal 0 1 -0
    outer loop
      vertex 20.8541 42.8 0.2
      vertex 19.5726 42.8 0.599999
      vertex 33.2713 42.8 0.2
    endloop
  endfacet
  facet normal 0 1 0
    outer loop
      vertex 19.5726 42.8 0.599999
      vertex 20.8541 42.8 0.2
      vertex 19.5726 42.8 0.4
    endloop
  endfacet
  facet normal 0 1 -0
    outer loop
      vertex 20.8541 42.8 0
      vertex 19.5726 42.8 0.4
      vertex 20.8541 42.8 0.2
    endloop
  endfacet
  facet normal 0 1 0
    outer loop
      vertex 19.5726 42.8 0.4
      vertex 17.4134 42.8 0.2
      vertex 8.11081 42.8 0.4
    endloop
  endfacet
  facet normal 0 1 0
    outer loop
      vertex 7.17631 42.8 0.2
      vertex 8.11081 42.8 0.4
      vertex 17.4134 42.8 0.2
    endloop
  endfacet
  facet normal 0 1 0
    outer loop
      vertex 8.11081 42.8 0.599999
      vertex 7.17631 42.8 0.2
      vertex 2.01 42.8 0.599999
    endloop
  endfacet
  facet normal 0 1 0
    outer loop
      vertex 2.01 42.8 0
      vertex 7.17631 42.8 0.2
      vertex 7.17631 42.8 0
    endloop
  endfacet
  facet normal 0 1 0
    outer loop
      vertex 7.17631 42.8 0.2
      vertex 2.01 42.8 0
      vertex 2.01 42.8 0.599999
    endloop
  endfacet
  facet normal -0 0 1
    outer loop
      vertex 0 39.81 0.599999
      vertex 2.01 37.83 0.599999
      vertex 2.01 39.81 0.599999
    endloop
  endfacet
  facet normal 0 0 1
    outer loop
      vertex 2.01 37.83 0.599999
      vertex 0 39.81 0.599999
      vertex 0 37.83 0.599999
    endloop
  endfacet
  facet normal -0 0 1
    outer loop
      vertex 2.01 32.81 0.599999
      vertex 8.11081 10.5 0.599999
      vertex 8.11081 42.8 0.599999
    endloop
  endfacet
  facet normal -0 0 1
    outer loop
      vertex 0 32.81 0.599999
      vertex 8.11081 10.5 0.599999
      vertex 2.01 32.81 0.599999
    endloop
  endfacet
  facet normal 0 0 1
    outer loop
      vertex 8.11081 10.5 0.599999
      vertex 0 3 0.599999
      vertex 3 0 0.599999
    endloop
  endfacet
  facet normal 0 0 1
    outer loop
      vertex 3 0 0.599999
      vertex 0 3 0.599999
      vertex 2.73853 0.0114155 0.599999
    endloop
  endfacet
  facet normal 0 0 1
    outer loop
      vertex 2.01 39.81 0.599999
      vertex 8.11081 42.8 0.599999
      vertex 2.01 42.8 0.599999
    endloop
  endfacet
  facet normal 0 0 1
    outer loop
      vertex 2.01 37.83 0.599999
      vertex 8.11081 42.8 0.599999
      vertex 2.01 39.81 0.599999
    endloop
  endfacet
  facet normal 0 0 1
    outer loop
      vertex 2.01 32.81 0.599999
      vertex 8.11081 42.8 0.599999
      vertex 2.01 37.83 0.599999
    endloop
  endfacet
  facet normal 0 0 1
    outer loop
      vertex 2.73853 0.0114155 0.599999
      vertex 0 3 0.599999
      vertex 2.47906 0.0455761 0.599999
    endloop
  endfacet
  facet normal 0 0 1
    outer loop
      vertex 2.47906 0.0455761 0.599999
      vertex 0 3 0.599999
      vertex 2.22354 0.102222 0.599999
    endloop
  endfacet
  facet normal 0 0 1
    outer loop
      vertex 2.22354 0.102222 0.599999
      vertex 0 3 0.599999
      vertex 1.97394 0.180922 0.599999
    endloop
  endfacet
  facet normal 0 0 1
    outer loop
      vertex 1.97394 0.180922 0.599999
      vertex 0 3 0.599999
      vertex 1.73214 0.281076 0.599999
    endloop
  endfacet
  facet normal 0 0 1
    outer loop
      vertex 1.73214 0.281076 0.599999
      vertex 0 3 0.599999
      vertex 1.5 0.401923 0.599999
    endloop
  endfacet
  facet normal 0 0 1
    outer loop
      vertex 1.5 0.401923 0.599999
      vertex 0 3 0.599999
      vertex 1.27927 0.542543 0.599999
    endloop
  endfacet
  facet normal 0 0 1
    outer loop
      vertex 1.27927 0.542543 0.599999
      vertex 0 3 0.599999
      vertex 1.07164 0.701866 0.599999
    endloop
  endfacet
  facet normal 0 0 1
    outer loop
      vertex 1.07164 0.701866 0.599999
      vertex 0 3 0.599999
      vertex 0.878679 0.878679 0.599999
    endloop
  endfacet
  facet normal 0 0 1
    outer loop
      vertex 0.878679 0.878679 0.599999
      vertex 0 3 0.599999
      vertex 0.701866 1.07164 0.599999
    endloop
  endfacet
  facet normal 0 0 1
    outer loop
      vertex 0.701866 1.07164 0.599999
      vertex 0 3 0.599999
      vertex 0.542543 1.27927 0.599999
    endloop
  endfacet
  facet normal 0 0 1
    outer loop
      vertex 0.542543 1.27927 0.599999
      vertex 0 3 0.599999
      vertex 0.401923 1.5 0.599999
    endloop
  endfacet
  facet normal 0 0 1
    outer loop
      vertex 0.401923 1.5 0.599999
      vertex 0 3 0.599999
      vertex 0.281076 1.73214 0.599999
    endloop
  endfacet
  facet normal 0 0 1
    outer loop
      vertex 0.281076 1.73214 0.599999
      vertex 0 3 0.599999
      vertex 0.180922 1.97394 0.599999
    endloop
  endfacet
  facet normal 0 0 1
    outer loop
      vertex 0.180922 1.97394 0.599999
      vertex 0 3 0.599999
      vertex 0.102222 2.22354 0.599999
    endloop
  endfacet
  facet normal 0 0 1
    outer loop
      vertex 0.102222 2.22354 0.599999
      vertex 0 3 0.599999
      vertex 0.0455761 2.47906 0.599999
    endloop
  endfacet
  facet normal 0 0 1
    outer loop
      vertex 8.11081 10.5 0.599999
      vertex 0 32.81 0.599999
      vertex 0 3 0.599999
    endloop
  endfacet
  facet normal 0 0 1
    outer loop
      vertex 0.0455761 2.47906 0.599999
      vertex 0 3 0.599999
      vertex 0.0114155 2.73853 0.599999
    endloop
  endfacet
  facet normal -0 0 1
    outer loop
      vertex 19.5726 42.8 0.599999
      vertex 52.01 39.81 0.599999
      vertex 52.01 42.8 0.599999
    endloop
  endfacet
  facet normal 0 0 1
    outer loop
      vertex 52.01 39.81 0.599999
      vertex 19.5726 42.8 0.599999
      vertex 52.01 37.83 0.599999
    endloop
  endfacet
  facet normal 0 0 1
    outer loop
      vertex 52.01 37.83 0.599999
      vertex 19.5726 42.8 0.599999
      vertex 52.01 32.81 0.599999
    endloop
  endfacet
  facet normal 0 0 1
    outer loop
      vertex 52.01 32.81 0.599999
      vertex 47.2919 20.385 0.599999
      vertex 51.7765 0.102222 0.599999
    endloop
  endfacet
  facet normal -0 0 1
    outer loop
      vertex 47.2919 10.5 0.599999
      vertex 51.7765 0.102222 0.599999
      vertex 47.2919 20.385 0.599999
    endloop
  endfacet
  facet normal 0 -0 1
    outer loop
      vertex 51 0 0.599999
      vertex 51.7765 0.102222 0.599999
      vertex 47.2919 10.5 0.599999
    endloop
  endfacet
  facet normal 0 0 1
    outer loop
      vertex 51.7765 0.102222 0.599999
      vertex 51 0 0.599999
      vertex 51.5209 0.0455761 0.599999
    endloop
  endfacet
  facet normal 0 0 1
    outer loop
      vertex 52.01 32.81 0.599999
      vertex 19.5726 42.8 0.599999
      vertex 47.2919 20.385 0.599999
    endloop
  endfacet
  facet normal 0 0 1
    outer loop
      vertex 47.2919 20.385 0.599999
      vertex 19.5726 42.8 0.599999
      vertex 19.5726 20.385 0.599999
    endloop
  endfacet
  facet normal -0 0 1
    outer loop
      vertex 52.01 39.81 0.599999
      vertex 54 37.83 0.599999
      vertex 54 39.81 0.599999
    endloop
  endfacet
  facet normal 0 0 1
    outer loop
      vertex 54 37.83 0.599999
      vertex 52.01 39.81 0.599999
      vertex 52.01 37.83 0.599999
    endloop
  endfacet
  facet normal -0 0 1
    outer loop
      vertex 52.01 32.81 0.599999
      vertex 54 3 0.599999
      vertex 54 32.81 0.599999
    endloop
  endfacet
  facet normal 0 0 1
    outer loop
      vertex 51.7765 0.102222 0.599999
      vertex 54 3 0.599999
      vertex 52.01 32.81 0.599999
    endloop
  endfacet
  facet normal 0 0 1
    outer loop
      vertex 54 3 0.599999
      vertex 51.7765 0.102222 0.599999
      vertex 53.9886 2.73853 0.599999
    endloop
  endfacet
  facet normal 0 0 1
    outer loop
      vertex 53.9886 2.73853 0.599999
      vertex 51.7765 0.102222 0.599999
      vertex 53.9544 2.47906 0.599999
    endloop
  endfacet
  facet normal 0 0 1
    outer loop
      vertex 53.9544 2.47906 0.599999
      vertex 51.7765 0.102222 0.599999
      vertex 53.8978 2.22354 0.599999
    endloop
  endfacet
  facet normal 0 0 1
    outer loop
      vertex 53.8978 2.22354 0.599999
      vertex 51.7765 0.102222 0.599999
      vertex 53.8191 1.97394 0.599999
    endloop
  endfacet
  facet normal 0 0 1
    outer loop
      vertex 53.8191 1.97394 0.599999
      vertex 51.7765 0.102222 0.599999
      vertex 53.7189 1.73214 0.599999
    endloop
  endfacet
  facet normal 0 0 1
    outer loop
      vertex 53.7189 1.73214 0.599999
      vertex 51.7765 0.102222 0.599999
      vertex 53.5981 1.5 0.599999
    endloop
  endfacet
  facet normal 0 0 1
    outer loop
      vertex 53.5981 1.5 0.599999
      vertex 51.7765 0.102222 0.599999
      vertex 53.4575 1.27927 0.599999
    endloop
  endfacet
  facet normal 0 0 1
    outer loop
      vertex 53.4575 1.27927 0.599999
      vertex 51.7765 0.102222 0.599999
      vertex 53.2981 1.07164 0.599999
    endloop
  endfacet
  facet normal 0 0 1
    outer loop
      vertex 53.2981 1.07164 0.599999
      vertex 51.7765 0.102222 0.599999
      vertex 53.1213 0.878679 0.599999
    endloop
  endfacet
  facet normal 0 0 1
    outer loop
      vertex 53.1213 0.878679 0.599999
      vertex 51.7765 0.102222 0.599999
      vertex 52.9284 0.701866 0.599999
    endloop
  endfacet
  facet normal 0 0 1
    outer loop
      vertex 52.9284 0.701866 0.599999
      vertex 51.7765 0.102222 0.599999
      vertex 52.7207 0.542543 0.599999
    endloop
  endfacet
  facet normal 0 0 1
    outer loop
      vertex 52.7207 0.542543 0.599999
      vertex 51.7765 0.102222 0.599999
      vertex 52.5 0.401923 0.599999
    endloop
  endfacet
  facet normal 0 0 1
    outer loop
      vertex 52.5 0.401923 0.599999
      vertex 51.7765 0.102222 0.599999
      vertex 52.2679 0.281076 0.599999
    endloop
  endfacet
  facet normal 0 0 1
    outer loop
      vertex 52.2679 0.281076 0.599999
      vertex 51.7765 0.102222 0.599999
      vertex 52.0261 0.180922 0.599999
    endloop
  endfacet
  facet normal 0 0 1
    outer loop
      vertex 51.5209 0.0455761 0.599999
      vertex 51 0 0.599999
      vertex 51.2615 0.0114155 0.599999
    endloop
  endfacet
  facet normal -0 0 1
    outer loop
      vertex 8.11081 10.5 0.599999
      vertex 51 0 0.599999
      vertex 47.2919 10.5 0.599999
    endloop
  endfacet
  facet normal 0 0 1
    outer loop
      vertex 51 0 0.599999
      vertex 8.11081 10.5 0.599999
      vertex 3 0 0.599999
    endloop
  endfacet
  facet normal 1 -0 0
    outer loop
      vertex 54 3 0.599999
      vertex 54 32.81 0
      vertex 54 32.81 0.599999
    endloop
  endfacet
  facet normal 1 0 0
    outer loop
      vertex 54 32.81 0
      vertex 54 3 0.599999
      vertex 54 3 0
    endloop
  endfacet
  facet normal 1 -0 0
    outer loop
      vertex 54 37.83 0.599999
      vertex 54 39.81 0
      vertex 54 39.81 0.599999
    endloop
  endfacet
  facet normal 1 0 0
    outer loop
      vertex 54 39.81 0
      vertex 54 37.83 0.599999
      vertex 54 37.83 0
    endloop
  endfacet
  facet normal -0.737283 -0.675584 0
    outer loop
      vertex 0.878679 0.878679 0
      vertex 0.701866 1.07164 0.599999
      vertex 0.701866 1.07164 0
    endloop
  endfacet
  facet normal -0.737283 -0.675584 0
    outer loop
      vertex 0.701866 1.07164 0.599999
      vertex 0.878679 0.878679 0
      vertex 0.878679 0.878679 0.599999
    endloop
  endfacet
  facet normal -0.300711 -0.953715 0
    outer loop
      vertex 1.97394 0.180922 0
      vertex 2.22354 0.102222 0.599999
      vertex 1.97394 0.180922 0.599999
    endloop
  endfacet
  facet normal -0.300711 -0.953715 -0
    outer loop
      vertex 2.22354 0.102222 0.599999
      vertex 1.97394 0.180922 0
      vertex 2.22354 0.102222 0
    endloop
  endfacet
  facet normal 0 0 -1
    outer loop
      vertex 0 37.83 0
      vertex 2.01 39.81 0
      vertex 2.01 37.83 0
    endloop
  endfacet
  facet normal -0 0 -1
    outer loop
      vertex 2.01 39.81 0
      vertex 0 37.83 0
      vertex 0 39.81 0
    endloop
  endfacet
  facet normal 0 0 -1
    outer loop
      vertex 3 0 0
      vertex 0 3 0
      vertex 7.17631 12.6958 0
    endloop
  endfacet
  facet normal 0 0 -1
    outer loop
      vertex 0 3 0
      vertex 1.97394 0.180922 0
      vertex 1.73214 0.281076 0
    endloop
  endfacet
  facet normal 0 0 -1
    outer loop
      vertex 0 3 0
      vertex 1.73214 0.281076 0
      vertex 1.5 0.401923 0
    endloop
  endfacet
  facet normal 0 0 -1
    outer loop
      vertex 0 3 0
      vertex 1.5 0.401923 0
      vertex 1.27927 0.542543 0
    endloop
  endfacet
  facet normal 0 0 -1
    outer loop
      vertex 0 3 0
      vertex 1.27927 0.542543 0
      vertex 1.07164 0.701866 0
    endloop
  endfacet
  facet normal 0 0 -1
    outer loop
      vertex 0 3 0
      vertex 1.07164 0.701866 0
      vertex 0.878679 0.878679 0
    endloop
  endfacet
  facet normal 0 0 -1
    outer loop
      vertex 0 3 0
      vertex 0.878679 0.878679 0
      vertex 0.701866 1.07164 0
    endloop
  endfacet
  facet normal 0 0 -1
    outer loop
      vertex 0 3 0
      vertex 0.701866 1.07164 0
      vertex 0.542543 1.27927 0
    endloop
  endfacet
  facet normal 0 0 -1
    outer loop
      vertex 0 3 0
      vertex 0.542543 1.27927 0
      vertex 0.401923 1.5 0
    endloop
  endfacet
  facet normal 0 0 -1
    outer loop
      vertex 0 3 0
      vertex 0.401923 1.5 0
      vertex 0.281076 1.73214 0
    endloop
  endfacet
  facet normal 0 0 -1
    outer loop
      vertex 0 3 0
      vertex 0.281076 1.73214 0
      vertex 0.180922 1.97394 0
    endloop
  endfacet
  facet normal 0 0 -1
    outer loop
      vertex 0 3 0
      vertex 0.180922 1.97394 0
      vertex 0.102222 2.22354 0
    endloop
  endfacet
  facet normal 0 0 -1
    outer loop
      vertex 0 3 0
      vertex 0.102222 2.22354 0
      vertex 0.0455761 2.47906 0
    endloop
  endfacet
  facet normal 0 0 -1
    outer loop
      vertex 0 3 0
      vertex 0.0455761 2.47906 0
      vertex 0.0114155 2.73853 0
    endloop
  endfacet
  facet normal 0 0 -1
    outer loop
      vertex 0 32.81 0
      vertex 7.17631 12.6958 0
      vertex 0 3 0
    endloop
  endfacet
  facet normal 0 0 -1
    outer loop
      vertex 7.17631 12.6958 0
      vertex 0 32.81 0
      vertex 2.01 32.81 0
    endloop
  endfacet
  facet normal 0 0 -1
    outer loop
      vertex 51 0 0
      vertex 33.3507 12.6958 0
      vertex 47.5355 12.6958 0
    endloop
  endfacet
  facet normal 0 0 -1
    outer loop
      vertex 33.3507 12.6958 0
      vertex 21.3611 12.6958 0
      vertex 26.9695 36.5158 0
    endloop
  endfacet
  facet normal 0 0 -1
    outer loop
      vertex 51 0 0
      vertex 21.3611 12.6958 0
      vertex 33.3507 12.6958 0
    endloop
  endfacet
  facet normal 0 0 -1
    outer loop
      vertex 3 0 0
      vertex 21.3611 12.6958 0
      vertex 51 0 0
    endloop
  endfacet
  facet normal -0 0 -1
    outer loop
      vertex 21.3611 12.6958 0
      vertex 3 0 0
      vertex 7.17631 12.6958 0
    endloop
  endfacet
  facet normal 0 0 -1
    outer loop
      vertex 1.97394 0.180922 0
      vertex 3 0 0
      vertex 2.22354 0.102222 0
    endloop
  endfacet
  facet normal 0 0 -1
    outer loop
      vertex 2.22354 0.102222 0
      vertex 3 0 0
      vertex 2.73853 0.0114155 0
    endloop
  endfacet
  facet normal 0 0 -1
    outer loop
      vertex 2.22354 0.102222 0
      vertex 2.73853 0.0114155 0
      vertex 2.47906 0.0455761 0
    endloop
  endfacet
  facet normal 0 0 -1
    outer loop
      vertex 0 3 0
      vertex 3 0 0
      vertex 1.97394 0.180922 0
    endloop
  endfacet
  facet normal 0 0 -1
    outer loop
      vertex 7.17631 12.6958 0
      vertex 2.01 32.81 0
      vertex 7.17631 42.8 0
    endloop
  endfacet
  facet normal 0 0 -1
    outer loop
      vertex 2.01 37.83 0
      vertex 7.17631 42.8 0
      vertex 2.01 32.81 0
    endloop
  endfacet
  facet normal 0 0 -1
    outer loop
      vertex 2.01 39.81 0
      vertex 7.17631 42.8 0
      vertex 2.01 37.83 0
    endloop
  endfacet
  facet normal -0 0 -1
    outer loop
      vertex 7.17631 42.8 0
      vertex 2.01 39.81 0
      vertex 2.01 42.8 0
    endloop
  endfacet
  facet normal 0 0 -1
    outer loop
      vertex 51 0 0
      vertex 54 3 0
      vertex 53.9886 2.73853 0
    endloop
  endfacet
  facet normal 0 0 -1
    outer loop
      vertex 51 0 0
      vertex 53.9886 2.73853 0
      vertex 53.9544 2.47906 0
    endloop
  endfacet
  facet normal 0 0 -1
    outer loop
      vertex 51 0 0
      vertex 53.9544 2.47906 0
      vertex 53.8978 2.22354 0
    endloop
  endfacet
  facet normal 0 0 -1
    outer loop
      vertex 51 0 0
      vertex 53.8978 2.22354 0
      vertex 53.8191 1.97394 0
    endloop
  endfacet
  facet normal 0 0 -1
    outer loop
      vertex 51 0 0
      vertex 53.8191 1.97394 0
      vertex 53.7189 1.73214 0
    endloop
  endfacet
  facet normal 0 0 -1
    outer loop
      vertex 51 0 0
      vertex 53.7189 1.73214 0
      vertex 53.5981 1.5 0
    endloop
  endfacet
  facet normal 0 0 -1
    outer loop
      vertex 51 0 0
      vertex 53.5981 1.5 0
      vertex 53.4575 1.27927 0
    endloop
  endfacet
  facet normal 0 0 -1
    outer loop
      vertex 51 0 0
      vertex 53.4575 1.27927 0
      vertex 53.2981 1.07164 0
    endloop
  endfacet
  facet normal 0 0 -1
    outer loop
      vertex 51 0 0
      vertex 53.2981 1.07164 0
      vertex 53.1213 0.878679 0
    endloop
  endfacet
  facet normal 0 0 -1
    outer loop
      vertex 51 0 0
      vertex 53.1213 0.878679 0
      vertex 52.9284 0.701866 0
    endloop
  endfacet
  facet normal 0 0 -1
    outer loop
      vertex 51 0 0
      vertex 52.9284 0.701866 0
      vertex 52.7207 0.542543 0
    endloop
  endfacet
  facet normal 0 0 -1
    outer loop
      vertex 51 0 0
      vertex 52.7207 0.542543 0
      vertex 52.5 0.401923 0
    endloop
  endfacet
  facet normal 0 0 -1
    outer loop
      vertex 51 0 0
      vertex 52.5 0.401923 0
      vertex 52.2679 0.281076 0
    endloop
  endfacet
  facet normal 0 0 -1
    outer loop
      vertex 51 0 0
      vertex 52.2679 0.281076 0
      vertex 52.0261 0.180922 0
    endloop
  endfacet
  facet normal 0 0 -1
    outer loop
      vertex 54 3 0
      vertex 47.5355 12.6958 0
      vertex 54 32.81 0
    endloop
  endfacet
  facet normal 0 0 -1
    outer loop
      vertex 47.5355 42.8 0
      vertex 52.01 37.83 0
      vertex 52.01 32.81 0
    endloop
  endfacet
  facet normal 0 0 -1
    outer loop
      vertex 52.01 37.83 0
      vertex 47.5355 42.8 0
      vertex 52.01 39.81 0
    endloop
  endfacet
  facet normal 0 0 -1
    outer loop
      vertex 51 0 0
      vertex 52.0261 0.180922 0
      vertex 51.7765 0.102222 0
    endloop
  endfacet
  facet normal -0 0 -1
    outer loop
      vertex 54 32.81 0
      vertex 47.5355 12.6958 0
      vertex 52.01 32.81 0
    endloop
  endfacet
  facet normal 0 0 -1
    outer loop
      vertex 51 0 0
      vertex 51.7765 0.102222 0
      vertex 51.5209 0.0455761 0
    endloop
  endfacet
  facet normal 0 0 -1
    outer loop
      vertex 51 0 0
      vertex 51.5209 0.0455761 0
      vertex 51.2615 0.0114155 0
    endloop
  endfacet
  facet normal -0 0 -1
    outer loop
      vertex 54 3 0
      vertex 51 0 0
      vertex 47.5355 12.6958 0
    endloop
  endfacet
  facet normal 0 0 -1
    outer loop
      vertex 47.5355 42.8 0
      vertex 52.01 32.81 0
      vertex 47.5355 12.6958 0
    endloop
  endfacet
  facet normal 0 0 -1
    outer loop
      vertex 52.01 39.81 0
      vertex 47.5355 42.8 0
      vertex 52.01 42.8 0
    endloop
  endfacet
  facet normal 0 0 -1
    outer loop
      vertex 52.01 37.83 0
      vertex 54 39.81 0
      vertex 54 37.83 0
    endloop
  endfacet
  facet normal -0 0 -1
    outer loop
      vertex 54 39.81 0
      vertex 52.01 37.83 0
      vertex 52.01 39.81 0
    endloop
  endfacet
  facet normal -0 0 -1
    outer loop
      vertex 20.8541 42.8 0
      vertex 17.1744 28.8515 0
      vertex 17.4134 42.8 0
    endloop
  endfacet
  facet normal 0 0 -1
    outer loop
      vertex 37.5374 27.6755 0
      vertex 33.2713 42.8 0
      vertex 37.2886 42.8 0
    endloop
  endfacet
  facet normal -0.130529 -0.991445 0
    outer loop
      vertex 2.47906 0.0455761 0
      vertex 2.73853 0.0114155 0.599999
      vertex 2.47906 0.0455761 0.599999
    endloop
  endfacet
  facet normal -0.130529 -0.991445 -0
    outer loop
      vertex 2.73853 0.0114155 0.599999
      vertex 2.47906 0.0455761 0
      vertex 2.73853 0.0114155 0
    endloop
  endfacet
  facet normal -0.793348 -0.608768 0
    outer loop
      vertex 0.701866 1.07164 0
      vertex 0.542543 1.27927 0.599999
      vertex 0.542543 1.27927 0
    endloop
  endfacet
  facet normal -0.793348 -0.608768 0
    outer loop
      vertex 0.542543 1.27927 0.599999
      vertex 0.701866 1.07164 0
      vertex 0.701866 1.07164 0.599999
    endloop
  endfacet
  facet normal -0.976297 -0.216434 0
    outer loop
      vertex 0.102222 2.22354 0
      vertex 0.0455761 2.47906 0.599999
      vertex 0.0455761 2.47906 0
    endloop
  endfacet
  facet normal -0.976297 -0.216434 0
    outer loop
      vertex 0.0455761 2.47906 0.599999
      vertex 0.102222 2.22354 0
      vertex 0.102222 2.22354 0.599999
    endloop
  endfacet
  facet normal -0.999048 -0.0436174 0
    outer loop
      vertex 0.0114155 2.73853 0
      vertex 0 3 0.599999
      vertex 0 3 0
    endloop
  endfacet
  facet normal -0.999048 -0.0436174 0
    outer loop
      vertex 0 3 0.599999
      vertex 0.0114155 2.73853 0
      vertex 0.0114155 2.73853 0.599999
    endloop
  endfacet
  facet normal 0.991425 -0.130677 0
    outer loop
      vertex 53.9544 2.47906 0.599999
      vertex 53.9886 2.73853 0
      vertex 53.9886 2.73853 0.599999
    endloop
  endfacet
  facet normal 0.991425 -0.130677 0
    outer loop
      vertex 53.9886 2.73853 0
      vertex 53.9544 2.47906 0.599999
      vertex 53.9544 2.47906 0
    endloop
  endfacet
  facet normal 0.6757 -0.737177 0
    outer loop
      vertex 52.9284 0.701866 0
      vertex 53.1213 0.878679 0.599999
      vertex 52.9284 0.701866 0.599999
    endloop
  endfacet
  facet normal 0.6757 -0.737177 0
    outer loop
      vertex 53.1213 0.878679 0.599999
      vertex 52.9284 0.701866 0
      vertex 53.1213 0.878679 0
    endloop
  endfacet
  facet normal 0 -1 0
    outer loop
      vertex 3 0 0
      vertex 51 0 0.599999
      vertex 3 0 0.599999
    endloop
  endfacet
  facet normal 0 -1 -0
    outer loop
      vertex 51 0 0.599999
      vertex 3 0 0
      vertex 51 0 0
    endloop
  endfacet
  facet normal -0.0436174 -0.999048 0
    outer loop
      vertex 2.73853 0.0114155 0
      vertex 3 0 0.599999
      vertex 2.73853 0.0114155 0.599999
    endloop
  endfacet
  facet normal -0.0436174 -0.999048 -0
    outer loop
      vertex 3 0 0.599999
      vertex 2.73853 0.0114155 0
      vertex 3 0 0
    endloop
  endfacet
  facet normal -0.216434 -0.976297 0
    outer loop
      vertex 2.22354 0.102222 0
      vertex 2.47906 0.0455761 0.599999
      vertex 2.22354 0.102222 0.599999
    endloop
  endfacet
  facet normal -0.216434 -0.976297 -0
    outer loop
      vertex 2.47906 0.0455761 0.599999
      vertex 2.22354 0.102222 0
      vertex 2.47906 0.0455761 0
    endloop
  endfacet
  facet normal -0.608768 -0.793348 0
    outer loop
      vertex 1.07164 0.701866 0
      vertex 1.27927 0.542543 0.599999
      vertex 1.07164 0.701866 0.599999
    endloop
  endfacet
  facet normal -0.608768 -0.793348 -0
    outer loop
      vertex 1.27927 0.542543 0.599999
      vertex 1.07164 0.701866 0
      vertex 1.27927 0.542543 0
    endloop
  endfacet
  facet normal -0.675584 -0.737283 0
    outer loop
      vertex 0.878679 0.878679 0
      vertex 1.07164 0.701866 0.599999
      vertex 0.878679 0.878679 0.599999
    endloop
  endfacet
  facet normal -0.675584 -0.737283 -0
    outer loop
      vertex 1.07164 0.701866 0.599999
      vertex 0.878679 0.878679 0
      vertex 1.07164 0.701866 0
    endloop
  endfacet
  facet normal -0.843392 -0.537298 0
    outer loop
      vertex 0.542543 1.27927 0
      vertex 0.401923 1.5 0.599999
      vertex 0.401923 1.5 0
    endloop
  endfacet
  facet normal -0.843392 -0.537298 0
    outer loop
      vertex 0.401923 1.5 0.599999
      vertex 0.542543 1.27927 0
      vertex 0.542543 1.27927 0.599999
    endloop
  endfacet
  facet normal -0.923883 -0.382674 0
    outer loop
      vertex 0.281076 1.73214 0
      vertex 0.180922 1.97394 0.599999
      vertex 0.180922 1.97394 0
    endloop
  endfacet
  facet normal -0.923883 -0.382674 0
    outer loop
      vertex 0.180922 1.97394 0.599999
      vertex 0.281076 1.73214 0
      vertex 0.281076 1.73214 0.599999
    endloop
  endfacet
  facet normal -0.887007 -0.461756 0
    outer loop
      vertex 0.401923 1.5 0
      vertex 0.281076 1.73214 0.599999
      vertex 0.281076 1.73214 0
    endloop
  endfacet
  facet normal -0.887007 -0.461756 0
    outer loop
      vertex 0.281076 1.73214 0.599999
      vertex 0.401923 1.5 0
      vertex 0.401923 1.5 0.599999
    endloop
  endfacet
  facet normal -0.953715 -0.300711 0
    outer loop
      vertex 0.180922 1.97394 0
      vertex 0.102222 2.22354 0.599999
      vertex 0.102222 2.22354 0
    endloop
  endfacet
  facet normal -0.953715 -0.300711 0
    outer loop
      vertex 0.102222 2.22354 0.599999
      vertex 0.180922 1.97394 0
      vertex 0.180922 1.97394 0.599999
    endloop
  endfacet
  facet normal -0.991445 -0.130529 0
    outer loop
      vertex 0.0455761 2.47906 0
      vertex 0.0114155 2.73853 0.599999
      vertex 0.0114155 2.73853 0
    endloop
  endfacet
  facet normal -0.991445 -0.130529 0
    outer loop
      vertex 0.0114155 2.73853 0.599999
      vertex 0.0455761 2.47906 0
      vertex 0.0455761 2.47906 0.599999
    endloop
  endfacet
  facet normal 0.300711 -0.953715 0
    outer loop
      vertex 51.7765 0.102222 0
      vertex 52.0261 0.180922 0.599999
      vertex 51.7765 0.102222 0.599999
    endloop
  endfacet
  facet normal 0.300711 -0.953715 0
    outer loop
      vertex 52.0261 0.180922 0.599999
      vertex 51.7765 0.102222 0
      vertex 52.0261 0.180922 0
    endloop
  endfacet
  facet normal 0.21637 -0.976312 0
    outer loop
      vertex 51.5209 0.0455761 0
      vertex 51.7765 0.102222 0.599999
      vertex 51.5209 0.0455761 0.599999
    endloop
  endfacet
  facet normal 0.21637 -0.976312 0
    outer loop
      vertex 51.7765 0.102222 0.599999
      vertex 51.5209 0.0455761 0
      vertex 51.7765 0.102222 0
    endloop
  endfacet
  facet normal 0.0436124 -0.999049 0
    outer loop
      vertex 51 0 0
      vertex 51.2615 0.0114155 0.599999
      vertex 51 0 0.599999
    endloop
  endfacet
  facet normal 0.0436124 -0.999049 0
    outer loop
      vertex 51.2615 0.0114155 0.599999
      vertex 51 0 0
      vertex 51.2615 0.0114155 0
    endloop
  endfacet
  facet normal 0.923821 -0.382824 0
    outer loop
      vertex 53.7189 1.73214 0.599999
      vertex 53.8191 1.97394 0
      vertex 53.8191 1.97394 0.599999
    endloop
  endfacet
  facet normal 0.923821 -0.382824 0
    outer loop
      vertex 53.8191 1.97394 0
      vertex 53.7189 1.73214 0.599999
      vertex 53.7189 1.73214 0
    endloop
  endfacet
  facet normal 0.53735 -0.843359 0
    outer loop
      vertex 52.5 0.401923 0
      vertex 52.7207 0.542543 0.599999
      vertex 52.5 0.401923 0.599999
    endloop
  endfacet
  facet normal 0.53735 -0.843359 0
    outer loop
      vertex 52.7207 0.542543 0.599999
      vertex 52.5 0.401923 0
      vertex 52.7207 0.542543 0
    endloop
  endfacet
  facet normal 0.608639 -0.793447 0
    outer loop
      vertex 52.7207 0.542543 0
      vertex 52.9284 0.701866 0.599999
      vertex 52.7207 0.542543 0.599999
    endloop
  endfacet
  facet normal 0.608639 -0.793447 0
    outer loop
      vertex 52.9284 0.701866 0.599999
      vertex 52.7207 0.542543 0
      vertex 52.9284 0.701866 0
    endloop
  endfacet
  facet normal -0.537298 -0.843392 0
    outer loop
      vertex 1.27927 0.542543 0
      vertex 1.5 0.401923 0.599999
      vertex 1.27927 0.542543 0.599999
    endloop
  endfacet
  facet normal -0.537298 -0.843392 -0
    outer loop
      vertex 1.5 0.401923 0.599999
      vertex 1.27927 0.542543 0
      vertex 1.5 0.401923 0
    endloop
  endfacet
  facet normal 0.382674 -0.923883 0
    outer loop
      vertex 52.0261 0.180922 0
      vertex 52.2679 0.281076 0.599999
      vertex 52.0261 0.180922 0.599999
    endloop
  endfacet
  facet normal 0.382674 -0.923883 0
    outer loop
      vertex 52.2679 0.281076 0.599999
      vertex 52.0261 0.180922 0
      vertex 52.2679 0.281076 0
    endloop
  endfacet
  facet normal 0.953715 -0.300711 0
    outer loop
      vertex 53.8191 1.97394 0.599999
      vertex 53.8978 2.22354 0
      vertex 53.8978 2.22354 0.599999
    endloop
  endfacet
  facet normal 0.953715 -0.300711 0
    outer loop
      vertex 53.8978 2.22354 0
      vertex 53.8191 1.97394 0.599999
      vertex 53.8191 1.97394 0
    endloop
  endfacet
  facet normal 0.976334 -0.216267 0
    outer loop
      vertex 53.8978 2.22354 0.599999
      vertex 53.9544 2.47906 0
      vertex 53.9544 2.47906 0.599999
    endloop
  endfacet
  facet normal 0.976334 -0.216267 0
    outer loop
      vertex 53.9544 2.47906 0
      vertex 53.8978 2.22354 0.599999
      vertex 53.8978 2.22354 0
    endloop
  endfacet
  facet normal 0.999051 -0.0435583 0
    outer loop
      vertex 53.9886 2.73853 0.599999
      vertex 54 3 0
      vertex 54 3 0.599999
    endloop
  endfacet
  facet normal 0.999051 -0.0435583 0
    outer loop
      vertex 54 3 0
      vertex 53.9886 2.73853 0.599999
      vertex 53.9886 2.73853 0
    endloop
  endfacet
  facet normal 0.843427 -0.537244 0
    outer loop
      vertex 53.4575 1.27927 0.599999
      vertex 53.5981 1.5 0
      vertex 53.5981 1.5 0.599999
    endloop
  endfacet
  facet normal 0.843427 -0.537244 0
    outer loop
      vertex 53.5981 1.5 0
      vertex 53.4575 1.27927 0.599999
      vertex 53.4575 1.27927 0
    endloop
  endfacet
  facet normal 0.461819 -0.886974 0
    outer loop
      vertex 52.2679 0.281076 0
      vertex 52.5 0.401923 0.599999
      vertex 52.2679 0.281076 0.599999
    endloop
  endfacet
  facet normal 0.461819 -0.886974 0
    outer loop
      vertex 52.5 0.401923 0.599999
      vertex 52.2679 0.281076 0
      vertex 52.5 0.401923 0
    endloop
  endfacet
  facet normal 0.130564 -0.99144 0
    outer loop
      vertex 51.2615 0.0114155 0
      vertex 51.5209 0.0455761 0.599999
      vertex 51.2615 0.0114155 0.599999
    endloop
  endfacet
  facet normal 0.130564 -0.99144 0
    outer loop
      vertex 51.5209 0.0455761 0.599999
      vertex 51.2615 0.0114155 0
      vertex 51.5209 0.0455761 0
    endloop
  endfacet
  facet normal 0.88708 -0.461615 0
    outer loop
      vertex 53.5981 1.5 0.599999
      vertex 53.7189 1.73214 0
      vertex 53.7189 1.73214 0.599999
    endloop
  endfacet
  facet normal 0.88708 -0.461615 0
    outer loop
      vertex 53.7189 1.73214 0
      vertex 53.5981 1.5 0.599999
      vertex 53.5981 1.5 0
    endloop
  endfacet
  facet normal 0.737308 -0.675557 0
    outer loop
      vertex 53.1213 0.878679 0.599999
      vertex 53.2981 1.07164 0
      vertex 53.2981 1.07164 0.599999
    endloop
  endfacet
  facet normal 0.737308 -0.675557 0
    outer loop
      vertex 53.2981 1.07164 0
      vertex 53.1213 0.878679 0.599999
      vertex 53.1213 0.878679 0
    endloop
  endfacet
  facet normal -0.382674 -0.923883 0
    outer loop
      vertex 1.73214 0.281076 0
      vertex 1.97394 0.180922 0.599999
      vertex 1.73214 0.281076 0.599999
    endloop
  endfacet
  facet normal -0.382674 -0.923883 -0
    outer loop
      vertex 1.97394 0.180922 0.599999
      vertex 1.73214 0.281076 0
      vertex 1.97394 0.180922 0
    endloop
  endfacet
  facet normal -0.461756 -0.887007 0
    outer loop
      vertex 1.5 0.401923 0
      vertex 1.73214 0.281076 0.599999
      vertex 1.5 0.401923 0.599999
    endloop
  endfacet
  facet normal -0.461756 -0.887007 -0
    outer loop
      vertex 1.73214 0.281076 0.599999
      vertex 1.5 0.401923 0
      vertex 1.73214 0.281076 0
    endloop
  endfacet
  facet normal 0.793206 -0.608954 0
    outer loop
      vertex 53.2981 1.07164 0.599999
      vertex 53.4575 1.27927 0
      vertex 53.4575 1.27927 0.599999
    endloop
  endfacet
  facet normal 0.793206 -0.608954 0
    outer loop
      vertex 53.4575 1.27927 0
      vertex 53.2981 1.07164 0.599999
      vertex 53.2981 1.07164 0
    endloop
  endfacet
  facet normal -1 0 0
    outer loop
      vertex 2.01 39.81 0
      vertex 2.01 42.8 0.599999
      vertex 2.01 42.8 0
    endloop
  endfacet
  facet normal -1 -0 0
    outer loop
      vertex 2.01 42.8 0.599999
      vertex 2.01 39.81 0
      vertex 2.01 39.81 0.599999
    endloop
  endfacet
  facet normal 0 1 -0
    outer loop
      vertex 2.01 39.81 0
      vertex 0 39.81 0.599999
      vertex 2.01 39.81 0.599999
    endloop
  endfacet
  facet normal 0 1 0
    outer loop
      vertex 0 39.81 0.599999
      vertex 2.01 39.81 0
      vertex 0 39.81 0
    endloop
  endfacet
  facet normal -1 0 0
    outer loop
      vertex 2.01 32.81 0
      vertex 2.01 37.83 0.599999
      vertex 2.01 37.83 0
    endloop
  endfacet
  facet normal -1 -0 0
    outer loop
      vertex 2.01 37.83 0.599999
      vertex 2.01 32.81 0
      vertex 2.01 32.81 0.599999
    endloop
  endfacet
  facet normal 0 -1 0
    outer loop
      vertex 0 37.83 0
      vertex 2.01 37.83 0.599999
      vertex 0 37.83 0.599999
    endloop
  endfacet
  facet normal 0 -1 -0
    outer loop
      vertex 2.01 37.83 0.599999
      vertex 0 37.83 0
      vertex 2.01 37.83 0
    endloop
  endfacet
  facet normal 0 1 -0
    outer loop
      vertex 2.01 32.81 0
      vertex 0 32.81 0.599999
      vertex 2.01 32.81 0.599999
    endloop
  endfacet
  facet normal 0 1 0
    outer loop
      vertex 0 32.81 0.599999
      vertex 2.01 32.81 0
      vertex 0 32.81 0
    endloop
  endfacet
  facet normal 1 -0 0
    outer loop
      vertex 52.01 39.81 0.599999
      vertex 52.01 42.8 0
      vertex 52.01 42.8 0.599999
    endloop
  endfacet
  facet normal 1 0 0
    outer loop
      vertex 52.01 42.8 0
      vertex 52.01 39.81 0.599999
      vertex 52.01 39.81 0
    endloop
  endfacet
  facet normal 0 1 -0
    outer loop
      vertex 54 39.81 0
      vertex 52.01 39.81 0.599999
      vertex 54 39.81 0.599999
    endloop
  endfacet
  facet normal 0 1 0
    outer loop
      vertex 52.01 39.81 0.599999
      vertex 54 39.81 0
      vertex 52.01 39.81 0
    endloop
  endfacet
  facet normal 1 -0 0
    outer loop
      vertex 52.01 32.81 0.599999
      vertex 52.01 37.83 0
      vertex 52.01 37.83 0.599999
    endloop
  endfacet
  facet normal 1 0 0
    outer loop
      vertex 52.01 37.83 0
      vertex 52.01 32.81 0.599999
      vertex 52.01 32.81 0
    endloop
  endfacet
  facet normal 0 -1 0
    outer loop
      vertex 52.01 37.83 0
      vertex 54 37.83 0.599999
      vertex 52.01 37.83 0.599999
    endloop
  endfacet
  facet normal 0 -1 -0
    outer loop
      vertex 54 37.83 0.599999
      vertex 52.01 37.83 0
      vertex 54 37.83 0
    endloop
  endfacet
  facet normal 0 1 -0
    outer loop
      vertex 54 32.81 0
      vertex 52.01 32.81 0.599999
      vertex 54 32.81 0.599999
    endloop
  endfacet
  facet normal 0 1 0
    outer loop
      vertex 52.01 32.81 0.599999
      vertex 54 32.81 0
      vertex 52.01 32.81 0
    endloop
  endfacet
  facet normal 0 0 -1
    outer loop
      vertex 47.5355 12.6958 0.2
      vertex 37.5374 27.6755 0.2
      vertex 47.5355 42.8 0.2
    endloop
  endfacet
  facet normal 0 0 -1
    outer loop
      vertex 33.3507 12.6958 0.2
      vertex 37.5374 27.6755 0.2
      vertex 47.5355 12.6958 0.2
    endloop
  endfacet
  facet normal 0 0 -1
    outer loop
      vertex 26.9695 36.5158 0.2
      vertex 37.5374 27.6755 0.2
      vertex 33.3507 12.6958 0.2
    endloop
  endfacet
  facet normal 0 0 -1
    outer loop
      vertex 37.5374 27.6755 0.2
      vertex 26.9695 36.5158 0.2
      vertex 33.2713 42.8 0.2
    endloop
  endfacet
  facet normal 0 0 -1
    outer loop
      vertex 26.9695 36.5158 0.2
      vertex 20.8541 42.8 0.2
      vertex 33.2713 42.8 0.2
    endloop
  endfacet
  facet normal 0 0 -1
    outer loop
      vertex 17.1744 28.8515 0.2
      vertex 26.9695 36.5158 0.2
      vertex 21.3611 12.6958 0.2
    endloop
  endfacet
  facet normal -0 0 -1
    outer loop
      vertex 26.9695 36.5158 0.2
      vertex 17.1744 28.8515 0.2
      vertex 20.8541 42.8 0.2
    endloop
  endfacet
  facet normal 0 -0 -1
    outer loop
      vertex 17.1744 28.8515 0.2
      vertex 21.3611 12.6958 0.2
      vertex 7.17631 12.6958 0.2
    endloop
  endfacet
  facet normal -0 0 -1
    outer loop
      vertex 47.5355 42.8 0.2
      vertex 37.5374 27.6755 0.2
      vertex 37.2886 42.8 0.2
    endloop
  endfacet
  facet normal 0 0 -1
    outer loop
      vertex 7.17631 42.8 0.2
      vertex 17.1744 28.8515 0.2
      vertex 7.17631 12.6958 0.2
    endloop
  endfacet
  facet normal 0 0 -1
    outer loop
      vertex 17.1744 28.8515 0.2
      vertex 7.17631 42.8 0.2
      vertex 17.4134 42.8 0.2
    endloop
  endfacet
  facet normal -0.999853 0.0171319 0
    outer loop
      vertex 17.1744 28.8515 0
      vertex 17.4134 42.8 0.2
      vertex 17.4134 42.8 0
    endloop
  endfacet
  facet normal -0.999853 0.0171319 0
    outer loop
      vertex 17.4134 42.8 0.2
      vertex 17.1744 28.8515 0
      vertex 17.1744 28.8515 0.2
    endloop
  endfacet
  facet normal 0.96692 -0.255079 0
    outer loop
      vertex 17.1744 28.8515 0.2
      vertex 20.8541 42.8 0
      vertex 20.8541 42.8 0.2
    endloop
  endfacet
  facet normal 0.96692 -0.255079 0
    outer loop
      vertex 20.8541 42.8 0
      vertex 17.1744 28.8515 0.2
      vertex 17.1744 28.8515 0
    endloop
  endfacet
  facet normal -0.962446 -0.271473 0
    outer loop
      vertex 37.5374 27.6755 0
      vertex 33.2713 42.8 0.2
      vertex 33.2713 42.8 0
    endloop
  endfacet
  facet normal -0.962446 -0.271473 0
    outer loop
      vertex 33.2713 42.8 0.2
      vertex 37.5374 27.6755 0
      vertex 37.5374 27.6755 0.2
    endloop
  endfacet
  facet normal 0.999865 0.0164479 0
    outer loop
      vertex 37.5374 27.6755 0.2
      vertex 37.2886 42.8 0
      vertex 37.2886 42.8 0.2
    endloop
  endfacet
  facet normal 0.999865 0.0164479 0
    outer loop
      vertex 37.2886 42.8 0
      vertex 37.5374 27.6755 0.2
      vertex 37.5374 27.6755 0
    endloop
  endfacet
  facet normal -1 0 0
    outer loop
      vertex 47.5355 12.6958 0
      vertex 47.5355 42.8 0.2
      vertex 47.5355 42.8 0
    endloop
  endfacet
  facet normal -1 -0 0
    outer loop
      vertex 47.5355 42.8 0.2
      vertex 47.5355 12.6958 0
      vertex 47.5355 12.6958 0.2
    endloop
  endfacet
  facet normal 0 1 -0
    outer loop
      vertex 47.5355 12.6958 0
      vertex 33.3507 12.6958 0.2
      vertex 47.5355 12.6958 0.2
    endloop
  endfacet
  facet normal 0 1 0
    outer loop
      vertex 33.3507 12.6958 0.2
      vertex 47.5355 12.6958 0
      vertex 33.3507 12.6958 0
    endloop
  endfacet
  facet normal 0.96594 0.258768 0
    outer loop
      vertex 33.3507 12.6958 0.2
      vertex 26.9695 36.5158 0
      vertex 26.9695 36.5158 0.2
    endloop
  endfacet
  facet normal 0.96594 0.258768 0
    outer loop
      vertex 26.9695 36.5158 0
      vertex 33.3507 12.6958 0.2
      vertex 33.3507 12.6958 0
    endloop
  endfacet
  facet normal -0.973384 0.229182 0
    outer loop
      vertex 21.3611 12.6958 0
      vertex 26.9695 36.5158 0.2
      vertex 26.9695 36.5158 0
    endloop
  endfacet
  facet normal -0.973384 0.229182 0
    outer loop
      vertex 26.9695 36.5158 0.2
      vertex 21.3611 12.6958 0
      vertex 21.3611 12.6958 0.2
    endloop
  endfacet
  facet normal 0 1 -0
    outer loop
      vertex 21.3611 12.6958 0
      vertex 7.17631 12.6958 0.2
      vertex 21.3611 12.6958 0.2
    endloop
  endfacet
  facet normal 0 1 0
    outer loop
      vertex 7.17631 12.6958 0.2
      vertex 21.3611 12.6958 0
      vertex 7.17631 12.6958 0
    endloop
  endfacet
  facet normal 1 -0 0
    outer loop
      vertex 7.17631 12.6958 0.2
      vertex 7.17631 42.8 0
      vertex 7.17631 42.8 0.2
    endloop
  endfacet
  facet normal 1 0 0
    outer loop
      vertex 7.17631 42.8 0
      vertex 7.17631 12.6958 0.2
      vertex 7.17631 12.6958 0
    endloop
  endfacet
  facet normal 0 0 1
    outer loop
      vertex 19.5726 42.8 0.4
      vertex 8.11081 42.8 0.4
      vertex 19.5726 20.385 0.4
    endloop
  endfacet
  facet normal -0 0 1
    outer loop
      vertex 19.5726 20.385 0.4
      vertex 47.2919 10.5 0.4
      vertex 47.2919 20.385 0.4
    endloop
  endfacet
  facet normal 0 0 1
    outer loop
      vertex 19.5726 20.385 0.4
      vertex 8.11081 10.5 0.4
      vertex 47.2919 10.5 0.4
    endloop
  endfacet
  facet normal 0 0 1
    outer loop
      vertex 8.11081 10.5 0.4
      vertex 19.5726 20.385 0.4
      vertex 8.11081 42.8 0.4
    endloop
  endfacet
  facet normal 0 -1 0
    outer loop
      vertex 19.5726 20.385 0.4
      vertex 47.2919 20.385 0.599999
      vertex 19.5726 20.385 0.599999
    endloop
  endfacet
  facet normal 0 -1 -0
    outer loop
      vertex 47.2919 20.385 0.599999
      vertex 19.5726 20.385 0.4
      vertex 47.2919 20.385 0.4
    endloop
  endfacet
  facet normal -1 0 0
    outer loop
      vertex 19.5726 20.385 0.4
      vertex 19.5726 42.8 0.599999
      vertex 19.5726 42.8 0.4
    endloop
  endfacet
  facet normal -1 -0 0
    outer loop
      vertex 19.5726 42.8 0.599999
      vertex 19.5726 20.385 0.4
      vertex 19.5726 20.385 0.599999
    endloop
  endfacet
  facet normal 1 -0 0
    outer loop
      vertex 8.11081 10.5 0.599999
      vertex 8.11081 42.8 0.4
      vertex 8.11081 42.8 0.599999
    endloop
  endfacet
  facet normal 1 0 0
    outer loop
      vertex 8.11081 42.8 0.4
      vertex 8.11081 10.5 0.599999
      vertex 8.11081 10.5 0.4
    endloop
  endfacet
  facet normal 0 1 -0
    outer loop
      vertex 47.2919 10.5 0.4
      vertex 8.11081 10.5 0.599999
      vertex 47.2919 10.5 0.599999
    endloop
  endfacet
  facet normal 0 1 0
    outer loop
      vertex 8.11081 10.5 0.599999
      vertex 47.2919 10.5 0.4
      vertex 8.11081 10.5 0.4
    endloop
  endfacet
  facet normal -1 0 0
    outer loop
      vertex 47.2919 10.5 0.4
      vertex 47.2919 20.385 0.599999
      vertex 47.2919 20.385 0.4
    endloop
  endfacet
  facet normal -1 -0 0
    outer loop
      vertex 47.2919 20.385 0.599999
      vertex 47.2919 10.5 0.4
      vertex 47.2919 10.5 0.599999
    endloop
  endfacet
endsolid OpenSCAD_Model
