solid OpenSCAD_Model
  facet normal 0 1 -0
    outer loop
      vertex 34.8297 42.8 0.4
      vertex 20.1262 42.8 0.599999
      vertex 34.8297 42.8 0.599999
    endloop
  endfacet
  facet normal 0 1 0
    outer loop
      vertex 20.1262 42.8 0.599999
      vertex 34.8297 42.8 0.4
      vertex 20.1262 42.8 0.4
    endloop
  endfacet
  facet normal 0 1 -0
    outer loop
      vertex 38.2451 42.8 0
      vertex 16.8363 42.8 0.2
      vertex 38.2451 42.8 0.2
    endloop
  endfacet
  facet normal 0 1 0
    outer loop
      vertex 16.8363 42.8 0.2
      vertex 38.2451 42.8 0
      vertex 16.8363 42.8 0
    endloop
  endfacet
  facet normal 0 0 -1
    outer loop
      vertex 39.2034 12.6958 0
      vertex 38.2451 42.8 0
      vertex 51.7628 12.6958 0
    endloop
  endfacet
  facet normal 0 0 -1
    outer loop
      vertex 27.5386 41.9158 0
      vertex 38.2451 42.8 0
      vertex 39.2034 12.6958 0
    endloop
  endfacet
  facet normal 0 0 -1
    outer loop
      vertex 27.5386 41.9158 0
      vertex 16.8363 42.8 0
      vertex 38.2451 42.8 0
    endloop
  endfacet
  facet normal 0 0 -1
    outer loop
      vertex 15.8738 12.6958 0
      vertex 16.8363 42.8 0
      vertex 27.5386 41.9158 0
    endloop
  endfacet
  facet normal 0 0 -1
    outer loop
      vertex 16.8363 42.8 0
      vertex 15.8738 12.6958 0
      vertex 3.3557 12.6958 0
    endloop
  endfacet
  facet normal 0 0 1
    outer loop
      vertex 20.3041 42.4635 0.599999
      vertex 34.6513 42.4635 0.599999
      vertex 34.8297 42.8 0.599999
    endloop
  endfacet
  facet normal 0 0 1
    outer loop
      vertex 34.6513 42.4635 0.599999
      vertex 20.3041 42.4635 0.599999
      vertex 27.5386 33.5797 0.599999
    endloop
  endfacet
  facet normal 0 -0 1
    outer loop
      vertex 20.3041 42.4635 0.599999
      vertex 34.8297 42.8 0.599999
      vertex 20.1262 42.8 0.599999
    endloop
  endfacet
  facet normal 0 0 1
    outer loop
      vertex 34.6513 42.4635 0.599999
      vertex 38.3907 10.5 0.599999
      vertex 51.7215 10.5 0.599999
    endloop
  endfacet
  facet normal 0 0 1
    outer loop
      vertex 38.3907 10.5 0.599999
      vertex 34.6513 42.4635 0.599999
      vertex 27.5386 33.5797 0.599999
    endloop
  endfacet
  facet normal 0 0 1
    outer loop
      vertex 20.3041 42.4635 0.599999
      vertex 16.7278 10.5 0.599999
      vertex 27.5386 33.5797 0.599999
    endloop
  endfacet
  facet normal 0 -0 1
    outer loop
      vertex 16.7278 10.5 0.599999
      vertex 20.3041 42.4635 0.599999
      vertex 3.2339 10.5 0.599999
    endloop
  endfacet
  facet normal 0 0 1
    outer loop
      vertex 38.2451 42.8 0.2
      vertex 39.2034 12.6958 0.2
      vertex 51.7628 12.6958 0.2
    endloop
  endfacet
  facet normal 0 0 1
    outer loop
      vertex 38.2451 42.8 0.2
      vertex 27.5386 41.9158 0.2
      vertex 39.2034 12.6958 0.2
    endloop
  endfacet
  facet normal -0 0 1
    outer loop
      vertex 16.8363 42.8 0.2
      vertex 27.5386 41.9158 0.2
      vertex 38.2451 42.8 0.2
    endloop
  endfacet
  facet normal 0 0 1
    outer loop
      vertex 16.8363 42.8 0.2
      vertex 15.8738 12.6958 0.2
      vertex 27.5386 41.9158 0.2
    endloop
  endfacet
  facet normal 0 -0 1
    outer loop
      vertex 15.8738 12.6958 0.2
      vertex 16.8363 42.8 0.2
      vertex 3.3557 12.6958 0.2
    endloop
  endfacet
  facet normal 0.912252 0.409629 0
    outer loop
      vertex 51.7628 12.6958 0.2
      vertex 38.2451 42.8 0
      vertex 38.2451 42.8 0.2
    endloop
  endfacet
  facet normal 0.912252 0.409629 0
    outer loop
      vertex 38.2451 42.8 0
      vertex 51.7628 12.6958 0.2
      vertex 51.7628 12.6958 0
    endloop
  endfacet
  facet normal 0 -1 0
    outer loop
      vertex 39.2034 12.6958 0
      vertex 51.7628 12.6958 0.2
      vertex 39.2034 12.6958 0.2
    endloop
  endfacet
  facet normal 0 -1 -0
    outer loop
      vertex 51.7628 12.6958 0.2
      vertex 39.2034 12.6958 0
      vertex 51.7628 12.6958 0
    endloop
  endfacet
  facet normal -0.928731 -0.370755 0
    outer loop
      vertex 39.2034 12.6958 0
      vertex 27.5386 41.9158 0.2
      vertex 27.5386 41.9158 0
    endloop
  endfacet
  facet normal -0.928731 -0.370755 0
    outer loop
      vertex 27.5386 41.9158 0.2
      vertex 39.2034 12.6958 0
      vertex 39.2034 12.6958 0.2
    endloop
  endfacet
  facet normal 0.928731 -0.370755 0
    outer loop
      vertex 15.8738 12.6958 0.2
      vertex 27.5386 41.9158 0
      vertex 27.5386 41.9158 0.2
    endloop
  endfacet
  facet normal 0.928731 -0.370755 0
    outer loop
      vertex 27.5386 41.9158 0
      vertex 15.8738 12.6958 0.2
      vertex 15.8738 12.6958 0
    endloop
  endfacet
  facet normal 0 -1 0
    outer loop
      vertex 3.3557 12.6958 0
      vertex 15.8738 12.6958 0.2
      vertex 3.3557 12.6958 0.2
    endloop
  endfacet
  facet normal 0 -1 -0
    outer loop
      vertex 15.8738 12.6958 0.2
      vertex 3.3557 12.6958 0
      vertex 15.8738 12.6958 0
    endloop
  endfacet
  facet normal -0.912672 0.408693 0
    outer loop
      vertex 3.3557 12.6958 0
      vertex 16.8363 42.8 0.2
      vertex 16.8363 42.8 0
    endloop
  endfacet
  facet normal -0.912672 0.408693 0
    outer loop
      vertex 16.8363 42.8 0.2
      vertex 3.3557 12.6958 0
      vertex 3.3557 12.6958 0.2
    endloop
  endfacet
  facet normal 0 0 -1
    outer loop
      vertex 38.3907 10.5 0.4
      vertex 34.6513 42.4635 0.4
      vertex 51.7215 10.5 0.4
    endloop
  endfacet
  facet normal 0 -0 -1
    outer loop
      vertex 34.6513 42.4635 0.4
      vertex 38.3907 10.5 0.4
      vertex 27.5386 33.5797 0.4
    endloop
  endfacet
  facet normal 0 0 -1
    outer loop
      vertex 20.3041 42.4635 0.4
      vertex 34.6513 42.4635 0.4
      vertex 27.5386 33.5797 0.4
    endloop
  endfacet
  facet normal 0 0 -1
    outer loop
      vertex 34.6513 42.4635 0.4
      vertex 20.3041 42.4635 0.4
      vertex 34.8297 42.8 0.4
    endloop
  endfacet
  facet normal -0 0 -1
    outer loop
      vertex 34.8297 42.8 0.4
      vertex 20.3041 42.4635 0.4
      vertex 20.1262 42.8 0.4
    endloop
  endfacet
  facet normal 0 0 -1
    outer loop
      vertex 16.7278 10.5 0.4
      vertex 20.3041 42.4635 0.4
      vertex 27.5386 33.5797 0.4
    endloop
  endfacet
  facet normal 0 0 -1
    outer loop
      vertex 20.3041 42.4635 0.4
      vertex 16.7278 10.5 0.4
      vertex 3.2339 10.5 0.4
    endloop
  endfacet
  facet normal -0.904954 -0.42551 0
    outer loop
      vertex 38.3907 10.5 0.4
      vertex 27.5386 33.5797 0.599999
      vertex 27.5386 33.5797 0.4
    endloop
  endfacet
  facet normal -0.904954 -0.42551 0
    outer loop
      vertex 27.5386 33.5797 0.599999
      vertex 38.3907 10.5 0.4
      vertex 38.3907 10.5 0.599999
    endloop
  endfacet
  facet normal 0 -1 0
    outer loop
      vertex 38.3907 10.5 0.4
      vertex 51.7215 10.5 0.599999
      vertex 38.3907 10.5 0.599999
    endloop
  endfacet
  facet normal 0 -1 -0
    outer loop
      vertex 51.7215 10.5 0.599999
      vertex 38.3907 10.5 0.4
      vertex 51.7215 10.5 0.4
    endloop
  endfacet
  facet normal 0.882089 0.471082 0
    outer loop
      vertex 51.7215 10.5 0.599999
      vertex 34.6513 42.4635 0.4
      vertex 34.6513 42.4635 0.599999
    endloop
  endfacet
  facet normal 0.882089 0.471082 0
    outer loop
      vertex 34.6513 42.4635 0.4
      vertex 51.7215 10.5 0.599999
      vertex 51.7215 10.5 0.4
    endloop
  endfacet
  facet normal 0.883513 -0.468406 0
    outer loop
      vertex 34.6513 42.4635 0.599999
      vertex 34.8297 42.8 0.4
      vertex 34.8297 42.8 0.599999
    endloop
  endfacet
  facet normal 0.883513 -0.468406 0
    outer loop
      vertex 34.8297 42.8 0.4
      vertex 34.6513 42.4635 0.599999
      vertex 34.6513 42.4635 0.4
    endloop
  endfacet
  facet normal -0.884056 -0.467381 0
    outer loop
      vertex 20.3041 42.4635 0.4
      vertex 20.1262 42.8 0.599999
      vertex 20.1262 42.8 0.4
    endloop
  endfacet
  facet normal -0.884056 -0.467381 0
    outer loop
      vertex 20.1262 42.8 0.599999
      vertex 20.3041 42.4635 0.4
      vertex 20.3041 42.4635 0.599999
    endloop
  endfacet
  facet normal -0.882089 0.471082 0
    outer loop
      vertex 3.2339 10.5 0.4
      vertex 20.3041 42.4635 0.599999
      vertex 20.3041 42.4635 0.4
    endloop
  endfacet
  facet normal -0.882089 0.471082 0
    outer loop
      vertex 20.3041 42.4635 0.599999
      vertex 3.2339 10.5 0.4
      vertex 3.2339 10.5 0.599999
    endloop
  endfacet
  facet normal 0 -1 0
    outer loop
      vertex 3.2339 10.5 0.4
      vertex 16.7278 10.5 0.599999
      vertex 3.2339 10.5 0.599999
    endloop
  endfacet
  facet normal 0 -1 -0
    outer loop
      vertex 16.7278 10.5 0.599999
      vertex 3.2339 10.5 0.4
      vertex 16.7278 10.5 0.4
    endloop
  endfacet
  facet normal 0.905577 -0.424183 0
    outer loop
      vertex 16.7278 10.5 0.599999
      vertex 27.5386 33.5797 0.4
      vertex 27.5386 33.5797 0.599999
    endloop
  endfacet
  facet normal 0.905577 -0.424183 0
    outer loop
      vertex 27.5386 33.5797 0.4
      vertex 16.7278 10.5 0.599999
      vertex 16.7278 10.5 0.4
    endloop
  endfacet
endsolid OpenSCAD_Model
