solid OpenSCAD_Model
  facet normal 0 1 -0
    outer loop
      vertex 16.983 42.8 0.4
      vertex 7.05906 42.8 0.599999
      vertex 16.983 42.8 0.599999
    endloop
  endfacet
  facet normal 0 1 0
    outer loop
      vertex 7.05906 42.8 0.599999
      vertex 16.983 42.8 0.4
      vertex 7.05906 42.8 0.4
    endloop
  endfacet
  facet normal 0 1 -0
    outer loop
      vertex 26.1855 42.8 0.4
      vertex 18.6504 42.8 0.599999
      vertex 26.1855 42.8 0.599999
    endloop
  endfacet
  facet normal 0 1 0
    outer loop
      vertex 18.6504 42.8 0.599999
      vertex 26.1855 42.8 0.4
      vertex 18.6504 42.8 0.4
    endloop
  endfacet
  facet normal 0 1 -0
    outer loop
      vertex 35.2895 42.8 0.4
      vertex 27.7003 42.8 0.599999
      vertex 35.2895 42.8 0.599999
    endloop
  endfacet
  facet normal 0 1 0
    outer loop
      vertex 27.7003 42.8 0.599999
      vertex 35.2895 42.8 0.4
      vertex 27.7003 42.8 0.4
    endloop
  endfacet
  facet normal 0 1 -0
    outer loop
      vertex 47.0438 42.8 0.4
      vertex 37.0767 42.8 0.599999
      vertex 47.0438 42.8 0.599999
    endloop
  endfacet
  facet normal 0 1 0
    outer loop
      vertex 37.0767 42.8 0.599999
      vertex 47.0438 42.8 0.4
      vertex 37.0767 42.8 0.4
    endloop
  endfacet
  facet normal 0 1 -0
    outer loop
      vertex 35.3597 42.8 0
      vertex 19.5975 42.8 0.2
      vertex 35.3597 42.8 0.2
    endloop
  endfacet
  facet normal 0 1 0
    outer loop
      vertex 19.5975 42.8 0.2
      vertex 35.3597 42.8 0
      vertex 19.5975 42.8 0
    endloop
  endfacet
  facet normal 0 0 -1
    outer loop
      vertex 37.9028 12.6958 0
      vertex 35.3597 42.8 0
      vertex 51.3155 12.6958 0
    endloop
  endfacet
  facet normal 0 0 -1
    outer loop
      vertex 27.3762 35.4275 0
      vertex 35.3597 42.8 0
      vertex 37.9028 12.6958 0
    endloop
  endfacet
  facet normal 0 0 -1
    outer loop
      vertex 27.3762 35.4275 0
      vertex 19.5975 42.8 0
      vertex 35.3597 42.8 0
    endloop
  endfacet
  facet normal 0 0 -1
    outer loop
      vertex 17.012 12.6958 0
      vertex 19.5975 42.8 0
      vertex 27.3762 35.4275 0
    endloop
  endfacet
  facet normal 0 0 -1
    outer loop
      vertex 19.5975 42.8 0
      vertex 17.012 12.6958 0
      vertex 3.68121 12.6958 0
    endloop
  endfacet
  facet normal 0 0 1
    outer loop
      vertex 17.7435 35.9752 0.599999
      vertex 26.1855 42.8 0.599999
      vertex 18.6504 42.8 0.599999
    endloop
  endfacet
  facet normal 0 0 1
    outer loop
      vertex 26.1855 42.8 0.599999
      vertex 17.7435 35.9752 0.599999
      vertex 21.5235 10.5 0.599999
    endloop
  endfacet
  facet normal 0 0 1
    outer loop
      vertex 17.7435 35.9752 0.599999
      vertex 11.1999 10.5 0.599999
      vertex 21.5235 10.5 0.599999
    endloop
  endfacet
  facet normal -0 0 1
    outer loop
      vertex 7.05906 42.8 0.599999
      vertex 17.7435 35.9752 0.599999
      vertex 16.983 42.8 0.599999
    endloop
  endfacet
  facet normal 0 0 1
    outer loop
      vertex 17.7435 35.9752 0.599999
      vertex 7.05906 42.8 0.599999
      vertex 11.1999 10.5 0.599999
    endloop
  endfacet
  facet normal 0 0 1
    outer loop
      vertex 36.2774 35.7135 0.599999
      vertex 47.0438 42.8 0.599999
      vertex 37.0767 42.8 0.599999
    endloop
  endfacet
  facet normal 0 0 1
    outer loop
      vertex 47.0438 42.8 0.599999
      vertex 36.2774 35.7135 0.599999
      vertex 42.8616 10.5 0.599999
    endloop
  endfacet
  facet normal 0 0 1
    outer loop
      vertex 36.2774 35.7135 0.599999
      vertex 32.538 10.5 0.599999
      vertex 42.8616 10.5 0.599999
    endloop
  endfacet
  facet normal -0 0 1
    outer loop
      vertex 27.7003 42.8 0.599999
      vertex 36.2774 35.7135 0.599999
      vertex 35.2895 42.8 0.599999
    endloop
  endfacet
  facet normal 0 0 1
    outer loop
      vertex 36.2774 35.7135 0.599999
      vertex 27.7003 42.8 0.599999
      vertex 32.538 10.5 0.599999
    endloop
  endfacet
  facet normal 0 0 1
    outer loop
      vertex 35.3597 42.8 0.2
      vertex 37.9028 12.6958 0.2
      vertex 51.3155 12.6958 0.2
    endloop
  endfacet
  facet normal 0 0 1
    outer loop
      vertex 35.3597 42.8 0.2
      vertex 27.3762 35.4275 0.2
      vertex 37.9028 12.6958 0.2
    endloop
  endfacet
  facet normal -0 0 1
    outer loop
      vertex 19.5975 42.8 0.2
      vertex 27.3762 35.4275 0.2
      vertex 35.3597 42.8 0.2
    endloop
  endfacet
  facet normal 0 0 1
    outer loop
      vertex 19.5975 42.8 0.2
      vertex 17.012 12.6958 0.2
      vertex 27.3762 35.4275 0.2
    endloop
  endfacet
  facet normal 0 -0 1
    outer loop
      vertex 17.012 12.6958 0.2
      vertex 19.5975 42.8 0.2
      vertex 3.68121 12.6958 0.2
    endloop
  endfacet
  facet normal 0.883566 0.468307 0
    outer loop
      vertex 51.3155 12.6958 0.2
      vertex 35.3597 42.8 0
      vertex 35.3597 42.8 0.2
    endloop
  endfacet
  facet normal 0.883566 0.468307 0
    outer loop
      vertex 35.3597 42.8 0
      vertex 51.3155 12.6958 0.2
      vertex 51.3155 12.6958 0
    endloop
  endfacet
  facet normal 0 -1 0
    outer loop
      vertex 37.9028 12.6958 0
      vertex 51.3155 12.6958 0.2
      vertex 37.9028 12.6958 0.2
    endloop
  endfacet
  facet normal 0 -1 -0
    outer loop
      vertex 51.3155 12.6958 0.2
      vertex 37.9028 12.6958 0
      vertex 51.3155 12.6958 0
    endloop
  endfacet
  facet normal -0.907426 -0.420211 0
    outer loop
      vertex 37.9028 12.6958 0
      vertex 27.3762 35.4275 0.2
      vertex 27.3762 35.4275 0
    endloop
  endfacet
  facet normal -0.907426 -0.420211 0
    outer loop
      vertex 27.3762 35.4275 0.2
      vertex 37.9028 12.6958 0
      vertex 37.9028 12.6958 0.2
    endloop
  endfacet
  facet normal 0.909889 -0.414851 0
    outer loop
      vertex 17.012 12.6958 0.2
      vertex 27.3762 35.4275 0
      vertex 27.3762 35.4275 0.2
    endloop
  endfacet
  facet normal 0.909889 -0.414851 0
    outer loop
      vertex 27.3762 35.4275 0
      vertex 17.012 12.6958 0.2
      vertex 17.012 12.6958 0
    endloop
  endfacet
  facet normal 0 -1 0
    outer loop
      vertex 3.68121 12.6958 0
      vertex 17.012 12.6958 0.2
      vertex 3.68121 12.6958 0.2
    endloop
  endfacet
  facet normal 0 -1 -0
    outer loop
      vertex 17.012 12.6958 0.2
      vertex 3.68121 12.6958 0
      vertex 17.012 12.6958 0
    endloop
  endfacet
  facet normal -0.884046 0.467401 0
    outer loop
      vertex 3.68121 12.6958 0
      vertex 19.5975 42.8 0.2
      vertex 19.5975 42.8 0
    endloop
  endfacet
  facet normal -0.884046 0.467401 0
    outer loop
      vertex 19.5975 42.8 0.2
      vertex 3.68121 12.6958 0
      vertex 3.68121 12.6958 0.2
    endloop
  endfacet
  facet normal 0 0 -1
    outer loop
      vertex 36.2774 35.7135 0.4
      vertex 47.0438 42.8 0.4
      vertex 42.8616 10.5 0.4
    endloop
  endfacet
  facet normal -0 0 -1
    outer loop
      vertex 47.0438 42.8 0.4
      vertex 36.2774 35.7135 0.4
      vertex 37.0767 42.8 0.4
    endloop
  endfacet
  facet normal 0 0 -1
    outer loop
      vertex 32.538 10.5 0.4
      vertex 36.2774 35.7135 0.4
      vertex 42.8616 10.5 0.4
    endloop
  endfacet
  facet normal 0 0 -1
    outer loop
      vertex 27.7003 42.8 0.4
      vertex 36.2774 35.7135 0.4
      vertex 32.538 10.5 0.4
    endloop
  endfacet
  facet normal 0 0 -1
    outer loop
      vertex 36.2774 35.7135 0.4
      vertex 27.7003 42.8 0.4
      vertex 35.2895 42.8 0.4
    endloop
  endfacet
  facet normal 0 0 -1
    outer loop
      vertex 17.7435 35.9752 0.4
      vertex 26.1855 42.8 0.4
      vertex 21.5235 10.5 0.4
    endloop
  endfacet
  facet normal -0 0 -1
    outer loop
      vertex 26.1855 42.8 0.4
      vertex 17.7435 35.9752 0.4
      vertex 18.6504 42.8 0.4
    endloop
  endfacet
  facet normal 0 0 -1
    outer loop
      vertex 11.1999 10.5 0.4
      vertex 17.7435 35.9752 0.4
      vertex 21.5235 10.5 0.4
    endloop
  endfacet
  facet normal 0 0 -1
    outer loop
      vertex 7.05906 42.8 0.4
      vertex 17.7435 35.9752 0.4
      vertex 11.1999 10.5 0.4
    endloop
  endfacet
  facet normal 0 0 -1
    outer loop
      vertex 17.7435 35.9752 0.4
      vertex 7.05906 42.8 0.4
      vertex 16.983 42.8 0.4
    endloop
  endfacet
  facet normal -0.988969 -0.148122 0
    outer loop
      vertex 32.538 10.5 0.4
      vertex 27.7003 42.8 0.599999
      vertex 27.7003 42.8 0.4
    endloop
  endfacet
  facet normal -0.988969 -0.148122 0
    outer loop
      vertex 27.7003 42.8 0.599999
      vertex 32.538 10.5 0.4
      vertex 32.538 10.5 0.599999
    endloop
  endfacet
  facet normal 0 -1 0
    outer loop
      vertex 32.538 10.5 0.4
      vertex 42.8616 10.5 0.599999
      vertex 32.538 10.5 0.599999
    endloop
  endfacet
  facet normal 0 -1 -0
    outer loop
      vertex 42.8616 10.5 0.599999
      vertex 32.538 10.5 0.4
      vertex 42.8616 10.5 0.4
    endloop
  endfacet
  facet normal 0.991721 -0.128408 0
    outer loop
      vertex 42.8616 10.5 0.599999
      vertex 47.0438 42.8 0.4
      vertex 47.0438 42.8 0.599999
    endloop
  endfacet
  facet normal 0.991721 -0.128408 0
    outer loop
      vertex 47.0438 42.8 0.4
      vertex 42.8616 10.5 0.599999
      vertex 42.8616 10.5 0.4
    endloop
  endfacet
  facet normal -0.993699 0.112081 0
    outer loop
      vertex 36.2774 35.7135 0.4
      vertex 37.0767 42.8 0.599999
      vertex 37.0767 42.8 0.4
    endloop
  endfacet
  facet normal -0.993699 0.112081 0
    outer loop
      vertex 37.0767 42.8 0.599999
      vertex 36.2774 35.7135 0.4
      vertex 36.2774 35.7135 0.599999
    endloop
  endfacet
  facet normal 0.990422 0.138071 0
    outer loop
      vertex 36.2774 35.7135 0.599999
      vertex 35.2895 42.8 0.4
      vertex 35.2895 42.8 0.599999
    endloop
  endfacet
  facet normal 0.990422 0.138071 0
    outer loop
      vertex 35.2895 42.8 0.4
      vertex 36.2774 35.7135 0.599999
      vertex 36.2774 35.7135 0.4
    endloop
  endfacet
  facet normal -0.991286 0.131725 0
    outer loop
      vertex 17.7435 35.9752 0.4
      vertex 18.6504 42.8 0.599999
      vertex 18.6504 42.8 0.4
    endloop
  endfacet
  facet normal -0.991286 0.131725 0
    outer loop
      vertex 18.6504 42.8 0.599999
      vertex 17.7435 35.9752 0.4
      vertex 17.7435 35.9752 0.599999
    endloop
  endfacet
  facet normal 0.993849 0.110746 0
    outer loop
      vertex 17.7435 35.9752 0.599999
      vertex 16.983 42.8 0.4
      vertex 16.983 42.8 0.599999
    endloop
  endfacet
  facet normal 0.993849 0.110746 0
    outer loop
      vertex 16.983 42.8 0.4
      vertex 17.7435 35.9752 0.599999
      vertex 17.7435 35.9752 0.4
    endloop
  endfacet
  facet normal -0.991882 -0.127159 0
    outer loop
      vertex 11.1999 10.5 0.4
      vertex 7.05906 42.8 0.599999
      vertex 7.05906 42.8 0.4
    endloop
  endfacet
  facet normal -0.991882 -0.127159 0
    outer loop
      vertex 7.05906 42.8 0.599999
      vertex 11.1999 10.5 0.4
      vertex 11.1999 10.5 0.599999
    endloop
  endfacet
  facet normal 0 -1 0
    outer loop
      vertex 11.1999 10.5 0.4
      vertex 21.5235 10.5 0.599999
      vertex 11.1999 10.5 0.599999
    endloop
  endfacet
  facet normal 0 -1 -0
    outer loop
      vertex 21.5235 10.5 0.599999
      vertex 11.1999 10.5 0.4
      vertex 21.5235 10.5 0.4
    endloop
  endfacet
  facet normal 0.989744 -0.142854 0
    outer loop
      vertex 21.5235 10.5 0.599999
      vertex 26.1855 42.8 0.4
      vertex 26.1855 42.8 0.599999
    endloop
  endfacet
  facet normal 0.989744 -0.142854 0
    outer loop
      vertex 26.1855 42.8 0.4
      vertex 21.5235 10.5 0.599999
      vertex 21.5235 10.5 0.4
    endloop
  endfacet
endsolid OpenSCAD_Model
